<svg width="40" height="40" viewBox="0 0 40 40" fill="none" xmlns="http://www.w3.org/2000/svg">
<circle cx="20.0002" cy="20" r="20" fill="url(#paint0_radial_2014_950)"/>
<circle cx="20.0002" cy="20" r="19.5" stroke="#B7CDFF" stroke-opacity="0.32"/>
<g clip-path="url(#clip0_2014_950)">
<path d="M12.0831 17.5H27.9165M18.3331 12.5L16.6665 17.5L19.9998 27.0833L23.3331 17.5L21.6665 12.5M20.5119 26.8854L27.9775 17.9268C28.104 17.775 28.1673 17.699 28.1914 17.6143C28.2127 17.5396 28.2127 17.4604 28.1914 17.3857C28.1673 17.301 28.104 17.225 27.9775 17.0732L24.3664 12.7399C24.2929 12.6517 24.2561 12.6076 24.2111 12.5759C24.1712 12.5478 24.1267 12.527 24.0796 12.5143C24.0264 12.5 23.969 12.5 23.8542 12.5H16.1454C16.0306 12.5 15.9732 12.5 15.92 12.5143C15.8729 12.527 15.8284 12.5478 15.7885 12.5759C15.7434 12.6076 15.7067 12.6517 15.6332 12.7399L12.0221 17.0732C11.8956 17.225 11.8323 17.301 11.8082 17.3857C11.7868 17.4604 11.7868 17.5396 11.8082 17.6143C11.8323 17.699 11.8956 17.775 12.0221 17.9268L19.4876 26.8854C19.6635 27.0965 19.7515 27.202 19.8568 27.2405C19.9491 27.2743 20.0505 27.2743 20.1428 27.2405C20.2481 27.202 20.3361 27.0965 20.5119 26.8854Z" stroke="#B7CDFF" stroke-width="2" stroke-linecap="round" stroke-linejoin="round"/>
</g>
<defs>
<radialGradient id="paint0_radial_2014_950" cx="0" cy="0" r="1" gradientUnits="userSpaceOnUse" gradientTransform="translate(20.0002) rotate(90) scale(40)">
<stop offset="0.316464"/>
<stop offset="0.823625" stop-color="#1D5AE3"/>
<stop offset="1" stop-color="#437EFF"/>
</radialGradient>
<clipPath id="clip0_2014_950">
<rect width="20" height="20" fill="white" transform="translate(10.0002 10)"/>
</clipPath>
</defs>
</svg>
