<svg width="1438" height="573" viewBox="0 0 1438 573" fill="none" xmlns="http://www.w3.org/2000/svg">
<g clip-path="url(#clip0_7_8762)">
<rect x="-2" width="1440" height="573" fill="#151515"/>
<rect x="-2" width="1440" height="573" fill="url(#paint0_diamond_7_8762)"/>
<g clip-path="url(#clip1_7_8762)">
<path fill-rule="evenodd" clip-rule="evenodd" d="M-3.73548 399.839L-3.73147 399.848L3.85619 396.44L11.443 393.029L19.0306 389.617L26.6183 386.21L34.2055 382.799L41.7932 379.387L49.3809 375.98L56.9685 372.568L64.5558 369.157L72.1434 365.745L79.7311 362.338L87.3183 358.926L94.906 355.515L102.494 352.107L109.883 348.785H195.349L190.136 351.516L183.632 354.928L177.129 358.339L170.625 361.746L164.122 365.158L157.618 368.57L151.114 371.981L144.611 375.388L138.107 378.8L131.604 382.212L125.1 385.619L118.596 389.03L112.093 392.442L105.589 395.849L99.0859 399.261L99.0904 399.27L99.1002 399.287L99.1046 399.296L99.1193 399.323L99.1237 399.332L99.1335 399.349L99.138 399.358L99.1477 399.376L99.1526 399.389L99.1571 399.398L99.1669 399.416L99.1713 399.425L99.186 399.452L99.1904 399.461L99.2002 399.478L99.2046 399.487L99.2144 399.505L99.2189 399.514L99.2335 399.541L99.238 399.549L99.2478 399.567L99.2522 399.576L99.2669 399.603L99.2713 399.612L99.2762 399.62L99.2811 399.634L99.2856 399.643L99.3002 399.669L99.3047 399.678L99.3145 399.696L99.3189 399.705L99.3336 399.732L99.338 399.74L99.3478 399.758L99.3522 399.767L99.3669 399.794L99.3714 399.803L99.3811 399.82L99.3856 399.829L99.3905 399.838L105.894 396.431L112.398 393.019L118.901 389.608L125.405 386.201L131.908 382.789L138.412 379.377L144.916 375.97L151.419 372.559L157.923 369.147L164.426 365.74L170.93 362.328L177.434 358.917L183.937 355.509L190.441 352.098L196.757 348.785H282.411L278.044 351.53L272.625 354.942L267.205 358.353L261.786 361.76L256.366 365.172L250.946 368.584L245.526 371.991L240.107 375.402L234.687 378.814L229.268 382.221L223.848 385.633L218.428 389.044L213.008 392.456L207.589 395.863L202.169 399.275L202.175 399.284L202.191 399.31L202.197 399.319L202.207 399.337L202.213 399.341L202.229 399.368L202.235 399.377L202.245 399.395L202.251 399.404L202.262 399.421L202.268 399.43L202.284 399.457L202.289 399.466L202.3 399.484L202.306 399.492L202.311 399.501L202.317 399.506L202.322 399.515L202.328 399.524L202.338 399.541L202.344 399.55L202.355 399.568L202.361 399.577L202.377 399.603L202.382 399.612L202.393 399.63L202.399 399.639L202.415 399.666L202.421 399.67L202.431 399.688L202.437 399.697L202.453 399.723L202.459 399.732L202.469 399.75L202.475 399.759L202.486 399.777L202.492 399.786L202.508 399.812L202.514 399.821L202.519 399.83L207.938 396.418L213.358 393.007L218.778 389.6L224.198 386.188L229.617 382.776L235.037 379.365L240.456 375.958L245.876 372.546L251.296 369.134L256.716 365.727L262.135 362.316L267.555 358.904L272.974 355.497L278.394 352.085L283.637 348.785H369.464L365.947 351.552L361.611 354.964L357.275 358.371L352.939 361.783L348.603 365.194L344.268 368.602L339.932 372.013L335.596 375.425L331.261 378.832L326.925 382.243L322.589 385.655L318.253 389.062L313.918 392.474L309.582 395.885L305.246 399.293L305.252 399.301L305.259 399.31L305.271 399.328L305.278 399.333L305.284 399.341L305.303 399.368L305.309 399.373L305.316 399.381L305.322 399.39L305.335 399.408L305.341 399.413L305.36 399.439L305.367 399.448L305.373 399.457L305.379 399.461L305.385 399.47L305.392 399.479L305.404 399.497L305.411 399.501L305.417 399.51L305.423 399.519L305.436 399.537L305.442 399.541L305.449 399.55L305.467 399.577L305.474 399.581L305.487 399.599L305.499 399.617L305.506 399.621L305.524 399.648L305.531 399.657L305.537 399.661L305.55 399.679L305.556 399.688L305.569 399.706L305.575 399.71L305.582 399.719L305.6 399.746L305.607 399.75L305.613 399.759L305.632 399.786L305.639 399.79L305.651 399.808L309.987 396.396L314.323 392.989L318.658 389.578L322.994 386.166L327.33 382.759L331.665 379.347L336.001 375.936L340.337 372.528L344.673 369.117L349.008 365.705L353.344 362.294L357.68 358.886L362.016 355.475L366.352 352.063L370.523 348.785H456.511L453.843 351.583L450.591 354.99L447.339 358.402L444.087 361.813L440.835 365.225L437.584 368.632L434.332 372.044L431.08 375.455L427.828 378.863L424.577 382.274L421.325 385.686L418.073 389.093L414.821 392.505L411.569 395.916L408.317 399.323L408.332 399.341L408.34 399.346L408.347 399.354L408.355 399.359L408.362 399.368L408.369 399.372L408.377 399.381L408.384 399.39L408.392 399.394L408.399 399.403L408.406 399.408L408.414 399.417L408.421 399.426L408.429 399.43L408.436 399.439L408.443 399.443L408.451 399.452L408.458 399.461L408.465 399.465L408.473 399.474L408.48 399.479L408.488 399.488L408.495 399.492L408.502 399.501L408.51 399.51L408.517 399.514L408.525 399.523L408.532 399.528L408.539 399.537L408.547 399.545L408.554 399.55L408.561 399.559L408.569 399.563L408.577 399.572L408.584 399.581L408.591 399.585L408.599 399.594L408.606 399.599L408.613 399.608L408.621 399.612L408.636 399.63L408.643 399.634L408.65 399.643L408.658 399.648L408.665 399.656L408.673 399.665L408.68 399.67L408.687 399.679L408.695 399.683L408.702 399.692L408.71 399.701L408.717 399.705L408.724 399.714L408.732 399.719L408.739 399.728L408.746 399.732L408.754 399.741L408.761 399.75L408.769 399.754L408.776 399.763L408.783 399.768L408.791 399.776L412.043 396.365L415.295 392.958L418.546 389.546L421.798 386.134L425.05 382.727L428.302 379.316L431.553 375.904L434.805 372.497L438.057 369.085L441.309 365.674L444.561 362.267L447.813 358.855L454.316 352.032L457.415 348.785H543.544L541.736 351.633L539.567 355.044L537.397 358.451L535.232 361.863L533.063 365.275L530.897 368.686L528.728 372.093L526.558 375.505L524.393 378.916L522.224 382.324L520.054 385.735L517.889 389.147L515.719 392.554L513.554 395.966L511.385 399.377L511.411 399.391L511.42 399.399L511.447 399.413L511.451 399.422L511.487 399.439L511.496 399.448L511.523 399.462L511.531 399.47L511.558 399.484L511.567 399.493L511.594 399.506L511.598 399.515L511.625 399.528L511.634 399.537L511.669 399.555L511.678 399.564L511.705 399.577L511.714 399.586L511.732 399.595L511.745 399.608L511.772 399.622L511.78 399.63L511.789 399.635L511.816 399.648L511.825 399.657L511.852 399.67L511.86 399.679L511.878 399.688L511.892 399.701L511.9 399.706L511.918 399.715L511.927 399.724L511.936 399.728L514.106 396.317L516.271 392.905L518.44 389.498L520.61 386.086L522.775 382.675L524.945 379.267L527.11 375.856L529.279 372.444L531.449 369.037L533.614 365.625L535.783 362.214L537.953 358.807L540.118 355.395L542.288 351.983L544.32 348.785H630.556L629.629 351.707L628.544 355.119L627.46 358.531L626.375 361.938L624.205 368.761L623.125 372.168L622.04 375.58L620.955 378.991L619.871 382.398L618.786 385.81L617.706 389.222L616.621 392.633L615.536 396.04L614.451 399.452L614.46 399.456H614.473L614.491 399.465H614.5L614.509 399.47L614.522 399.474H614.531L614.54 399.479L614.558 399.488H614.571L614.589 399.496H614.598L614.616 399.505H614.629L614.656 399.519H614.665L614.678 399.523L614.687 399.528H614.696L614.713 399.536H614.727L614.745 399.545H614.754L614.762 399.55L614.776 399.554L614.785 399.559H614.794L614.811 399.568H614.825L614.842 399.576H614.851L614.86 399.581L614.873 399.585L614.882 399.59H614.891L614.909 399.599H614.922L614.94 399.607H614.949L614.958 399.612L614.971 399.616L614.98 399.621H614.989L615.007 399.63H615.02L615.038 399.639H615.047L615.065 399.648H615.078L616.158 396.24L617.243 392.829L618.328 389.417L619.413 386.01L620.497 382.598L621.582 379.187L622.663 375.78L623.747 372.368L624.832 368.956L625.917 365.549L627.002 362.138L628.082 358.726L629.167 355.319L630.252 351.907L631.244 348.785H717.541V399.55H718.199V348.785H804.495L805.488 351.907L806.573 355.319L807.653 358.726L808.738 362.138L809.823 365.549L810.907 368.956L811.992 372.368L813.077 375.78L814.157 379.187L815.242 382.598L816.327 386.01L817.412 389.417L818.496 392.829L819.577 396.24L820.661 399.648H820.67L820.684 399.643L820.693 399.639H820.702L820.719 399.63H820.733L820.75 399.621H820.759L820.768 399.616L820.782 399.612L820.79 399.607H820.799L820.817 399.599H820.83L820.848 399.59H820.857L820.875 399.581L820.888 399.576H820.897L820.915 399.568H820.924L820.937 399.563L820.946 399.559H820.955L820.973 399.55L820.986 399.545H820.995L821.013 399.536H821.022L821.035 399.532L821.044 399.528H821.053L821.07 399.519H821.084L821.111 399.505H821.119L821.133 399.501L821.142 399.496H821.151L821.168 399.488H821.182L821.208 399.474H821.217L821.231 399.47L821.239 399.465H821.248L821.266 399.456H821.275L821.288 399.452L820.204 396.04L819.119 392.633L818.034 389.222L816.949 385.81L815.869 382.398L814.784 378.991L813.699 375.58L812.615 372.168L811.53 368.761L810.449 365.349L809.365 361.938L808.28 358.531L807.195 355.119L806.11 351.707L805.184 348.785H891.42L893.453 351.983L895.622 355.395L897.792 358.807L899.957 362.214L902.127 365.625L904.292 369.037L906.461 372.444L908.631 375.856L910.796 379.267L912.966 382.675L915.131 386.086L917.3 389.498L919.47 392.905L921.635 396.317L923.805 399.728L923.813 399.724L923.822 399.715L923.849 399.701L923.858 399.693L923.867 399.688L923.871 399.684L923.88 399.679L923.889 399.67L923.907 399.661L923.916 399.657L923.924 399.648L923.96 399.63L923.969 399.622L923.987 399.613L923.996 399.608L924.005 399.599L924.013 399.595L924.018 399.59L924.027 399.586L924.036 399.577L924.062 399.564L924.071 399.555L924.098 399.542L924.107 399.537L924.116 399.528L924.125 399.524L924.133 399.519L924.142 399.515L924.151 399.506L924.16 399.502L924.165 399.497L924.174 399.493L924.182 399.484L924.209 399.47L924.218 399.462L924.236 399.453L924.245 399.448L924.254 399.439L924.289 399.422L924.302 399.408L924.32 399.399L924.329 399.391L924.347 399.382L924.356 399.377L922.191 395.966L920.021 392.554L917.852 389.147L915.686 385.735L913.517 382.324L911.347 378.916L909.182 375.505L907.013 372.093L904.848 368.686L902.678 365.275L900.508 361.863L898.343 358.451L896.174 355.044L894.009 351.633L892.198 348.785H978.326L981.423 352.032L984.677 355.443L987.927 358.855L991.181 362.267L994.431 365.674L997.686 369.085L1000.94 372.497L1004.19 375.904L1007.44 379.316L1010.69 382.727L1013.94 386.134L1017.19 389.546L1020.45 392.958L1023.7 396.365L1026.95 399.776L1026.96 399.768L1026.97 399.763L1026.97 399.754L1026.98 399.75L1026.99 399.741L1026.99 399.732L1027 399.728L1027.02 399.705L1027.03 399.701L1027.04 399.692L1027.05 399.683L1027.05 399.679L1027.06 399.67L1027.07 399.665L1027.08 399.656L1027.08 399.648L1027.09 399.643L1027.13 399.599L1027.14 399.594L1027.15 399.585L1027.16 399.581L1027.17 399.572L1027.17 399.563L1027.18 399.559L1027.22 399.514L1027.23 399.51L1027.24 399.501L1027.25 399.492L1027.25 399.488L1027.26 399.479L1027.27 399.474L1027.31 399.43L1027.32 399.426L1027.33 399.417L1027.33 399.408L1027.34 399.403L1027.35 399.394L1027.36 399.39L1027.37 399.381L1027.37 399.372L1027.38 399.368L1027.4 399.346L1027.41 399.341L1027.41 399.332L1027.42 399.323L1024.17 395.916L1020.92 392.505L1017.67 389.093L1014.42 385.686L1011.17 382.274L1007.91 378.863L1004.66 375.455L1001.41 372.044L998.157 368.632L994.907 365.225L991.653 361.813L988.403 358.402L985.148 354.99L981.899 351.583L979.229 348.785H1065.22L1069.39 352.063L1073.72 355.475L1078.06 358.886L1082.4 362.294L1091.07 369.117L1095.4 372.528L1099.74 375.936L1104.07 379.347L1108.41 382.759L1112.75 386.166L1117.08 389.578L1121.42 392.989L1125.75 396.396L1130.09 399.808L1130.1 399.79L1130.11 399.786L1130.11 399.777L1130.12 399.768L1130.13 399.75L1130.14 399.746L1130.14 399.737L1130.15 399.728L1130.16 399.719L1130.17 399.71L1130.17 399.706L1130.17 399.697L1130.18 399.688L1130.19 399.679L1130.2 399.67L1130.2 399.661L1130.21 399.657L1130.22 399.639L1130.23 399.63L1130.23 399.621L1130.24 399.617L1130.25 399.608L1130.25 399.599L1130.26 399.581L1130.27 399.577L1130.28 399.568L1130.29 399.559L1130.29 399.55L1130.3 399.537L1130.31 399.528L1130.32 399.519L1130.32 399.51L1130.33 399.497L1130.34 399.488L1130.35 399.479L1130.35 399.47L1130.38 399.448L1130.38 399.43L1130.39 399.421L1130.4 399.413L1130.41 399.408L1130.41 399.399L1130.42 399.39L1130.43 399.373L1130.44 399.368L1130.44 399.359L1130.45 399.35L1130.45 399.341L1130.47 399.328L1130.47 399.319L1130.48 399.31L1130.49 399.301L1130.49 399.293L1126.16 395.885L1121.82 392.474L1117.49 389.062L1113.15 385.655L1108.81 382.243L1104.48 378.832L1100.14 375.425L1091.47 368.602L1087.14 365.194L1078.47 358.371L1074.13 354.964L1069.79 351.552L1066.28 348.785H1152.1L1162.77 355.497L1168.19 358.904L1173.61 362.316L1179.03 365.727L1184.45 369.134L1189.86 372.546L1195.28 375.958L1200.7 379.365L1211.54 386.188L1216.96 389.6L1222.38 393.007L1227.8 396.418L1233.22 399.83L1233.23 399.821L1233.24 399.794L1233.25 399.786L1233.27 399.75L1233.28 399.741L1233.29 399.715L1233.3 399.706L1233.31 399.688L1233.31 399.679L1233.33 399.666L1233.34 399.639L1233.35 399.63L1233.36 399.603L1233.37 399.595L1233.39 399.559L1233.4 399.55L1233.41 399.524L1233.42 399.515L1233.42 399.506L1233.43 399.501L1233.43 399.492L1233.44 399.484L1233.46 399.448L1233.47 399.439L1233.48 399.412L1233.49 399.404L1233.5 399.377L1233.51 399.368L1233.53 399.341L1233.53 399.337L1233.54 399.328L1233.55 399.301L1233.56 399.293L1233.57 399.275L1228.15 395.863L1222.73 392.456L1217.31 389.044L1211.89 385.633L1206.47 382.221L1201.05 378.814L1195.64 375.402L1190.22 371.991L1184.8 368.584L1173.96 361.76L1168.53 358.353L1163.11 354.942L1157.69 351.53L1153.33 348.785H1238.98L1245.3 352.098L1251.8 355.509L1258.31 358.917L1264.81 362.328L1271.31 365.74L1277.82 369.147L1284.32 372.559L1290.82 375.97L1297.33 379.377L1303.83 382.789L1310.34 386.201L1316.84 389.608L1323.34 393.019L1329.85 396.431L1336.35 399.838L1336.38 399.785L1336.39 399.776L1336.44 399.66L1336.45 399.652L1336.46 399.643L1336.46 399.634L1336.46 399.62L1336.51 399.532L1336.52 399.523L1336.56 399.434L1336.57 399.425L1336.58 399.407L1336.59 399.398L1336.59 399.389L1336.59 399.376L1336.64 399.278L1336.65 399.27L1336.66 399.261L1330.15 395.849L1323.65 392.442L1317.14 389.03L1310.64 385.619L1304.14 382.212L1297.63 378.8L1291.13 375.388L1284.63 371.981L1278.12 368.57L1271.62 365.158L1265.11 361.746L1258.61 358.339L1252.11 354.928L1245.61 351.516L1240.39 348.785H1325.86L1333.25 352.107L1340.84 355.515L1348.42 358.926L1356.01 362.338L1363.6 365.745L1371.19 369.157L1378.77 372.568L1386.36 375.98L1393.95 379.387L1401.53 382.799L1409.12 386.21L1416.71 389.617L1424.3 393.029L1431.89 396.44L1439.47 399.848V399.839L1439.48 399.821L1439.49 399.812L1439.51 399.777L1439.51 399.763L1439.55 399.683V399.67L1439.59 399.59L1439.59 399.577L1439.6 399.568L1439.63 399.514V399.506L1439.63 399.488L1439.64 399.475L1439.68 399.395L1439.68 399.381L1439.7 399.355V399.346L1439.71 399.328L1439.71 399.319L1439.72 399.301L1439.72 399.288L1439.74 399.252L1432.15 395.841L1424.57 392.434L1416.98 389.022L1409.39 385.61L1401.81 382.203L1394.22 378.792L1386.63 375.38L1379.04 371.973L1371.45 368.561L1363.86 365.15L1356.28 361.743L1348.69 358.331L1341.1 354.919L1333.52 351.512L1327.45 348.785H1412.79V348.132H1326L1318.34 344.689L1310.76 341.277L1303.17 337.87L1295.58 334.459L1287.99 331.047L1280.4 327.64L1272.81 324.228L1265.23 320.817L1257.64 317.409L1250.05 313.998L1244.72 311.599H1318.24V310.946H1243.27L1242.47 310.586L1234.88 307.179L1227.29 303.767L1219.7 300.356L1212.12 296.949L1204.53 293.537L1196.94 290.126L1189.35 286.718L1181.79 283.32H1246.33V282.667H1180.34L1174.18 279.895L1166.59 276.484L1159 273.076L1151.42 269.665L1143.83 266.253L1136.24 262.846L1132.34 261.091H1189.8V260.438H1130.89L1128.65 259.434L1121.07 256.023L1113.48 252.616L1105.89 249.204L1098.3 245.792L1092.44 243.158H1144.2V242.501H1090.97L1090.71 242.385L1083.13 238.974L1075.54 235.562L1067.95 232.155L1060.37 228.743L1059.57 228.383H1106.63V227.73H1058.11L1052.78 225.332L1045.19 221.925L1037.6 218.513L1032.02 216.002H1075.15V215.35H1030.57L1030.02 215.101L1022.43 211.69L1014.84 208.283L1008.6 205.475H1048.39V204.822H1007.14L999.664 201.461L992.079 198.051L988.446 196.419H1025.36V195.765H986.991L984.49 194.641L976.901 191.231L970.918 188.541H1005.32V187.887H969.464L969.317 187.821L954.139 181L954.125 181.028V181.037L954.117 181.056L954.112 181.065L954.103 181.084L954.05 181.196V181.205L954.005 181.299L954.001 181.308L953.974 181.364V181.373L953.916 181.494L953.912 181.503L953.903 181.522V181.531L953.894 181.55L953.89 181.559L953.872 181.597L961.461 185.007L967.866 187.887H933.541L933.43 187.828L926.93 184.418L920.426 181.008L920.421 181.017L920.417 181.026L920.408 181.035L920.399 181.053L920.395 181.062L920.39 181.071L920.386 181.081L920.377 181.098L920.372 181.108L920.364 181.126L920.359 181.135L920.355 181.144L920.35 181.153L920.341 181.162L920.337 181.171L920.333 181.18L920.328 181.189L920.324 181.198L920.315 181.216L920.31 181.225L920.301 181.243L920.297 181.253L920.293 181.261L920.288 181.271L920.284 181.28L920.275 181.289L920.27 181.298L920.266 181.307L920.261 181.316L920.253 181.334L920.248 181.343L920.244 181.352L920.239 181.361L920.235 181.37L920.23 181.379L920.226 181.389L920.217 181.406L920.208 181.416L920.204 181.424L920.199 181.434L920.19 181.452L920.186 181.461L920.177 181.479L920.172 181.488L920.168 181.497L920.164 181.506L920.155 181.524L920.15 181.533L920.141 181.542L920.137 181.552L920.132 181.56L920.128 181.569L920.124 181.579L920.119 181.588L926.623 184.998L932.133 187.887H897.623L897.552 187.842L892.133 184.432L886.714 181.021L886.709 181.03L886.705 181.039L886.696 181.048L886.691 181.056L886.687 181.065L886.682 181.073L886.674 181.082L886.669 181.091L886.665 181.1L886.66 181.108L886.651 181.117L886.647 181.125L886.642 181.134L886.638 181.143L886.633 181.152L886.625 181.16L886.62 181.169L886.616 181.177L886.611 181.186L886.602 181.195L886.598 181.203L886.594 181.212L886.589 181.22L886.58 181.229L886.576 181.238L886.571 181.247L886.567 181.255L886.562 181.264L886.554 181.272L886.549 181.281L886.545 181.29L886.54 181.299L886.531 181.307L886.527 181.316L886.522 181.324L886.518 181.333L886.513 181.342L886.505 181.351L886.5 181.359L886.496 181.368L886.491 181.376L886.482 181.385L886.478 181.394L886.473 181.403L886.469 181.411L886.46 181.42L886.456 181.428L886.451 181.437L886.447 181.446L886.442 181.454L886.433 181.463L886.429 181.471L886.425 181.48L886.42 181.489L886.411 181.498L886.407 181.506L886.402 181.515L886.398 181.523L886.389 181.532L886.385 181.541L886.38 181.55L886.376 181.558L886.371 181.567L886.362 181.575L891.782 184.986L896.392 187.887H861.71L861.679 187.863L857.344 184.452L853.005 181.042L853.001 181.05L852.996 181.058L852.987 181.066L852.983 181.074L852.974 181.082L852.965 181.098L852.956 181.106L852.952 181.114L852.943 181.122L852.938 181.13L852.93 181.138L852.921 181.154L852.912 181.162L852.907 181.17L852.898 181.178L852.894 181.186L852.885 181.194L852.876 181.21L852.867 181.218L852.863 181.226L852.854 181.234L852.85 181.242L852.841 181.25L852.836 181.258L852.832 181.267L852.823 181.275L852.818 181.283L852.81 181.291L852.801 181.307L852.792 181.315L852.787 181.323L852.778 181.331L852.774 181.339L852.765 181.347L852.756 181.363L852.747 181.371L852.743 181.379L852.734 181.387L852.729 181.395L852.721 181.403L852.716 181.411L852.712 181.419L852.703 181.427L852.698 181.435L852.689 181.443L852.685 181.451L852.676 181.459L852.667 181.475L852.658 181.483L852.654 181.491L852.645 181.499L852.641 181.507L852.632 181.515L852.623 181.531L852.614 181.539L852.609 181.547L852.601 181.556L856.94 184.965L860.653 187.887H825.805L822.561 184.483L819.306 181.072L819.302 181.079L819.284 181.094L819.28 181.101L819.262 181.115L819.257 181.122L819.248 181.129L819.24 181.136L819.235 181.143L819.217 181.157L819.213 181.164L819.195 181.178L819.191 181.186L819.182 181.192L819.177 181.199L819.159 181.214L819.155 181.221L819.137 181.235L819.133 181.242L819.124 181.249L819.115 181.256L819.111 181.263L819.102 181.27L819.093 181.277L819.088 181.284L819.071 181.298L819.066 181.305L819.057 181.313L819.048 181.319L819.044 181.326L819.026 181.341L819.022 181.348L819.004 181.362L818.999 181.369L818.991 181.376L818.982 181.383L818.977 181.39L818.959 181.404L818.955 181.411L818.937 181.425L818.933 181.433L818.924 181.44L818.915 181.446L818.911 181.453L818.893 181.468L818.888 181.475L818.871 181.489L818.866 181.496L818.857 181.503L818.848 181.51L818.844 181.517L818.835 181.524L822.085 184.934L824.902 187.887H789.914L787.78 184.533L785.615 181.123L785.606 181.129L785.589 181.139L785.58 181.145L785.562 181.156L785.553 181.162L785.535 181.172L785.526 181.178L785.518 181.183L785.509 181.189L785.491 181.2L785.482 181.206L785.477 181.211L785.469 181.216L785.46 181.222L785.442 181.233L785.433 181.239L785.424 181.244L785.415 181.25L785.397 181.26L785.389 181.266L785.371 181.277L785.362 181.283L785.344 181.293L785.335 181.299L785.331 181.304L785.322 181.31L785.313 181.315L785.304 181.321L785.295 181.327L785.277 181.337L785.268 181.343L785.251 181.354L785.242 181.359L785.224 181.37L785.215 181.376L785.206 181.381L785.197 181.387L785.193 181.392L785.184 181.398L785.175 181.403L785.157 181.414L785.148 181.42L785.14 181.425L785.131 181.43L785.122 181.436L785.113 181.442L785.104 181.447L785.086 181.458L785.077 181.464L785.06 181.474L789.139 187.887H754.043L753.001 184.609L751.916 181.199L751.898 181.205L751.885 181.209L751.876 181.212L751.867 181.214L751.849 181.221L751.836 181.224L751.8 181.236L751.787 181.239L751.743 181.255L751.729 181.258L751.694 181.27L751.68 181.273L751.645 181.286L751.631 181.289L751.596 181.301L751.582 181.304L751.574 181.308L751.547 181.317L751.534 181.32L751.516 181.326L751.507 181.329L751.498 181.332L751.485 181.335L751.449 181.348L751.436 181.351L751.4 181.363L751.387 181.366L751.378 181.369L751.351 181.379L751.338 181.382L751.302 181.394L751.289 181.397L752.374 184.808L753.353 187.887H718.199V181.299H717.541V187.887H682.386L683.366 184.808L684.451 181.397L684.437 181.394L684.402 181.382L684.388 181.379L684.353 181.366L684.339 181.363L684.331 181.36L684.304 181.351L684.29 181.348L684.255 181.335L684.242 181.332L684.233 181.329L684.224 181.326L684.206 181.32L684.193 181.317L684.148 181.301L684.135 181.298L684.099 181.286L684.086 181.283L684.05 181.27L684.037 181.267L684.001 181.255L683.988 181.252L683.953 181.239L683.939 181.236L683.904 181.224L683.89 181.221L683.873 181.214L683.864 181.212L683.855 181.209L683.841 181.205L683.824 181.199L682.739 184.609L681.696 187.887H646.602L650.681 181.474L650.663 181.464L650.654 181.458L650.637 181.447L650.628 181.442L650.619 181.436L650.61 181.43L650.592 181.42L650.583 181.414L650.565 181.403L650.561 181.398L650.543 181.387L650.534 181.381L650.525 181.376L650.516 181.37L650.499 181.359L650.49 181.354L650.472 181.343L650.463 181.337L650.445 181.327L650.436 181.321L650.428 181.315L650.419 181.31L650.414 181.304L650.405 181.299L650.396 181.293L650.379 181.283L650.37 181.277L650.352 181.266L650.343 181.26L650.325 181.25L650.316 181.244L650.307 181.239L650.299 181.233L650.281 181.222L650.272 181.216L650.268 181.211L650.259 181.206L650.25 181.2L650.232 181.189L650.223 181.183L650.214 181.178L650.205 181.172L650.188 181.162L650.179 181.156L650.161 181.145L650.152 181.139L650.134 181.129L650.13 181.123L645.827 187.887H610.838L613.656 184.934L616.906 181.524L616.897 181.517L616.892 181.51L616.883 181.503L616.874 181.496L616.87 181.489L616.852 181.475L616.848 181.468L616.83 181.453L616.826 181.446L616.817 181.44L616.808 181.433L616.803 181.425L616.786 181.411L616.781 181.404L616.772 181.397L616.768 181.39L616.759 181.383L616.75 181.376L616.746 181.369L616.728 181.355L616.723 181.348L616.706 181.333L616.701 181.326L616.692 181.319L616.683 181.313L616.679 181.305L616.661 181.291L616.657 181.284L616.639 181.27L616.634 181.263L616.625 181.256L616.617 181.249L616.612 181.242L616.594 181.228L616.59 181.221L616.572 181.206L616.568 181.199L616.559 181.192L616.55 181.186L616.545 181.178L616.528 181.164L616.523 181.157L616.505 181.143L616.501 181.136L616.492 181.129L616.483 181.122L616.479 181.115L616.461 181.101L616.457 181.094L616.439 181.079L616.434 181.072L613.18 184.483L609.936 187.887H575.087L578.801 184.965L583.14 181.556L583.131 181.547L583.126 181.539L583.117 181.531L583.109 181.515L583.1 181.507L583.095 181.499L583.086 181.491L583.082 181.483L583.073 181.475L583.064 181.459L583.055 181.451L583.051 181.443L583.042 181.435L583.033 181.419L583.024 181.411L583.02 181.403L583.011 181.395L583.006 181.387L582.997 181.379L582.988 181.363L582.98 181.355L582.975 181.347L582.966 181.339L582.962 181.331L582.953 181.323L582.944 181.307L582.935 181.299L582.931 181.291L582.922 181.283L582.917 181.275L582.908 181.267L582.904 181.258L582.9 181.25L582.891 181.242L582.886 181.234L582.877 181.226L582.868 181.21L582.86 181.202L582.855 181.194L582.846 181.186L582.842 181.178L582.833 181.17L582.824 181.154L582.815 181.146L582.811 181.138L582.802 181.13L582.797 181.122L582.788 181.114L582.779 181.098L582.771 181.09L582.766 181.082L582.757 181.074L582.753 181.066L582.744 181.058L582.735 181.042L578.396 184.452L574.061 187.863L574.031 187.887H539.348L543.959 184.986L549.378 181.575L549.374 181.567L549.365 181.558L549.36 181.55L549.356 181.541L549.351 181.532L549.342 181.523L549.338 181.515L549.334 181.506L549.329 181.498L549.32 181.489L549.316 181.48L549.311 181.471L549.307 181.463L549.302 181.454L549.294 181.446L549.289 181.437L549.285 181.428L549.28 181.42L549.271 181.411L549.267 181.403L549.262 181.394L549.258 181.385L549.249 181.376L549.245 181.368L549.24 181.359L549.236 181.351L549.231 181.342L549.222 181.333L549.218 181.324L549.214 181.316L549.209 181.307L549.2 181.299L549.196 181.29L549.191 181.281L549.187 181.272L549.182 181.264L549.174 181.255L549.169 181.247L549.165 181.238L549.16 181.229L549.151 181.22L549.147 181.212L549.142 181.203L549.138 181.195L549.129 181.186L549.125 181.177L549.12 181.169L549.116 181.16L549.111 181.152L549.102 181.143L549.098 181.134L549.094 181.125L549.089 181.117L549.08 181.108L549.076 181.1L549.071 181.091L549.067 181.082L549.058 181.073L549.053 181.065L549.049 181.056L549.045 181.048L549.04 181.039L549.031 181.03L549.027 181.021L543.607 184.432L538.188 187.842L538.117 187.887H503.607L509.117 184.998L515.621 181.588L515.616 181.579L515.612 181.569L515.603 181.552L515.599 181.542L515.594 181.533L515.59 181.524L515.581 181.515L515.576 181.506L515.572 181.497L515.567 181.488L515.563 181.479L515.559 181.47L515.554 181.461L515.55 181.452L515.541 181.434L515.536 181.424L515.532 181.416L515.527 181.406L515.523 181.397L515.514 181.389L515.51 181.379L515.505 181.37L515.501 181.361L515.492 181.343L515.487 181.334L515.479 181.316L515.474 181.307L515.47 181.298L515.465 181.289L515.456 181.271L515.447 181.261L515.443 181.253L515.439 181.243L515.43 181.225L515.425 181.216L515.416 181.198L515.412 181.189L515.407 181.18L515.403 181.171L515.398 181.162L515.394 181.153L515.385 181.144L515.381 181.135L515.376 181.126L515.367 181.108L515.363 181.098L515.354 181.081L515.35 181.071L515.345 181.062L515.341 181.053L515.336 181.044L515.332 181.035L515.327 181.026L515.318 181.017L515.314 181.008L508.814 184.418L502.199 187.887H467.875L474.284 185.007L481.869 181.597L481.846 181.55V181.541L481.833 181.513L481.829 181.503L481.824 181.494L481.775 181.392L481.771 181.382V181.373L481.766 181.364L481.722 181.271L481.718 181.261L481.7 181.224V181.215L481.664 181.14L481.66 181.131L481.624 181.056V181.047L481.611 181.019L481.606 181.009L481.602 181L474.013 184.41L466.424 187.821L466.277 187.887H430.419V188.541H464.822L458.839 191.231L451.251 194.641L448.751 195.765H410.386V196.419H447.296L443.664 198.051L436.076 201.461L428.597 204.822H387.353V205.475H427.144L420.901 208.283L413.313 211.69L405.726 215.101L405.174 215.35H360.587V216.002H403.722L398.138 218.513L390.551 221.925L382.963 225.332L377.628 227.73H329.106V228.383H376.176L375.376 228.743L367.788 232.155L360.201 235.562L352.613 238.974L345.026 242.385L344.768 242.501H291.54V243.158H343.304L337.438 245.792L329.851 249.204L322.263 252.616L314.675 256.023L307.088 259.434L304.855 260.438H245.939V261.091H303.403L299.501 262.846L291.913 266.253L284.326 269.665L276.738 273.076L269.15 276.484L261.563 279.895L255.398 282.667H189.413V283.32H253.946L246.388 286.718L238.8 290.126L231.213 293.537L223.625 296.949L216.038 300.356L208.45 303.767L200.863 307.179L193.275 310.586L192.475 310.946H117.505V311.599H191.022L185.688 313.998L178.1 317.409L170.513 320.817L162.925 324.228L155.337 327.64L147.75 331.047L140.163 334.459L132.575 337.87L124.988 341.277L109.812 348.101L109.743 348.132H22.9443V348.785H108.29L102.225 351.512L94.6375 354.919L87.0498 358.331L79.4626 361.743L71.8749 365.15L64.2872 368.561L56.7 371.973L49.1124 375.38L41.5247 378.792L33.937 382.203L26.3498 385.61L18.7621 389.022L11.1744 392.434L3.58767 395.841L-4 399.252L-3.996 399.261L-3.99155 399.27L-3.98755 399.279L-3.98311 399.288L-3.97911 399.301L-3.97466 399.31L-3.96666 399.328L-3.96221 399.337L-3.95821 399.346L-3.95376 399.355L-3.94976 399.363L-3.94532 399.372L-3.94132 399.381L-3.93687 399.395L-3.92887 399.412L-3.92442 399.421L-3.92042 399.43L-3.91597 399.439L-3.91197 399.448L-3.90753 399.457L-3.89953 399.475L-3.89508 399.488L-3.89108 399.497L-3.88663 399.506L-3.88263 399.514L-3.87819 399.523L-3.87418 399.532L-3.86974 399.541L-3.86174 399.559L-3.85729 399.568L-3.85329 399.577L-3.84884 399.59L-3.84484 399.599L-3.8404 399.608L-3.83239 399.626L-3.82795 399.634L-3.82395 399.643L-3.8195 399.652L-3.8155 399.661L-3.81105 399.67L-3.80705 399.683L-3.80261 399.692L-3.7946 399.71L-3.79016 399.719L-3.78616 399.728L-3.78171 399.737L-3.77771 399.745L-3.77326 399.754L-3.76926 399.763L-3.76482 399.777L-3.75682 399.794L-3.75237 399.803L-3.74837 399.812L-3.74392 399.821L-3.73992 399.83L-3.73548 399.839ZM969.32 188.541H934.788L939.934 191.239L946.438 194.649L948.566 195.765H985.396L984.224 195.238L969.32 188.541ZM986.85 196.419H949.813L952.943 198.059L959.447 201.469L965.842 204.822H1005.55L999.397 202.058L991.808 198.647L986.85 196.419ZM1007.01 205.475H967.087L972.455 208.291L978.955 211.698L985.459 215.11L985.917 215.35H1028.98L1022.16 212.289L1014.57 208.878L1007.01 205.475ZM1030.43 216.002H987.161L991.963 218.521L998.468 221.928L1004.97 225.34L1009.53 227.73H1056.52L1052.51 225.931L1044.92 222.52L1037.33 219.108L1030.43 216.002ZM1057.97 228.383H1010.77L1011.48 228.752L1017.98 232.159L1024.48 235.57L1030.98 238.982L1037.49 242.394L1037.69 242.501H1089.38L1082.86 239.569L1075.27 236.162L1067.68 232.75L1060.1 229.339L1057.97 228.383ZM1090.84 243.158H1038.95L1043.99 245.801L1050.5 249.212L1057 252.624L1063.51 256.031L1070.01 259.443L1071.9 260.438H1129.29L1128.38 260.03L1120.8 256.622L1105.62 249.799L1098.04 246.392L1090.84 243.158ZM1130.75 261.091H1073.15L1076.51 262.854L1083.01 266.261L1089.52 269.673L1096.02 273.085L1102.53 276.492L1109.03 279.903L1114.3 282.667H1178.75L1173.91 280.49L1166.32 277.083L1158.73 273.672L1151.15 270.26L1143.56 266.853L1135.97 263.441L1130.75 261.091ZM1180.2 283.32H1115.54L1122.03 286.722L1128.54 290.134L1135.04 293.545L1141.55 296.953L1148.05 300.364L1154.56 303.776L1161.06 307.187L1167.56 310.594L1168.23 310.946H1241.66L1234.61 307.774L1227.02 304.363L1219.43 300.956L1211.85 297.544L1204.26 294.132L1196.67 290.721L1189.09 287.314L1181.5 283.902L1180.2 283.32ZM1243.12 311.599H1169.48L1174.06 314.006L1180.57 317.418L1187.07 320.825L1193.58 324.236L1200.08 327.648L1206.58 331.055L1213.08 334.467L1219.59 337.878L1226.09 341.286L1232.6 344.697L1239.1 348.109L1239.15 348.132H1324.41L1318.07 345.284L1310.48 341.877L1302.9 338.465L1295.31 335.054L1287.72 331.647L1280.14 328.235L1272.55 324.823L1264.96 321.416L1257.37 318.005L1249.79 314.593L1243.12 311.599ZM1232.29 345.275L1237.74 348.132H1152.29L1152.28 348.123L1146.86 344.711L1141.44 341.3L1136.02 337.893L1130.6 334.481L1125.18 331.069L1119.76 327.662L1114.34 324.251L1108.92 320.839L1103.5 317.427L1098.08 314.02L1094.23 311.599H1168.06L1173.76 314.584L1180.26 317.995L1186.77 321.407L1193.27 324.814L1199.77 328.226L1206.28 331.637L1212.78 335.044L1219.29 338.456L1225.79 341.868L1232.29 345.275ZM1160.75 307.765L1166.82 310.946H1093.2L1092.66 310.609L1087.24 307.197L1081.82 303.79L1076.4 300.378L1070.98 296.967L1065.56 293.559L1060.14 290.148L1054.72 286.736L1049.3 283.329L1049.29 283.32H1114.14L1115.23 283.892L1121.73 287.304L1128.24 290.716L1134.74 294.123L1141.24 297.535L1147.74 300.946L1154.25 304.353L1160.75 307.765ZM1108.72 280.485L1112.89 282.667H1048.25L1043.88 279.918L1038.46 276.506L1033.04 273.099L1027.62 269.687L1022.2 266.276L1016.78 262.868L1013.96 261.091H1071.75L1082.71 266.843L1089.21 270.251L1095.72 273.662L1102.22 277.074L1108.72 280.485ZM1069.7 260.02L1070.5 260.438H1012.92L1011.37 259.457L1000.53 252.634L995.107 249.226L989.687 245.815L985.468 243.158H1037.54L1043.69 246.383L1050.19 249.79L1056.69 253.201L1063.2 256.613L1069.7 260.02ZM1030.68 239.559L1036.29 242.501H984.423L984.268 242.403L978.849 238.996L973.429 235.584L968.01 232.173L962.59 228.766L961.983 228.383H1009.36L1011.17 229.329L1017.67 232.741L1024.18 236.152L1030.68 239.559ZM1004.67 225.922L1008.12 227.73H960.946L951.751 221.943L946.327 218.535L942.303 216.002H985.75L991.661 219.099L998.161 222.51L1004.67 225.922ZM978.653 212.28L984.505 215.35H941.267L940.908 215.124L935.489 211.712L930.069 208.305L925.574 205.475H965.68L972.148 208.868L978.653 212.28ZM959.14 202.049L964.433 204.822H924.537L919.23 201.483L913.811 198.073L911.182 196.419H948.405L952.636 198.638L959.14 202.049ZM946.136 195.228L947.159 195.765H910.143L908.391 194.663L902.972 191.252L898.663 188.541H933.38L939.632 191.818L946.136 195.228ZM897.431 188.541H862.541L866.014 191.272L870.348 194.683L871.725 195.765H908.916L908.045 195.216L902.621 191.806L897.431 188.541ZM909.956 196.419H872.557L874.687 198.093L879.022 201.503L883.244 204.822H923.308L918.883 202.037L913.464 198.626L909.956 196.419ZM924.345 205.475H884.073L887.691 208.323L892.03 211.734L896.365 215.146L896.624 215.35H940.038L935.142 212.267L929.722 208.856L924.345 205.475ZM941.075 216.002H897.454L900.7 218.553L905.034 221.965L909.374 225.376L912.368 227.73H959.716L956.82 225.909L951.4 222.498L945.981 219.086L941.075 216.002ZM960.755 228.383H913.199L913.708 228.784L922.378 235.607L926.717 239.014L931.147 242.501H983.19L978.497 239.547L973.078 236.14L967.659 232.728L962.239 229.317L960.755 228.383ZM984.234 243.158H931.983L935.386 245.837L939.721 249.244L944.055 252.656L948.394 256.067L952.729 259.475L953.954 260.438H1011.69L1011.01 260.012L1005.59 256.6L994.756 249.777L989.336 246.37L984.234 243.158ZM1012.73 261.091H954.784L961.398 266.298L965.738 269.705L970.072 273.117L974.407 276.528L978.742 279.94L982.215 282.667H1047.03L1043.54 280.473L1038.12 277.061L1032.7 273.65L1027.28 270.242L1021.86 266.831L1016.43 263.419L1012.73 261.091ZM1048.06 283.32H983.046L983.081 283.347L987.415 286.759L991.75 290.17L996.085 293.577L1000.42 296.989L1004.76 300.401L1009.09 303.808L1013.43 307.219L1017.76 310.631L1018.16 310.946H1091.96L1086.89 307.752L1081.47 304.341L1076.05 300.934L1070.63 297.522L1065.21 294.11L1059.79 290.703L1054.37 287.292L1048.95 283.88L1048.06 283.32ZM1093 311.599H1019L1022.1 314.038L1026.44 317.45L1030.77 320.861L1035.11 324.268L1039.44 327.68L1043.78 331.092L1048.11 334.499L1052.45 337.91L1056.79 341.322L1061.12 344.729L1065.45 348.132H1151.07L1146.51 345.267L1135.67 338.443L1130.25 335.036L1124.83 331.625L1119.41 328.213L1113.99 324.806L1108.57 321.394L1103.15 317.983L1097.73 314.571L1093 311.599ZM1056.38 341.833L1064.39 348.132H978.606L975.394 344.76L972.144 341.353L968.89 337.941L965.64 334.53L962.386 331.122L959.136 327.711L955.882 324.299L952.632 320.892L949.382 317.48L946.127 314.069L943.772 311.599H1017.94L1021.7 314.553L1026.03 317.965L1030.37 321.372L1034.7 324.784L1039.04 328.195L1043.37 331.602L1052.04 338.426L1056.38 341.833ZM1013.02 307.735L1017.11 310.946H943.149L942.878 310.662L939.623 307.25L936.373 303.838L933.119 300.431L929.869 297.02L926.619 293.608L923.365 290.201L920.115 286.789L916.861 283.378L916.806 283.32H981.983L982.672 283.862L987.011 287.269L995.68 294.093L1000.01 297.5L1004.35 300.911L1008.69 304.323L1013.02 307.735ZM978.337 280.451L981.153 282.667H916.184L913.611 279.966L910.356 276.559L907.107 273.147L903.857 269.736L900.602 266.329L897.352 262.917L895.611 261.091H953.724L956.659 263.402L960.994 266.809L965.333 270.22L969.668 273.632L974.002 277.039L978.337 280.451ZM947.99 256.578L952.895 260.438H894.988L894.098 259.505L890.848 256.098L887.594 252.687L884.344 249.275L881.094 245.868L878.51 243.158H930.924L934.982 246.348L943.651 253.171L947.99 256.578ZM926.308 239.529L930.087 242.501H877.883L877.84 242.456L874.59 239.045L871.336 235.637L868.086 232.226L864.831 228.814L864.42 228.383H912.139L913.304 229.299L917.638 232.706L921.973 236.118L926.308 239.529ZM908.965 225.887L911.309 227.73H863.798L861.581 225.407L858.332 221.996L855.077 218.584L852.618 216.002H896.399L900.295 219.068L904.63 222.476L908.965 225.887ZM891.626 212.245L895.57 215.35H851.996L851.827 215.172L848.573 211.765L845.323 208.354L842.578 205.475H883.014L887.287 208.838L891.626 212.245ZM878.617 202.017L882.184 204.822H841.955L838.819 201.533L835.569 198.124L833.942 196.419H871.499L874.283 198.606L878.617 202.017ZM869.944 195.196L870.667 195.765H833.318L832.315 194.713L829.065 191.303L826.429 188.541H861.484L865.609 191.786L869.944 195.196ZM825.526 188.541H790.329L792.115 191.354L794.285 194.764L794.921 195.765H832.415L831.843 195.165L828.589 191.755L825.526 188.541ZM833.038 196.419H795.337L796.454 198.174L798.619 201.584L800.679 204.822H841.052L838.348 201.985L835.093 198.575L833.038 196.419ZM841.674 205.475H801.094L802.958 208.403L805.124 211.815L807.293 215.226L807.372 215.35H851.089L848.102 212.214L844.847 208.807L841.674 205.475ZM851.711 216.002H807.786L809.458 218.633L811.628 222.045L813.797 225.457L815.242 227.73H862.896L861.11 225.856L857.856 222.449L854.606 219.037L851.711 216.002ZM863.518 228.383H815.657L815.962 228.864L818.132 232.275L820.297 235.687L822.467 239.099L824.633 242.501H876.979L874.114 239.498L870.864 236.086L867.61 232.679L864.36 229.267L863.518 228.383ZM877.606 243.158H825.05L826.801 245.917L828.971 249.329L831.14 252.736L833.306 256.148L835.475 259.559L836.034 260.438H894.084L893.627 259.958L890.373 256.547L887.123 253.14L883.873 249.728L880.618 246.317L877.606 243.158ZM894.706 261.091H836.449L837.64 262.966L839.81 266.378L841.979 269.79L844.144 273.197L846.314 276.608L848.484 280.02L850.166 282.667H915.279L913.135 280.419L909.885 277.008L906.635 273.6L903.381 270.189L900.131 266.777L896.877 263.37L894.706 261.091ZM915.902 283.32H850.581L850.649 283.427L852.818 286.839L854.983 290.25L857.153 293.657L859.322 297.069L861.488 300.481L863.657 303.892L865.822 307.299L867.992 310.711L868.141 310.946H942.245L939.152 307.703L935.898 304.292L932.648 300.88L929.398 297.473L926.144 294.061L922.894 290.65L919.639 287.238L916.389 283.831L915.902 283.32ZM942.868 311.599H868.557L870.161 314.123L872.326 317.53L874.496 320.941L876.666 324.353L878.831 327.76L881 331.172L883.165 334.583L885.335 337.991L887.504 341.402L889.67 344.814L891.782 348.132H977.703L974.923 345.213L971.669 341.801L968.419 338.394L965.164 334.983L961.915 331.571L958.66 328.164L955.41 324.752L952.16 321.341L948.906 317.934L945.656 314.522L942.868 311.599ZM886.949 341.753L891.005 348.132H804.977L803.945 344.889L802.86 341.477L801.776 338.07L800.691 334.658L799.611 331.247L798.526 327.839L797.441 324.428L796.356 321.016L795.271 317.605L794.191 314.197L793.365 311.599H867.782L869.61 314.474L871.775 317.881L873.945 321.292L876.11 324.704L878.279 328.111L880.449 331.523L882.614 334.934L884.784 338.342L886.949 341.753ZM865.271 307.65L867.367 310.946H793.157L793.106 310.786L792.022 307.374L790.937 303.967L789.852 300.556L788.767 297.144L787.687 293.737L786.602 290.325L785.517 286.914L784.433 283.506L784.373 283.32H849.803L850.097 283.782L852.267 287.19L854.432 290.601L856.602 294.013L858.767 297.42L860.936 300.832L863.106 304.243L865.271 307.65ZM847.928 280.371L849.388 282.667H784.166L783.348 280.095L782.267 276.683L781.183 273.276L780.098 269.864L779.013 266.453L777.928 263.046L777.31 261.091H835.674L837.089 263.317L839.258 266.729L841.424 270.141L843.593 273.548L845.763 276.959L847.928 280.371ZM834.924 259.91L835.26 260.438H777.103L776.848 259.634L775.763 256.223L774.678 252.815L773.594 249.404L772.509 245.992L771.612 243.158H824.276L826.25 246.268L828.42 249.68L830.585 253.087L832.754 256.499L834.924 259.91ZM821.915 239.449L823.858 242.501H771.403L770.344 239.173L769.259 235.762L768.174 232.35L767.089 228.943L766.912 228.383H814.88L815.411 229.219L817.581 232.626L819.746 236.038L821.915 239.449ZM813.242 225.807L814.464 227.73H766.706L766.009 225.531L764.924 222.12L763.84 218.713L762.978 216.002H807.012L808.907 218.989L811.076 222.396L813.242 225.807ZM804.572 212.166L806.597 215.35H762.77L762.755 215.301L761.67 211.889L760.585 208.482L759.633 205.475H800.319L802.403 208.758L804.572 212.166ZM798.068 201.936L799.904 204.822H759.426L758.42 201.66L757.335 198.25L756.753 196.419H794.561L795.898 198.525L798.068 201.936ZM793.733 195.115L794.146 195.765H756.545L756.251 194.84L755.166 191.43L754.251 188.541H789.555L791.564 191.705L793.733 195.115ZM753.561 188.541H718.199V195.765H755.859L755.628 195.038L754.543 191.628L753.561 188.541ZM756.067 196.419H718.199V204.822H758.736L757.793 201.859L756.713 198.448L756.067 196.419ZM758.943 205.475H718.199V215.35H762.084L761.048 212.089L759.963 208.678L758.943 205.475ZM762.291 216.002H718.199V227.73H766.019L765.382 225.731L764.297 222.32L763.213 218.908L762.291 216.002ZM766.227 228.383H718.199V242.501H770.713L769.717 239.369L768.632 235.962L767.552 232.55L766.467 229.138L766.227 228.383ZM770.922 243.158H718.199V260.438H776.415L776.221 259.83L775.136 256.422L774.052 253.011L772.971 249.599L771.886 246.192L770.922 243.158ZM776.622 261.091H718.199V282.667H783.481L782.725 280.295L781.641 276.883L780.556 273.472L779.471 270.064L778.391 266.653L777.306 263.241L776.622 261.091ZM783.689 283.32H718.199V310.946H792.467L791.395 307.574L790.314 304.163L789.23 300.755L788.145 297.344L787.06 293.932L785.975 290.525L784.895 287.113L783.81 283.702L783.689 283.32ZM792.675 311.599H718.199V348.132H804.287L803.318 345.089L802.234 341.677L801.153 338.265L800.068 334.858L798.984 331.447L797.899 328.035L796.814 324.623L795.734 321.216L794.649 317.805L793.564 314.393L792.675 311.599ZM717.541 311.599V348.132H631.452L632.421 345.089L633.501 341.677L634.586 338.265L635.671 334.858L636.756 331.447L637.841 328.035L638.925 324.623L640.006 321.216L641.091 317.805L642.175 314.393L643.065 311.599H717.541ZM717.541 283.32V310.946H643.273L644.345 307.574L645.425 304.163L646.51 300.755L647.595 297.344L648.68 293.932L649.764 290.525L650.845 287.113L651.929 283.702L652.051 283.32H717.541ZM717.541 261.091V282.667H652.259L653.014 280.295L654.099 276.883L655.184 273.472L656.268 270.064L657.349 266.653L658.434 263.241L659.117 261.091H717.541ZM717.541 243.158V260.438H659.325L659.518 259.83L660.603 256.422L661.688 253.011L662.768 249.599L663.853 246.192L664.818 243.158H717.541ZM717.541 228.383V242.501H665.027L666.023 239.369L667.107 235.962L668.188 232.55L669.273 229.138L669.513 228.383H717.541ZM717.541 216.002V227.73H669.721L670.357 225.731L671.442 222.32L672.527 218.908L673.448 216.002H717.541ZM717.541 205.475V215.35H673.655L674.692 212.089L675.777 208.678L676.796 205.475H717.541ZM717.541 196.419V204.822H677.004L677.946 201.859L679.031 198.448L679.674 196.419H717.541ZM717.541 188.541V195.765H679.881L680.111 195.038L681.196 191.628L682.178 188.541H717.541ZM681.489 188.541H646.186L644.177 191.705L642.007 195.115L641.595 195.765H679.195L679.489 194.84L680.574 191.43L681.489 188.541ZM678.987 196.419H641.18L639.842 198.525L637.672 201.936L635.836 204.822H676.314L677.319 201.66L678.404 198.25L678.987 196.419ZM676.107 205.475H635.421L633.338 208.758L631.168 212.166L629.148 215.35H672.969L672.985 215.301L674.07 211.889L675.154 208.482L676.107 205.475ZM672.762 216.002H628.733L626.834 218.989L624.664 222.396L622.499 225.807L621.276 227.73H669.036L669.735 225.531L670.815 222.12L671.9 218.713L672.762 216.002ZM668.828 228.383H620.861L620.329 229.219L618.16 232.626L615.995 236.038L613.825 239.449L611.886 242.501H664.336L665.396 239.173L666.481 235.762L667.565 232.35L668.65 228.943L668.828 228.383ZM664.128 243.158H611.468L609.49 246.268L607.321 249.68L605.156 253.087L602.986 256.499L600.817 259.91L600.481 260.438H658.637L658.891 259.634L659.976 256.223L661.061 252.815L662.146 249.404L663.231 245.992L664.128 243.158ZM658.43 261.091H600.066L598.652 263.317L596.482 266.729L594.317 270.141L592.147 273.548L589.978 276.959L587.813 280.371L586.353 282.667H651.574L652.392 280.095L653.472 276.683L654.557 273.276L655.642 269.864L656.726 266.453L657.811 263.046L658.43 261.091ZM651.366 283.32H585.937L585.643 283.782L583.478 287.19L581.308 290.601L579.139 294.013L576.974 297.42L574.804 300.832L572.635 304.243L570.47 307.65L568.374 310.946H642.582L642.633 310.786L643.718 307.374L644.803 303.967L645.888 300.556L646.972 297.144L648.053 293.737L649.137 290.325L650.222 286.914L651.307 283.506L651.366 283.32ZM642.375 311.599H567.959L566.135 314.474L563.965 317.881L561.796 321.292L559.631 324.704L557.461 328.111L555.292 331.523L553.127 334.934L550.957 338.342L548.792 341.753L544.735 348.132H630.763L631.794 344.889L632.879 341.477L633.964 338.07L635.049 334.658L636.129 331.247L637.214 327.839L638.299 324.428L639.383 321.016L640.468 317.605L641.548 314.197L642.375 311.599ZM546.071 344.814L543.958 348.132H458.037L460.818 345.213L464.072 341.801L467.322 338.394L470.576 334.983L473.826 331.571L477.08 328.164L480.33 324.752L483.58 321.341L486.834 317.934L490.084 314.522L492.872 311.599H567.184L565.579 314.123L563.414 317.53L561.245 320.941L559.079 324.353L556.91 327.76L554.74 331.172L552.575 334.583L550.406 337.991L548.236 341.402L546.071 344.814ZM567.749 310.711L567.599 310.946H493.495L496.589 307.703L499.843 304.292L503.093 300.88L506.343 297.473L509.597 294.061L512.847 290.65L516.101 287.238L519.351 283.831L519.838 283.32H585.16L585.092 283.427L582.922 286.839L580.757 290.25L578.588 293.657L576.418 297.069L574.253 300.481L572.083 303.892L569.918 307.299L567.749 310.711ZM587.261 280.02L585.576 282.667H520.461L522.605 280.419L525.855 277.008L529.11 273.6L532.36 270.189L535.609 266.777L538.864 263.37L541.034 261.091H599.292L598.1 262.966L595.931 266.378L593.761 269.79L591.596 273.197L589.427 276.608L587.261 280.02ZM600.265 259.559L599.707 260.438H541.656L542.114 259.958L545.368 256.547L548.618 253.14L551.872 249.728L555.122 246.317L558.134 243.158H610.69L608.939 245.917L606.77 249.329L604.605 252.736L602.435 256.148L600.265 259.559ZM613.274 239.099L611.107 242.501H558.762L561.626 239.498L564.876 236.086L568.131 232.679L571.38 229.267L572.224 228.383H620.083L619.778 228.864L617.609 232.275L615.443 235.687L613.274 239.099ZM621.943 225.457L620.498 227.73H572.847L574.635 225.856L577.885 222.449L581.135 219.037L584.03 216.002H627.954L626.282 218.633L624.113 222.045L621.943 225.457ZM628.447 215.226L628.369 215.35H584.652L587.639 212.214L590.893 208.807L594.067 205.475H634.647L632.787 208.403L630.617 211.815L628.447 215.226ZM637.121 201.584L635.062 204.822H594.69L597.397 201.985L600.647 198.575L602.703 196.419H640.403L639.286 198.174L637.121 201.584ZM641.456 194.764L640.819 195.765H603.326L603.897 195.165L607.151 191.755L610.215 188.541H645.412L643.625 191.354L641.456 194.764ZM609.312 188.541H574.256L570.131 191.786L565.074 195.765H602.424L603.426 194.713L606.676 191.303L609.312 188.541ZM601.801 196.419H564.243L561.462 198.606L557.123 202.017L553.556 204.822H593.786L596.922 201.533L600.176 198.124L601.801 196.419ZM593.163 205.475H552.726L548.453 208.838L544.119 212.245L540.17 215.35H583.744L583.913 215.172L587.168 211.765L590.417 208.354L593.163 205.475ZM583.123 216.002H539.341L535.445 219.068L531.11 222.476L526.776 225.887L524.431 227.73H571.943L574.159 225.407L577.409 221.996L580.663 218.584L583.123 216.002ZM571.32 228.383H523.601L522.437 229.299L518.102 232.706L513.767 236.118L509.432 239.529L505.653 242.501H557.858L557.901 242.456L561.151 239.045L564.405 235.637L567.655 232.226L570.909 228.814L571.32 228.383ZM557.231 243.158H504.817L500.759 246.348L492.089 253.171L487.75 256.578L482.846 260.438H540.752L541.642 259.505L544.892 256.098L548.147 252.687L551.397 249.275L554.646 245.868L557.231 243.158ZM540.129 261.091H482.016L479.081 263.402L474.746 266.809L470.407 270.22L466.072 273.632L461.738 277.039L457.403 280.451L454.586 282.667H519.557L522.13 279.966L525.384 276.559L528.634 273.147L531.884 269.736L535.138 266.329L538.388 262.917L540.129 261.091ZM518.935 283.32H453.756L453.066 283.862L448.73 287.269L440.059 294.093L435.723 297.5L431.388 300.911L427.052 304.323L422.716 307.735L418.629 310.946H492.591L492.863 310.662L496.117 307.25L499.367 303.838L502.621 300.431L505.871 297.02L509.121 293.608L512.376 290.201L515.625 286.789L518.88 283.378L518.935 283.32ZM491.969 311.599H417.799L414.044 314.553L409.709 317.965L405.373 321.372L401.037 324.784L396.702 328.195L392.366 331.602L388.03 335.014L383.694 338.426L379.359 341.833L375.023 345.244L371.353 348.132H457.134L460.346 344.76L463.596 341.353L466.851 337.941L470.1 334.53L473.355 331.122L476.605 327.711L479.859 324.299L483.109 320.892L486.359 317.48L489.613 314.069L491.969 311.599ZM374.618 344.729L370.293 348.132H284.676L289.234 345.267L294.653 341.855L300.073 338.443L305.492 335.036L310.912 331.625L316.332 328.213L321.752 324.806L327.171 321.394L332.59 317.983L338.01 314.571L342.737 311.599H416.743L413.639 314.038L409.304 317.45L404.968 320.861L400.632 324.268L396.297 327.68L391.961 331.092L387.625 334.499L383.289 337.91L378.954 341.322L374.618 344.729ZM417.975 310.631L417.574 310.946H343.775L348.85 307.752L354.269 304.341L359.689 300.934L365.108 297.522L370.528 294.11L375.948 290.703L381.368 287.292L386.787 283.88L387.678 283.32H452.695L452.661 283.347L448.326 286.759L443.99 290.17L439.654 293.577L435.318 296.989L430.983 300.401L426.647 303.808L422.311 307.219L417.975 310.631ZM456.999 279.94L453.527 282.667H388.717L392.207 280.473L397.626 277.061L403.046 273.65L408.466 270.242L413.886 266.831L419.305 263.419L423.008 261.091H480.957L474.342 266.298L470.003 269.705L465.668 273.117L461.333 276.528L456.999 279.94ZM483.011 259.475L481.786 260.438H424.047L424.725 260.012L430.144 256.6L435.564 253.189L440.984 249.777L446.404 246.37L451.505 243.158H503.758L500.354 245.837L496.019 249.244L491.685 252.656L487.346 256.067L483.011 259.475ZM504.689 242.426L504.593 242.501H452.55L457.243 239.547L462.662 236.14L468.082 232.728L473.501 229.317L474.985 228.383H522.541L522.032 228.784L513.363 235.607L509.028 239.014L504.689 242.426ZM526.367 225.376L523.372 227.73H476.024L478.921 225.909L484.34 222.498L489.76 219.086L494.665 216.002H538.286L535.04 218.553L530.706 221.965L526.367 225.376ZM539.375 215.146L539.116 215.35H495.702L500.599 212.267L506.018 208.856L511.395 205.475H551.667L548.049 208.323L543.71 211.734L539.375 215.146ZM556.718 201.503L552.497 204.822H512.432L516.857 202.037L522.281 198.626L525.789 196.419H563.183L561.053 198.093L556.718 201.503ZM565.392 194.683L564.015 195.765H526.828L527.7 195.216L533.12 191.806L538.309 188.541H573.199L569.727 191.272L565.392 194.683ZM537.078 188.541H502.36L496.108 191.818L489.608 195.228L488.585 195.765H525.598L527.349 194.663L532.768 191.252L537.078 188.541ZM524.559 196.419H487.338L476.6 202.049L471.307 204.822H511.204L516.51 201.483L521.93 198.073L524.559 196.419ZM510.166 205.475H470.06L463.591 208.868L457.087 212.28L451.236 215.35H494.474L494.832 215.124L500.252 211.712L505.671 208.305L510.166 205.475ZM493.437 216.002H449.992L444.081 219.099L437.578 222.51L431.074 225.922L427.622 227.73H474.795L478.57 225.354L483.993 221.943L489.413 218.535L493.437 216.002ZM473.757 228.383H426.375L424.571 229.329L418.067 232.741L411.563 236.152L405.06 239.559L399.452 242.501H451.318L451.473 242.403L456.892 238.996L467.731 232.173L473.15 228.766L473.757 228.383ZM450.274 243.158H398.199L392.053 246.383L385.549 249.79L379.045 253.201L372.542 256.613L366.038 260.02L365.24 260.438H422.816L424.375 259.457L429.795 256.045L435.214 252.634L440.634 249.226L446.054 245.815L450.274 243.158ZM421.778 261.091H363.996L359.535 263.432L353.031 266.843L346.527 270.251L340.024 273.662L333.52 277.074L327.017 280.485L322.852 282.667H387.489L391.857 279.918L397.277 276.506L402.696 273.099L408.116 269.687L413.536 266.276L418.956 262.868L421.778 261.091ZM386.452 283.32H321.605L320.513 283.892L314.009 287.304L307.506 290.716L301.002 294.123L294.499 297.535L287.995 300.946L281.491 304.353L274.988 307.765L268.923 310.946H342.544L343.08 310.609L348.5 307.197L353.92 303.79L359.339 300.378L364.759 296.967L370.178 293.559L375.598 290.148L381.018 286.736L386.438 283.329L386.452 283.32ZM341.507 311.599H267.677L261.98 314.584L255.477 317.995L248.973 321.407L242.47 324.814L235.966 328.226L229.463 331.637L222.959 335.044L216.455 338.456L209.952 341.868L203.448 345.275L198.002 348.132H283.45L283.464 348.123L294.303 341.3L299.723 337.893L305.142 334.481L310.562 331.069L315.982 327.662L321.402 324.251L326.821 320.839L332.241 317.427L337.66 314.02L341.507 311.599ZM196.64 348.109L196.596 348.132H111.335L117.669 345.284L125.256 341.877L132.843 338.465L140.431 335.054L148.019 331.647L155.606 328.235L163.194 324.823L170.781 321.416L178.369 318.005L185.956 314.593L192.623 311.599H266.264L261.676 314.006L255.172 317.418L248.668 320.825L242.165 324.236L235.661 327.648L229.158 331.055L222.654 334.467L216.15 337.878L209.647 341.286L196.64 348.109ZM268.179 310.594L267.509 310.946H194.077L201.131 307.774L208.719 304.363L216.306 300.956L223.894 297.544L231.481 294.132L239.069 290.721L246.656 287.314L254.244 283.902L255.538 283.32H320.199L313.704 286.722L307.201 290.134L300.697 293.545L294.194 296.953L287.69 300.364L281.186 303.776L274.683 307.187L268.179 310.594ZM326.712 279.903L321.444 282.667H256.991L261.832 280.49L269.419 277.083L277.007 273.672L284.594 270.26L292.181 266.853L304.995 261.091H362.59L359.23 262.854L352.726 266.261L346.222 269.673L339.719 273.085L333.215 276.492L326.712 279.903ZM365.733 259.443L363.835 260.438H306.448L307.357 260.03L314.944 256.622L322.532 253.211L330.119 249.799L337.707 246.392L344.899 243.158H396.791L391.748 245.801L385.244 249.212L378.74 252.624L372.237 256.031L365.733 259.443ZM398.251 242.394L398.046 242.501H346.361L352.882 239.569L360.469 236.162L368.057 232.75L375.644 229.339L377.771 228.383H424.967L424.266 228.752L417.762 232.159L411.258 235.57L404.755 238.982L398.251 242.394ZM430.769 225.34L426.212 227.73H379.225L383.232 225.931L390.819 222.52L398.407 219.108L405.315 216.002H448.578L443.776 218.521L437.273 221.928L430.769 225.34ZM450.28 215.11L449.822 215.35H406.767L413.582 212.289L421.17 208.878L428.737 205.475H468.653L463.289 208.291L456.785 211.698L450.28 215.11ZM476.293 201.469L469.898 204.822H430.19L436.344 202.058L443.932 198.647L448.892 196.419H485.926L482.797 198.059L476.293 201.469ZM500.952 188.541L487.174 195.765H450.347L451.519 195.238L459.106 191.827L466.42 188.541H500.952Z" fill="url(#paint1_radial_7_8762)" fill-opacity="0.31"/>
<g clip-path="url(#clip2_7_8762)">
<path d="M614.398 574C671.332 574 717.507 528.204 717.507 471.706C717.507 528.204 763.668 574 820.603 574L614.398 574Z" fill="black"/>
</g>
</g>
</g>
<defs>
<radialGradient id="paint0_diamond_7_8762" cx="0" cy="0" r="1" gradientUnits="userSpaceOnUse" gradientTransform="translate(718 573) rotate(-90) scale(573 1027.33)">
<stop stop-color="white"/>
<stop offset="0.170718" stop-color="#1D5AE3"/>
<stop offset="0.512469" stop-color="#09235C"/>
<stop offset="1"/>
</radialGradient>
<radialGradient id="paint1_radial_7_8762" cx="0" cy="0" r="1" gradientUnits="userSpaceOnUse" gradientTransform="translate(718 344) rotate(-90) scale(163 361.881)">
<stop stop-color="white"/>
<stop offset="1" stop-color="white" stop-opacity="0"/>
</radialGradient>
<clipPath id="clip0_7_8762">
<rect width="1438" height="573" fill="white"/>
</clipPath>
<clipPath id="clip1_7_8762">
<rect width="1440" height="574" fill="white" transform="translate(-2)"/>
</clipPath>
<clipPath id="clip2_7_8762">
<rect width="207" height="103" fill="white" transform="translate(821 574) rotate(-180)"/>
</clipPath>
</defs>
</svg>
