<svg width="61" height="60" viewBox="0 0 61 60" fill="none" xmlns="http://www.w3.org/2000/svg">
<rect x="0.166565" width="60" height="60" rx="30" fill="url(#paint0_radial_276_5929)" fill-opacity="0.8"/>
<rect x="0.666565" y="0.5" width="59" height="59" rx="29.5" stroke="#B7CDFF" stroke-opacity="0.32"/>
<path d="M30.1666 13.75V17.5" stroke="#D7E3FF" stroke-linecap="round" stroke-linejoin="round"/>
<path d="M30.1666 42.5V46.25" stroke="#D7E3FF" stroke-linecap="round" stroke-linejoin="round"/>
<path d="M38.9166 23.75C38.9166 22.9292 38.7549 22.1165 38.4408 21.3582C38.1267 20.5999 37.6663 19.9109 37.086 19.3306C36.5056 18.7502 35.8166 18.2898 35.0583 17.9758C34.3001 17.6617 33.4873 17.5 32.6666 17.5H27.0416C25.384 17.5 23.7942 18.1585 22.6221 19.3306C21.45 20.5027 20.7916 22.0924 20.7916 23.75C20.7916 25.4076 21.45 26.9973 22.6221 28.1694C23.7942 29.3415 25.384 30 27.0416 30H33.9166C35.5742 30 37.1639 30.6585 38.336 31.8306C39.5081 33.0027 40.1666 34.5924 40.1666 36.25C40.1666 37.9076 39.5081 39.4973 38.336 40.6694C37.1639 41.8415 35.5742 42.5 33.9166 42.5H26.4166C24.759 42.5 23.1692 41.8415 21.9971 40.6694C20.825 39.4973 20.1666 37.9076 20.1666 36.25" stroke="#D7E3FF" stroke-linecap="round" stroke-linejoin="round"/>
<defs>
<radialGradient id="paint0_radial_276_5929" cx="0" cy="0" r="1" gradientUnits="userSpaceOnUse" gradientTransform="translate(30.1666) rotate(90) scale(60)">
<stop offset="0.316464"/>
<stop offset="0.823625" stop-color="#1D5AE3"/>
<stop offset="1" stop-color="#437EFF"/>
</radialGradient>
</defs>
</svg>
