<svg width="332" height="332" viewBox="0 0 332 332" fill="none" xmlns="http://www.w3.org/2000/svg">
<mask id="mask0_60_1057" style="mask-type:alpha" maskUnits="userSpaceOnUse" x="-16" y="-16" width="369" height="368">
<circle cx="168" cy="168" r="184" fill="url(#paint0_radial_60_1057)"/>
</mask>
<g mask="url(#mask0_60_1057)">
<rect opacity="0.1" x="0.750122" y="0.75" width="50.5" height="50.5" rx="15.25" stroke="#437EFF" stroke-width="1.5"/>
<rect opacity="0.1" x="0.750122" y="56.75" width="50.5" height="50.5" rx="15.25" stroke="#437EFF" stroke-width="1.5"/>
<rect opacity="0.1" x="0.750122" y="112.75" width="50.5" height="50.5" rx="15.25" stroke="#437EFF" stroke-width="1.5"/>
<rect opacity="0.1" x="0.750122" y="168.75" width="50.5" height="50.5" rx="15.25" stroke="#437EFF" stroke-width="1.5"/>
<rect opacity="0.1" x="0.750122" y="224.75" width="50.5" height="50.5" rx="15.25" stroke="#437EFF" stroke-width="1.5"/>
<rect opacity="0.1" x="0.750122" y="280.75" width="50.5" height="50.5" rx="15.25" stroke="#437EFF" stroke-width="1.5"/>
<rect opacity="0.1" x="56.7501" y="0.75" width="50.5" height="50.5" rx="15.25" stroke="#437EFF" stroke-width="1.5"/>
<path opacity="0.1" d="M56.7501 72C56.7501 63.5777 63.5778 56.75 72.0001 56.75H92.0001C100.422 56.75 107.25 63.5777 107.25 72V204C107.25 212.422 100.422 219.25 92.0001 219.25H72.0001C63.5778 219.25 56.7501 212.422 56.7501 204V72Z" stroke="#437EFF" stroke-width="1.5"/>
<rect opacity="0.1" x="56.7501" y="224.75" width="50.5" height="50.5" rx="15.25" stroke="#437EFF" stroke-width="1.5"/>
<rect opacity="0.1" x="56.7501" y="280.75" width="50.5" height="50.5" rx="15.25" stroke="#437EFF" stroke-width="1.5"/>
<rect opacity="0.1" x="112.75" y="0.75" width="50.5" height="50.5" rx="15.25" stroke="#437EFF" stroke-width="1.5"/>
<rect opacity="0.1" x="112.75" y="56.75" width="50.5" height="50.5" rx="15.25" stroke="#437EFF" stroke-width="1.5"/>
<path opacity="0.1" d="M112.75 184C112.75 175.578 119.578 168.75 128 168.75H204C212.422 168.75 219.25 175.578 219.25 184V260C219.25 268.422 212.422 275.25 204 275.25H128C119.578 275.25 112.75 268.422 112.75 260V184Z" stroke="#437EFF" stroke-width="1.5"/>
<rect opacity="0.1" x="112.75" y="280.75" width="50.5" height="50.5" rx="15.25" stroke="#437EFF" stroke-width="1.5"/>
<path opacity="0.1" d="M168.75 16C168.75 7.57765 175.578 0.75 184 0.75H204C212.422 0.75 219.25 7.57766 219.25 16V92C219.25 100.422 212.422 107.25 204 107.25H184C175.578 107.25 168.75 100.422 168.75 92V16Z" stroke="#437EFF" stroke-width="1.5"/>
<rect opacity="0.1" x="224.75" y="0.75" width="50.5" height="50.5" rx="15.25" stroke="#437EFF" stroke-width="1.5"/>
<rect opacity="0.1" x="224.75" y="56.75" width="50.5" height="50.5" rx="15.25" stroke="#437EFF" stroke-width="1.5"/>
<path opacity="0.1" d="M168.75 128C168.75 119.578 175.578 112.75 184 112.75H260C268.422 112.75 275.25 119.578 275.25 128V148C275.25 156.422 268.422 163.25 260 163.25H184C175.578 163.25 168.75 156.422 168.75 148V128Z" stroke="#437EFF" stroke-width="1.5"/>
<path opacity="0.1" d="M224.75 184C224.75 175.578 231.578 168.75 240 168.75H260C268.422 168.75 275.25 175.578 275.25 184V260C275.25 268.422 268.422 275.25 260 275.25H240C231.578 275.25 224.75 268.422 224.75 260V184Z" stroke="#437EFF" stroke-width="1.5"/>
<path opacity="0.1" d="M168.75 296C168.75 287.578 175.578 280.75 184 280.75H260C268.422 280.75 275.25 287.578 275.25 296V316C275.25 324.422 268.422 331.25 260 331.25H184C175.578 331.25 168.75 324.422 168.75 316V296Z" stroke="#437EFF" stroke-width="1.5"/>
<rect opacity="0.1" x="280.75" y="0.75" width="50.5" height="50.5" rx="15.25" stroke="#437EFF" stroke-width="1.5"/>
<rect opacity="0.1" x="280.75" y="56.75" width="50.5" height="50.5" rx="15.25" stroke="#437EFF" stroke-width="1.5"/>
<rect opacity="0.1" x="280.75" y="112.75" width="50.5" height="50.5" rx="15.25" stroke="#437EFF" stroke-width="1.5"/>
<rect opacity="0.1" x="280.75" y="168.75" width="50.5" height="50.5" rx="15.25" stroke="#437EFF" stroke-width="1.5"/>
<rect opacity="0.1" x="280.75" y="224.75" width="50.5" height="50.5" rx="15.25" stroke="#437EFF" stroke-width="1.5"/>
<rect opacity="0.1" x="280.75" y="280.75" width="50.5" height="50.5" rx="15.25" stroke="#437EFF" stroke-width="1.5"/>
<mask id="mask1_60_1057" style="mask-type:alpha" maskUnits="userSpaceOnUse" x="56" y="0" width="221" height="276">
<path d="M56.7501 72C56.7501 63.5777 63.5778 56.75 72.0001 56.75H92.0001C100.422 56.75 107.25 63.5777 107.25 72V204C107.25 212.422 100.422 219.25 92.0001 219.25H72.0001C63.5778 219.25 56.7501 212.422 56.7501 204V72ZM56.7501 240C56.7501 231.578 63.5778 224.75 72.0001 224.75H92.0001C100.422 224.75 107.25 231.578 107.25 240V260C107.25 268.422 100.422 275.25 92.0001 275.25H72.0001C63.5778 275.25 56.7501 268.422 56.7501 260V240ZM112.75 72C112.75 63.5777 119.578 56.75 128 56.75H148C156.422 56.75 163.25 63.5777 163.25 72V92C163.25 100.422 156.422 107.25 148 107.25H128C119.578 107.25 112.75 100.422 112.75 92V72ZM112.75 184C112.75 175.578 119.578 168.75 128 168.75H204C212.422 168.75 219.25 175.578 219.25 184V260C219.25 268.422 212.422 275.25 204 275.25H128C119.578 275.25 112.75 268.422 112.75 260V184ZM168.75 16C168.75 7.57766 175.578 0.75 184 0.75H204C212.422 0.75 219.25 7.57766 219.25 16V92C219.25 100.422 212.422 107.25 204 107.25H184C175.578 107.25 168.75 100.422 168.75 92V16ZM168.75 128C168.75 119.578 175.578 112.75 184 112.75H260C268.422 112.75 275.25 119.578 275.25 128V148C275.25 156.422 268.422 163.25 260 163.25H184C175.578 163.25 168.75 156.422 168.75 148V128Z" stroke="#F8F8F8" stroke-width="1.5"/>
</mask>
<g mask="url(#mask1_60_1057)">
<g opacity="0.25" filter="url(#filter0_f_60_1057)">
<circle cx="142" cy="167" r="90" fill="#437EFF"/>
</g>
</g>
</g>
<g filter="url(#filter1_di_60_1057)">
<g clip-path="url(#clip0_60_1057)">
<rect opacity="0.4" x="112.75" y="112.75" width="50.5" height="50.5" rx="15.25" stroke="#437EFF" stroke-width="1.5"/>
<g filter="url(#filter2_i_60_1057)">
<rect x="118" y="118" width="40" height="40" rx="10" fill="#F8F8F8" fill-opacity="0.01"/>
<g opacity="0.1" filter="url(#filter3_i_60_1057)">
<path fill-rule="evenodd" clip-rule="evenodd" d="M139 135C139 134.448 138.552 134 138 134C137.448 134 137 134.448 137 135V135.5C137 136.328 136.329 137 135.5 137H135C134.448 137 134 137.448 134 138C134 138.552 134.448 139 135 139H135.5C136.329 139 137 139.672 137 140.5V141C137 141.552 137.448 142 138 142C138.552 142 139 141.552 139 141V140.5C139 139.672 139.672 139 140.5 139H141C141.552 139 142 138.552 142 138C142 137.448 141.552 137 141 137H140.5C139.672 137 139 136.328 139 135.5V135Z" fill="#437EFF"/>
</g>
</g>
</g>
</g>
<path d="M155.084 156.183C154.896 156.116 154.706 156.047 154.545 156.006C154.392 155.966 154.098 155.9 153.782 156.01C153.419 156.135 153.135 156.42 153.009 156.782C152.9 157.098 152.966 157.392 153.006 157.545C153.047 157.706 153.116 157.896 153.183 158.084L157.957 171.383C158.041 171.617 158.121 171.841 158.201 172.013C158.268 172.159 158.42 172.478 158.752 172.658C159.114 172.855 159.55 172.861 159.917 172.674C160.253 172.502 160.414 172.187 160.485 172.043C160.569 171.873 160.655 171.651 160.745 171.42L162.894 165.894L168.42 163.745C168.651 163.655 168.873 163.569 169.043 163.485C169.187 163.414 169.502 163.253 169.674 162.918C169.861 162.55 169.855 162.114 169.658 161.752C169.478 161.42 169.159 161.268 169.013 161.201C168.841 161.122 168.617 161.041 168.383 160.957L155.084 156.183Z" fill="#121212" stroke="#437EFF" stroke-width="1.5" stroke-linecap="round" stroke-linejoin="round"/>
<defs>
<filter id="filter0_f_60_1057" x="12.0001" y="37" width="260" height="260" filterUnits="userSpaceOnUse" color-interpolation-filters="sRGB">
<feFlood flood-opacity="0" result="BackgroundImageFix"/>
<feBlend mode="normal" in="SourceGraphic" in2="BackgroundImageFix" result="shape"/>
<feGaussianBlur stdDeviation="20" result="effect1_foregroundBlur_60_1057"/>
</filter>
<filter id="filter1_di_60_1057" x="104" y="112" width="68" height="92" filterUnits="userSpaceOnUse" color-interpolation-filters="sRGB">
<feFlood flood-opacity="0" result="BackgroundImageFix"/>
<feColorMatrix in="SourceAlpha" type="matrix" values="0 0 0 0 0 0 0 0 0 0 0 0 0 0 0 0 0 0 127 0" result="hardAlpha"/>
<feMorphology radius="16" operator="erode" in="SourceAlpha" result="effect1_dropShadow_60_1057"/>
<feOffset dy="32"/>
<feGaussianBlur stdDeviation="12"/>
<feComposite in2="hardAlpha" operator="out"/>
<feColorMatrix type="matrix" values="0 0 0 0 0 0 0 0 0 0 0 0 0 0 0 0 0 0 0.4 0"/>
<feBlend mode="multiply" in2="BackgroundImageFix" result="effect1_dropShadow_60_1057"/>
<feBlend mode="normal" in="SourceGraphic" in2="effect1_dropShadow_60_1057" result="shape"/>
<feColorMatrix in="SourceAlpha" type="matrix" values="0 0 0 0 0 0 0 0 0 0 0 0 0 0 0 0 0 0 127 0" result="hardAlpha"/>
<feOffset/>
<feGaussianBlur stdDeviation="4"/>
<feComposite in2="hardAlpha" operator="arithmetic" k2="-1" k3="1"/>
<feColorMatrix type="matrix" values="0 0 0 0 0.972549 0 0 0 0 0.972549 0 0 0 0 0.972549 0 0 0 0.25 0"/>
<feBlend mode="normal" in2="shape" result="effect2_innerShadow_60_1057"/>
</filter>
<filter id="filter2_i_60_1057" x="118" y="118" width="40" height="40" filterUnits="userSpaceOnUse" color-interpolation-filters="sRGB">
<feFlood flood-opacity="0" result="BackgroundImageFix"/>
<feBlend mode="normal" in="SourceGraphic" in2="BackgroundImageFix" result="shape"/>
<feColorMatrix in="SourceAlpha" type="matrix" values="0 0 0 0 0 0 0 0 0 0 0 0 0 0 0 0 0 0 127 0" result="hardAlpha"/>
<feOffset/>
<feGaussianBlur stdDeviation="4"/>
<feComposite in2="hardAlpha" operator="arithmetic" k2="-1" k3="1"/>
<feColorMatrix type="matrix" values="0 0 0 0 0.972549 0 0 0 0 0.972549 0 0 0 0 0.972549 0 0 0 0.25 0"/>
<feBlend mode="normal" in2="shape" result="effect1_innerShadow_60_1057"/>
</filter>
<filter id="filter3_i_60_1057" x="134" y="134" width="8" height="8" filterUnits="userSpaceOnUse" color-interpolation-filters="sRGB">
<feFlood flood-opacity="0" result="BackgroundImageFix"/>
<feBlend mode="normal" in="SourceGraphic" in2="BackgroundImageFix" result="shape"/>
<feColorMatrix in="SourceAlpha" type="matrix" values="0 0 0 0 0 0 0 0 0 0 0 0 0 0 0 0 0 0 127 0" result="hardAlpha"/>
<feOffset/>
<feGaussianBlur stdDeviation="4"/>
<feComposite in2="hardAlpha" operator="arithmetic" k2="-1" k3="1"/>
<feColorMatrix type="matrix" values="0 0 0 0 0.972549 0 0 0 0 0.972549 0 0 0 0 0.972549 0 0 0 0.25 0"/>
<feBlend mode="normal" in2="shape" result="effect1_innerShadow_60_1057"/>
</filter>
<radialGradient id="paint0_radial_60_1057" cx="0" cy="0" r="1" gradientUnits="userSpaceOnUse" gradientTransform="translate(168 168) rotate(90) scale(184)">
<stop stop-color="#D9D9D9"/>
<stop offset="1" stop-color="#737373" stop-opacity="0"/>
</radialGradient>
<clipPath id="clip0_60_1057">
<rect x="112" y="112" width="52" height="52" rx="16" fill="white"/>
</clipPath>
</defs>
</svg>
