<svg width="32" height="32" viewBox="0 0 32 32" fill="none" xmlns="http://www.w3.org/2000/svg">
<path d="M16.6942 1.96326C16.5005 1.91102 16.2689 1.8623 16 1.8623C15.7311 1.8623 15.4995 1.91102 15.3058 1.96326C14.9447 2.06062 14.6414 2.25423 14.4224 2.40557C14.1958 2.56222 13.9248 2.77188 13.6188 3.00856L13.5917 3.02958C12.3747 3.97101 11.058 4.6178 9.30491 4.98239L9.26611 4.99046C8.41176 5.16814 7.71755 5.31251 7.18272 5.45388C6.66309 5.59122 6.12757 5.76487 5.69289 6.07177C5.40021 6.27842 5.12733 6.50817 4.88525 6.80578C4.64317 7.10338 4.4738 7.41733 4.33108 7.74596C4.13037 8.2081 4.06176 8.69319 4.03044 9.17164C3.99998 9.63702 3.99999 10.2107 4 10.8897V15.9998C4 19.7686 6.04972 22.9107 8.26541 25.219C10.4959 27.5427 13.048 29.184 14.3975 29.9713L14.4521 30.0033C14.6984 30.1479 15.018 30.3356 15.4409 30.4263C15.7868 30.5005 16.2132 30.5005 16.5591 30.4263C16.982 30.3356 17.3016 30.1479 17.5479 30.0033L17.6025 29.9713C18.952 29.184 21.5041 27.5427 23.7346 25.219C25.9503 22.9107 28 19.7686 28 15.9998V10.8898C28 10.2108 28 9.63701 27.9696 9.17164C27.9382 8.69319 27.8696 8.2081 27.6689 7.74596C27.5262 7.41733 27.3568 7.10338 27.1148 6.80578C26.8727 6.50817 26.5998 6.27842 26.3071 6.07177C25.8724 5.76487 25.3369 5.59122 24.8173 5.45388C24.2824 5.31251 23.5882 5.16814 22.7339 4.99046L22.6951 4.98239C20.942 4.6178 19.6253 3.97101 18.4083 3.02958L18.3811 3.00854C18.0752 2.77187 17.8042 2.56221 17.5776 2.40557C17.3586 2.25423 17.0553 2.06062 16.6942 1.96326Z" fill="black"/>
<path d="M16.6942 1.96326C16.5005 1.91102 16.2689 1.8623 16 1.8623C15.7311 1.8623 15.4995 1.91102 15.3058 1.96326C14.9447 2.06062 14.6414 2.25423 14.4224 2.40557C14.1958 2.56222 13.9248 2.77188 13.6188 3.00856L13.5917 3.02958C12.3747 3.97101 11.058 4.6178 9.30491 4.98239L9.26611 4.99046C8.41176 5.16814 7.71755 5.31251 7.18272 5.45388C6.66309 5.59122 6.12757 5.76487 5.69289 6.07177C5.40021 6.27842 5.12733 6.50817 4.88525 6.80578C4.64317 7.10338 4.4738 7.41733 4.33108 7.74596C4.13037 8.2081 4.06176 8.69319 4.03044 9.17164C3.99998 9.63702 3.99999 10.2107 4 10.8897V15.9998C4 19.7686 6.04972 22.9107 8.26541 25.219C10.4959 27.5427 13.048 29.184 14.3975 29.9713L14.4521 30.0033C14.6984 30.1479 15.018 30.3356 15.4409 30.4263C15.7868 30.5005 16.2132 30.5005 16.5591 30.4263C16.982 30.3356 17.3016 30.1479 17.5479 30.0033L17.6025 29.9713C18.952 29.184 21.5041 27.5427 23.7346 25.219C25.9503 22.9107 28 19.7686 28 15.9998V10.8898C28 10.2108 28 9.63701 27.9696 9.17164C27.9382 8.69319 27.8696 8.2081 27.6689 7.74596C27.5262 7.41733 27.3568 7.10338 27.1148 6.80578C26.8727 6.50817 26.5998 6.27842 26.3071 6.07177C25.8724 5.76487 25.3369 5.59122 24.8173 5.45388C24.2824 5.31251 23.5882 5.16814 22.7339 4.99046L22.6951 4.98239C20.942 4.6178 19.6253 3.97101 18.4083 3.02958L18.3811 3.00854C18.0752 2.77187 17.8042 2.56221 17.5776 2.40557C17.3586 2.25423 17.0553 2.06062 16.6942 1.96326Z" fill="url(#paint0_radial_7_8662)"/>
<defs>
<radialGradient id="paint0_radial_7_8662" cx="0" cy="0" r="1" gradientUnits="userSpaceOnUse" gradientTransform="translate(25.3 6.18777) rotate(136.717) scale(30.5101 11.265)">
<stop stop-color="#1D5AE3"/>
<stop offset="1" stop-color="#D7E3FF"/>
</radialGradient>
</defs>
</svg>
