<svg width="32" height="32" viewBox="0 0 32 32" fill="none" xmlns="http://www.w3.org/2000/svg">
<path fill-rule="evenodd" clip-rule="evenodd" d="M7.56018 7.33577C7.33046 7.33899 7.11517 7.34644 6.92263 7.3636C6.56053 7.39588 6.11707 7.47253 5.69634 7.73322C5.13102 8.08352 4.71699 8.63241 4.53548 9.27221C4.4004 9.74838 4.44852 10.1958 4.51696 10.5529C4.5921 10.9448 4.62967 11.1408 4.74394 11.3372C4.893 11.5934 5.17512 11.8266 5.45478 11.9247C5.66917 12 5.91153 12 6.39624 12H25.6036C26.0883 12 26.3307 12 26.5451 11.9247C26.8248 11.8266 27.1069 11.5934 27.2559 11.3372C27.3702 11.1408 27.4078 10.9448 27.4829 10.5529C27.5513 10.1958 27.5995 9.74838 27.4644 9.27221C27.2829 8.63241 26.8689 8.08352 26.3035 7.73323C25.8828 7.47253 25.4393 7.39588 25.0772 7.3636C24.8847 7.34644 24.6694 7.33899 24.4397 7.33577C24.5887 6.91017 24.6666 6.45873 24.6666 6C24.6666 4.94681 24.256 3.93202 23.5175 3.1801C22.7782 2.42737 21.7703 2 20.7143 2C18.3213 2 16.8366 3.62461 16 5.02965C15.1633 3.62461 13.6786 2 11.2857 2C10.2296 2 9.22175 2.42737 8.48246 3.1801C7.74397 3.93202 7.33329 4.94681 7.33329 6C7.33329 6.45873 7.4112 6.91017 7.56018 7.33577ZM10.385 5.04866C10.628 4.8012 10.9525 4.66667 11.2857 4.66667C12.3653 4.66667 13.1969 5.43441 13.8447 6.63369C13.9714 6.86821 14.0824 7.10487 14.179 7.33333H11.2857C10.9525 7.33333 10.628 7.1988 10.385 6.95134C10.1411 6.70306 9.99996 6.3613 9.99996 6C9.99996 5.6387 10.1411 5.29694 10.385 5.04866ZM17.821 7.33333C17.9175 7.10487 18.0286 6.86821 18.1552 6.63369C18.8031 5.43441 19.6347 4.66667 20.7143 4.66667C21.0474 4.66667 21.3719 4.8012 21.6149 5.04866C21.8588 5.29694 22 5.6387 22 6C22 6.3613 21.8588 6.70306 21.6149 6.95134C21.3719 7.1988 21.0474 7.33333 20.7143 7.33333H17.821Z" fill="black"/>
<path fill-rule="evenodd" clip-rule="evenodd" d="M7.56018 7.33577C7.33046 7.33899 7.11517 7.34644 6.92263 7.3636C6.56053 7.39588 6.11707 7.47253 5.69634 7.73322C5.13102 8.08352 4.71699 8.63241 4.53548 9.27221C4.4004 9.74838 4.44852 10.1958 4.51696 10.5529C4.5921 10.9448 4.62967 11.1408 4.74394 11.3372C4.893 11.5934 5.17512 11.8266 5.45478 11.9247C5.66917 12 5.91153 12 6.39624 12H25.6036C26.0883 12 26.3307 12 26.5451 11.9247C26.8248 11.8266 27.1069 11.5934 27.2559 11.3372C27.3702 11.1408 27.4078 10.9448 27.4829 10.5529C27.5513 10.1958 27.5995 9.74838 27.4644 9.27221C27.2829 8.63241 26.8689 8.08352 26.3035 7.73323C25.8828 7.47253 25.4393 7.39588 25.0772 7.3636C24.8847 7.34644 24.6694 7.33899 24.4397 7.33577C24.5887 6.91017 24.6666 6.45873 24.6666 6C24.6666 4.94681 24.256 3.93202 23.5175 3.1801C22.7782 2.42737 21.7703 2 20.7143 2C18.3213 2 16.8366 3.62461 16 5.02965C15.1633 3.62461 13.6786 2 11.2857 2C10.2296 2 9.22175 2.42737 8.48246 3.1801C7.74397 3.93202 7.33329 4.94681 7.33329 6C7.33329 6.45873 7.4112 6.91017 7.56018 7.33577ZM10.385 5.04866C10.628 4.8012 10.9525 4.66667 11.2857 4.66667C12.3653 4.66667 13.1969 5.43441 13.8447 6.63369C13.9714 6.86821 14.0824 7.10487 14.179 7.33333H11.2857C10.9525 7.33333 10.628 7.1988 10.385 6.95134C10.1411 6.70306 9.99996 6.3613 9.99996 6C9.99996 5.6387 10.1411 5.29694 10.385 5.04866ZM17.821 7.33333C17.9175 7.10487 18.0286 6.86821 18.1552 6.63369C18.8031 5.43441 19.6347 4.66667 20.7143 4.66667C21.0474 4.66667 21.3719 4.8012 21.6149 5.04866C21.8588 5.29694 22 5.6387 22 6C22 6.3613 21.8588 6.70306 21.6149 6.95134C21.3719 7.1988 21.0474 7.33333 20.7143 7.33333H17.821Z" fill="url(#paint0_radial_7_8644)"/>
<path d="M28.3097 15.7024C28.0831 15.3247 27.9698 15.1359 27.8138 14.9987C27.6758 14.8773 27.5141 14.7858 27.339 14.7299C27.1411 14.6667 26.9209 14.6667 26.4804 14.6667H5.51957C5.07912 14.6667 4.8589 14.6667 4.66101 14.7299C4.4859 14.7858 4.32424 14.8773 4.18619 14.9987C4.03019 15.1359 3.91688 15.3247 3.69027 15.7024L2.9601 16.9193C2.47808 17.7217 2.11401 18.3278 1.92016 18.9975C1.74926 19.5878 1.6817 20.2033 1.72045 20.8167C1.76442 21.5125 1.98834 22.1831 2.28482 23.071L2.68467 24.2708C3.13441 25.6234 3.4729 26.6415 4.12508 27.4214C4.69786 28.1063 5.43343 28.6365 6.26433 28.9633C7.21042 29.3354 8.28328 29.3345 9.70874 29.3335L22.2912 29.3335C23.7167 29.3345 24.7896 29.3354 25.7357 28.9633C26.5666 28.6365 27.3021 28.1063 27.8749 27.4214C28.5271 26.6415 28.8656 25.6234 29.3153 24.2708L29.7152 23.071C30.0117 22.1831 30.2356 21.5125 30.2795 20.8167C30.3183 20.2033 30.2507 19.5878 30.0798 18.9975C29.886 18.3278 29.5219 17.7218 29.04 16.9194L28.3097 15.7024Z" fill="black"/>
<path d="M28.3097 15.7024C28.0831 15.3247 27.9698 15.1359 27.8138 14.9987C27.6758 14.8773 27.5141 14.7858 27.339 14.7299C27.1411 14.6667 26.9209 14.6667 26.4804 14.6667H5.51957C5.07912 14.6667 4.8589 14.6667 4.66101 14.7299C4.4859 14.7858 4.32424 14.8773 4.18619 14.9987C4.03019 15.1359 3.91688 15.3247 3.69027 15.7024L2.9601 16.9193C2.47808 17.7217 2.11401 18.3278 1.92016 18.9975C1.74926 19.5878 1.6817 20.2033 1.72045 20.8167C1.76442 21.5125 1.98834 22.1831 2.28482 23.071L2.68467 24.2708C3.13441 25.6234 3.4729 26.6415 4.12508 27.4214C4.69786 28.1063 5.43343 28.6365 6.26433 28.9633C7.21042 29.3354 8.28328 29.3345 9.70874 29.3335L22.2912 29.3335C23.7167 29.3345 24.7896 29.3354 25.7357 28.9633C26.5666 28.6365 27.3021 28.1063 27.8749 27.4214C28.5271 26.6415 28.8656 25.6234 29.3153 24.2708L29.7152 23.071C30.0117 22.1831 30.2356 21.5125 30.2795 20.8167C30.3183 20.2033 30.2507 19.5878 30.0798 18.9975C29.886 18.3278 29.5219 17.7218 29.04 16.9194L28.3097 15.7024Z" fill="url(#paint1_radial_7_8644)"/>
<defs>
<radialGradient id="paint0_radial_7_8644" cx="0" cy="0" r="1" gradientUnits="userSpaceOnUse" gradientTransform="translate(27.0749 6.1311) rotate(142.935) scale(33.1464 11.7931)">
<stop stop-color="#1D5AE3"/>
<stop offset="1" stop-color="#D7E3FF"/>
</radialGradient>
<radialGradient id="paint1_radial_7_8644" cx="0" cy="0" r="1" gradientUnits="userSpaceOnUse" gradientTransform="translate(27.0749 6.1311) rotate(142.935) scale(33.1464 11.7931)">
<stop stop-color="#1D5AE3"/>
<stop offset="1" stop-color="#D7E3FF"/>
</radialGradient>
</defs>
</svg>
