<svg width="32" height="32" viewBox="0 0 32 32" fill="none" xmlns="http://www.w3.org/2000/svg">
<path d="M22.9888 2.66699H9.01201C7.93873 2.66698 7.0529 2.66696 6.33131 2.72592C5.58185 2.78715 4.89291 2.91857 4.2458 3.24829C3.24227 3.75962 2.42637 4.57551 1.91504 5.57904C1.58532 6.22616 1.4539 6.9151 1.39267 7.66456C1.36904 7.95378 1.35416 8.24363 1.34494 8.5338C1.32198 9.25659 1.31049 9.61799 1.45236 9.91242C1.57458 10.1661 1.78727 10.3856 2.03692 10.5158C2.3267 10.667 2.70683 10.667 3.46708 10.667H28.5337C29.294 10.667 29.6741 10.667 29.9639 10.5158C30.2136 10.3856 30.4262 10.1661 30.5485 9.91242C30.6903 9.61799 30.6788 9.25659 30.6559 8.5338C30.6467 8.24363 30.6318 7.95378 30.6082 7.66456C30.5469 6.9151 30.4155 6.22616 30.0858 5.57905C29.5745 4.57552 28.7586 3.75962 27.755 3.24829C27.1079 2.91857 26.419 2.78715 25.6695 2.72592C24.9479 2.66697 24.0621 2.66698 22.9888 2.66699Z" fill="black"/>
<path d="M22.9888 2.66699H9.01201C7.93873 2.66698 7.0529 2.66696 6.33131 2.72592C5.58185 2.78715 4.89291 2.91857 4.2458 3.24829C3.24227 3.75962 2.42637 4.57551 1.91504 5.57904C1.58532 6.22616 1.4539 6.9151 1.39267 7.66456C1.36904 7.95378 1.35416 8.24363 1.34494 8.5338C1.32198 9.25659 1.31049 9.61799 1.45236 9.91242C1.57458 10.1661 1.78727 10.3856 2.03692 10.5158C2.3267 10.667 2.70683 10.667 3.46708 10.667H28.5337C29.294 10.667 29.6741 10.667 29.9639 10.5158C30.2136 10.3856 30.4262 10.1661 30.5485 9.91242C30.6903 9.61799 30.6788 9.25659 30.6559 8.5338C30.6467 8.24363 30.6318 7.95378 30.6082 7.66456C30.5469 6.9151 30.4155 6.22616 30.0858 5.57905C29.5745 4.57552 28.7586 3.75962 27.755 3.24829C27.1079 2.91857 26.419 2.78715 25.6695 2.72592C24.9479 2.66697 24.0621 2.66698 22.9888 2.66699Z" fill="url(#paint0_radial_7_8656)"/>
<path d="M30.6671 15.467C30.6671 14.7203 30.6671 14.3469 30.5218 14.0617C30.3939 13.8108 30.1899 13.6068 29.9391 13.479C29.6538 13.3337 29.2805 13.3337 28.5337 13.3337H3.46708C2.72034 13.3337 2.34697 13.3337 2.06176 13.479C1.81087 13.6068 1.6069 13.8108 1.47907 14.0617C1.33374 14.3469 1.33374 14.7203 1.33374 15.467V21.6554C1.33373 22.7287 1.33371 23.6145 1.39267 24.3361C1.4539 25.0856 1.58532 25.7745 1.91504 26.4216C2.42637 27.4251 3.24226 28.241 4.2458 28.7524C4.89291 29.0821 5.58185 29.2135 6.33131 29.2747C7.05292 29.3337 7.93877 29.3337 9.0121 29.3337L22.9887 29.3337C24.0621 29.3337 24.9479 29.3337 25.6695 29.2747C26.419 29.2135 27.1079 29.0821 27.755 28.7524C28.7586 28.241 29.5745 27.4251 30.0858 26.4216C30.4155 25.7745 30.5469 25.0856 30.6082 24.3361C30.6671 23.6145 30.6671 22.7287 30.6671 21.6554V15.467Z" fill="black"/>
<path d="M30.6671 15.467C30.6671 14.7203 30.6671 14.3469 30.5218 14.0617C30.3939 13.8108 30.1899 13.6068 29.9391 13.479C29.6538 13.3337 29.2805 13.3337 28.5337 13.3337H3.46708C2.72034 13.3337 2.34697 13.3337 2.06176 13.479C1.81087 13.6068 1.6069 13.8108 1.47907 14.0617C1.33374 14.3469 1.33374 14.7203 1.33374 15.467V21.6554C1.33373 22.7287 1.33371 23.6145 1.39267 24.3361C1.4539 25.0856 1.58532 25.7745 1.91504 26.4216C2.42637 27.4251 3.24226 28.241 4.2458 28.7524C4.89291 29.0821 5.58185 29.2135 6.33131 29.2747C7.05292 29.3337 7.93877 29.3337 9.0121 29.3337L22.9887 29.3337C24.0621 29.3337 24.9479 29.3337 25.6695 29.2747C26.419 29.2135 27.1079 29.0821 27.755 28.7524C28.7586 28.241 29.5745 27.4251 30.0858 26.4216C30.4155 25.7745 30.5469 25.0856 30.6082 24.3361C30.6671 23.6145 30.6671 22.7287 30.6671 21.6554V15.467Z" fill="url(#paint1_radial_7_8656)"/>
<defs>
<radialGradient id="paint0_radial_7_8656" cx="0" cy="0" r="1" gradientUnits="userSpaceOnUse" gradientTransform="translate(27.3692 6.6973) rotate(144.327) scale(33.4225 11.713)">
<stop stop-color="#1D5AE3"/>
<stop offset="1" stop-color="#D7E3FF"/>
</radialGradient>
<radialGradient id="paint1_radial_7_8656" cx="0" cy="0" r="1" gradientUnits="userSpaceOnUse" gradientTransform="translate(27.3692 6.6973) rotate(144.327) scale(33.4225 11.713)">
<stop stop-color="#1D5AE3"/>
<stop offset="1" stop-color="#D7E3FF"/>
</radialGradient>
</defs>
</svg>
