<svg width="32" height="32" viewBox="0 0 32 32" fill="none" xmlns="http://www.w3.org/2000/svg">
<path d="M2.66663 16L15.5229 22.4282C15.6978 22.5156 15.7853 22.5593 15.877 22.5765C15.9583 22.5918 16.0416 22.5918 16.1229 22.5765C16.2146 22.5593 16.3021 22.5156 16.477 22.4282L29.3333 16M2.66663 22.6667L15.5229 29.0948C15.6978 29.1823 15.7853 29.226 15.877 29.2432C15.9583 29.2585 16.0416 29.2585 16.1229 29.2432C16.2146 29.226 16.3021 29.1823 16.477 29.0948L29.3333 22.6667M2.66663 9.33334L15.5229 2.90519C15.6978 2.81773 15.7853 2.774 15.877 2.75679C15.9583 2.74155 16.0416 2.74155 16.1229 2.75679C16.2146 2.774 16.3021 2.81773 16.477 2.90519L29.3333 9.33334L16.477 15.7615C16.3021 15.8489 16.2146 15.8927 16.1229 15.9099C16.0416 15.9251 15.9583 15.9251 15.877 15.9099C15.7853 15.8927 15.6978 15.8489 15.5229 15.7615L2.66663 9.33334Z" stroke="white" stroke-width="2" stroke-linecap="round" stroke-linejoin="round"/>
</svg>
