<svg width="440" height="440" viewBox="0 0 440 440" fill="none" xmlns="http://www.w3.org/2000/svg">
<path fill-rule="evenodd" clip-rule="evenodd" d="M0 20C0 8.95431 8.95431 0 20 0H60C71.0457 0 80 8.95431 80 20V60C80 71.0457 71.0457 80 60 80H20C8.95431 80 0 71.0457 0 60V20ZM90 20C90 8.95431 98.9543 0 110 0H150C161.046 0 170 8.95431 170 20V60C170 71.0457 161.046 80 150 80H110C98.9543 80 90 71.0457 90 60V20ZM200 0C188.954 0 180 8.95431 180 20V60C180 71.0457 188.954 80 200 80H240C251.046 80 260 71.0457 260 60V20C260 8.95431 251.046 0 240 0H200ZM270 20C270 8.95431 278.954 0 290 0H330C341.046 0 350 8.95431 350 20V60C350 71.0457 341.046 80 330 80H290C278.954 80 270 71.0457 270 60V20ZM380 0C368.954 0 360 8.95431 360 20V60C360 71.0457 368.954 80 380 80H420C431.046 80 440 71.0457 440 60V20C440 8.95431 431.046 0 420 0H380ZM0 110C0 98.9543 8.95431 90 20 90H60C71.0457 90 80 98.9543 80 110V150C80 161.046 71.0457 170 60 170H20C8.95431 170 0 161.046 0 150V110ZM110 90C98.9543 90 90 98.9543 90 110V150C90 161.046 98.9543 170 110 170H150C161.046 170 170 161.046 170 150V110C170 98.9543 161.046 90 150 90H110ZM180 110C180 98.9543 188.954 90 200 90H240C251.046 90 260 98.9543 260 110V150C260 161.046 251.046 170 240 170H200C188.954 170 180 161.046 180 150V110ZM290 90C278.954 90 270 98.9543 270 110V150C270 161.046 278.954 170 290 170H330C341.046 170 350 161.046 350 150V110C350 98.9543 341.046 90 330 90H290ZM360 110C360 98.9543 368.954 90 380 90H420C431.046 90 440 98.9543 440 110V150C440 161.046 431.046 170 420 170H380C368.954 170 360 161.046 360 150V110ZM20 180C8.95431 180 0 188.954 0 200V240C0 251.046 8.95431 260 20 260H60C71.0457 260 80 251.046 80 240V200C80 188.954 71.0457 180 60 180H20ZM90 200C90 188.954 98.9543 180 110 180H150C161.046 180 170 188.954 170 200V240C170 251.046 161.046 260 150 260H110C98.9543 260 90 251.046 90 240V200ZM200 180C188.954 180 180 188.954 180 200V240C180 251.046 188.954 260 200 260H240C251.046 260 260 251.046 260 240V200C260 188.954 251.046 180 240 180H200ZM270 200C270 188.954 278.954 180 290 180H330C341.046 180 350 188.954 350 200V240C350 251.046 341.046 260 330 260H290C278.954 260 270 251.046 270 240V200ZM380 180C368.954 180 360 188.954 360 200V240C360 251.046 368.954 260 380 260H420C431.046 260 440 251.046 440 240V200C440 188.954 431.046 180 420 180H380ZM0 290C0 278.954 8.95431 270 20 270H60C71.0457 270 80 278.954 80 290V330C80 341.046 71.0457 350 60 350H20C8.95431 350 0 341.046 0 330V290ZM110 270C98.9543 270 90 278.954 90 290V330C90 341.046 98.9543 350 110 350H150C161.046 350 170 341.046 170 330V290C170 278.954 161.046 270 150 270H110ZM180 290C180 278.954 188.954 270 200 270H240C251.046 270 260 278.954 260 290V330C260 341.046 251.046 350 240 350H200C188.954 350 180 341.046 180 330V290ZM290 270C278.954 270 270 278.954 270 290V330C270 341.046 278.954 350 290 350H330C341.046 350 350 341.046 350 330V290C350 278.954 341.046 270 330 270H290ZM360 290C360 278.954 368.954 270 380 270H420C431.046 270 440 278.954 440 290V330C440 341.046 431.046 350 420 350H380C368.954 350 360 341.046 360 330V290ZM20 360C8.95431 360 0 368.954 0 380V420C0 431.046 8.95431 440 20 440H60C71.0457 440 80 431.046 80 420V380C80 368.954 71.0457 360 60 360H20ZM90 380C90 368.954 98.9543 360 110 360H150C161.046 360 170 368.954 170 380V420C170 431.046 161.046 440 150 440H110C98.9543 440 90 431.046 90 420V380ZM200 360C188.954 360 180 368.954 180 380V420C180 431.046 188.954 440 200 440H240C251.046 440 260 431.046 260 420V380C260 368.954 251.046 360 240 360H200ZM270 380C270 368.954 278.954 360 290 360H330C341.046 360 350 368.954 350 380V420C350 431.046 341.046 440 330 440H290C278.954 440 270 431.046 270 420V380ZM380 360C368.954 360 360 368.954 360 380V420C360 431.046 368.954 440 380 440H420C431.046 440 440 431.046 440 420V380C440 368.954 431.046 360 420 360H380Z" fill="url(#paint0_radial_276_2221)"/>
<rect x="91" y="91" width="258" height="258" rx="19" stroke="url(#paint1_linear_276_2221)" stroke-width="2"/>
<path d="M136.776 115.909V145H132.088L118.381 125.185H118.139V145H112.869V115.909H117.585L131.278 135.739H131.534V115.909H136.776ZM140.69 145V123.182H145.833V145H140.69ZM143.276 120.085C142.461 120.085 141.761 119.815 141.173 119.276C140.586 118.726 140.293 118.068 140.293 117.301C140.293 116.525 140.586 115.866 141.173 115.327C141.761 114.777 142.461 114.503 143.276 114.503C144.1 114.503 144.8 114.777 145.378 115.327C145.965 115.866 146.259 116.525 146.259 117.301C146.259 118.068 145.965 118.726 145.378 119.276C144.8 119.815 144.1 120.085 143.276 120.085ZM157.617 145.384C155.903 145.384 154.369 144.943 153.014 144.062C151.66 143.182 150.59 141.903 149.804 140.227C149.018 138.551 148.625 136.515 148.625 134.119C148.625 131.695 149.023 129.65 149.818 127.983C150.623 126.307 151.708 125.043 153.071 124.19C154.435 123.329 155.955 122.898 157.631 122.898C158.909 122.898 159.961 123.116 160.784 123.551C161.608 123.977 162.262 124.493 162.745 125.099C163.228 125.696 163.602 126.259 163.867 126.79H164.08V115.909H169.236V145H164.179V141.562H163.867C163.602 142.093 163.218 142.656 162.716 143.253C162.214 143.84 161.551 144.342 160.728 144.759C159.904 145.175 158.867 145.384 157.617 145.384ZM159.051 141.165C160.14 141.165 161.068 140.871 161.836 140.284C162.603 139.687 163.185 138.859 163.583 137.798C163.98 136.738 164.179 135.502 164.179 134.091C164.179 132.68 163.98 131.454 163.583 130.412C163.194 129.37 162.617 128.561 161.85 127.983C161.092 127.405 160.159 127.116 159.051 127.116C157.906 127.116 156.949 127.415 156.182 128.011C155.415 128.608 154.837 129.432 154.449 130.483C154.061 131.534 153.867 132.737 153.867 134.091C153.867 135.455 154.061 136.671 154.449 137.741C154.847 138.802 155.429 139.64 156.196 140.256C156.973 140.862 157.925 141.165 159.051 141.165ZM179.394 145.44C178.011 145.44 176.766 145.194 175.658 144.702C174.56 144.2 173.688 143.461 173.044 142.486C172.41 141.51 172.093 140.308 172.093 138.878C172.093 137.647 172.32 136.629 172.775 135.824C173.229 135.019 173.849 134.375 174.635 133.892C175.421 133.409 176.307 133.045 177.292 132.798C178.286 132.543 179.313 132.358 180.374 132.244C181.652 132.112 182.689 131.993 183.485 131.889C184.28 131.776 184.858 131.605 185.218 131.378C185.587 131.141 185.772 130.777 185.772 130.284V130.199C185.772 129.129 185.454 128.3 184.82 127.713C184.186 127.126 183.272 126.832 182.079 126.832C180.819 126.832 179.82 127.107 179.081 127.656C178.352 128.205 177.86 128.854 177.604 129.602L172.803 128.92C173.182 127.595 173.807 126.487 174.678 125.597C175.549 124.697 176.615 124.025 177.874 123.58C179.133 123.125 180.526 122.898 182.05 122.898C183.101 122.898 184.148 123.021 185.189 123.267C186.231 123.513 187.183 123.92 188.044 124.489C188.906 125.047 189.597 125.81 190.118 126.776C190.649 127.741 190.914 128.949 190.914 130.398V145H185.971V142.003H185.8C185.488 142.609 185.047 143.177 184.479 143.707C183.92 144.228 183.215 144.65 182.363 144.972C181.52 145.284 180.53 145.44 179.394 145.44ZM180.729 141.662C181.761 141.662 182.656 141.458 183.414 141.051C184.171 140.634 184.754 140.085 185.161 139.403C185.578 138.722 185.786 137.978 185.786 137.173V134.602C185.625 134.735 185.35 134.858 184.962 134.972C184.583 135.085 184.157 135.185 183.684 135.27C183.21 135.355 182.741 135.431 182.277 135.497C181.813 135.563 181.411 135.62 181.07 135.668C180.303 135.772 179.616 135.942 179.01 136.179C178.404 136.416 177.926 136.747 177.576 137.173C177.225 137.59 177.05 138.13 177.05 138.793C177.05 139.74 177.396 140.455 178.087 140.938C178.778 141.42 179.659 141.662 180.729 141.662ZM213.192 123.182L205.422 145H199.74L191.97 123.182H197.453L202.467 139.389H202.694L207.723 123.182H213.192ZM224.067 145.426C221.879 145.426 219.99 144.972 218.399 144.062C216.818 143.144 215.601 141.847 214.749 140.17C213.896 138.485 213.47 136.501 213.47 134.219C213.47 131.974 213.896 130.005 214.749 128.31C215.61 126.605 216.813 125.279 218.357 124.332C219.9 123.376 221.714 122.898 223.797 122.898C225.142 122.898 226.411 123.116 227.604 123.551C228.806 123.977 229.867 124.64 230.786 125.54C231.714 126.439 232.443 127.585 232.973 128.977C233.503 130.36 233.768 132.008 233.768 133.92V135.497H215.885V132.031H228.839C228.83 131.046 228.617 130.17 228.2 129.403C227.784 128.627 227.201 128.016 226.453 127.571C225.714 127.126 224.853 126.903 223.868 126.903C222.817 126.903 221.893 127.159 221.098 127.67C220.303 128.172 219.682 128.835 219.237 129.659C218.802 130.473 218.579 131.368 218.57 132.344V135.369C218.57 136.638 218.802 137.727 219.266 138.636C219.73 139.536 220.378 140.227 221.212 140.71C222.045 141.184 223.02 141.42 224.138 141.42C224.886 141.42 225.563 141.316 226.169 141.108C226.775 140.89 227.301 140.573 227.746 140.156C228.191 139.74 228.527 139.223 228.754 138.608L233.555 139.148C233.252 140.417 232.675 141.525 231.822 142.472C230.98 143.409 229.9 144.138 228.584 144.659C227.268 145.17 225.762 145.426 224.067 145.426ZM241.661 115.909V145H236.519V115.909H241.661ZM250.49 115.909V145H245.348V115.909H250.49ZM254.178 145V123.182H259.32V145H254.178ZM256.763 120.085C255.949 120.085 255.248 119.815 254.661 119.276C254.074 118.726 253.78 118.068 253.78 117.301C253.78 116.525 254.074 115.866 254.661 115.327C255.248 114.777 255.949 114.503 256.763 114.503C257.587 114.503 258.288 114.777 258.865 115.327C259.453 115.866 259.746 116.525 259.746 117.301C259.746 118.068 259.453 118.726 258.865 119.276C258.288 119.815 257.587 120.085 256.763 120.085ZM263.008 145V123.182H267.993V126.818H268.221C268.618 125.559 269.3 124.588 270.266 123.906C271.242 123.215 272.354 122.869 273.604 122.869C273.888 122.869 274.206 122.884 274.556 122.912C274.916 122.931 275.214 122.964 275.451 123.011V127.741C275.233 127.666 274.887 127.599 274.414 127.543C273.95 127.476 273.5 127.443 273.064 127.443C272.127 127.443 271.284 127.647 270.536 128.054C269.797 128.452 269.215 129.006 268.789 129.716C268.363 130.426 268.15 131.245 268.15 132.173V145H263.008Z" fill="white"/>
<path d="M112.642 164H110.392L114.489 152.364H117.091L121.193 164H118.943L115.835 154.75H115.744L112.642 164ZM112.716 159.438H118.852V161.131H112.716V159.438ZM124.052 152.364V164H121.995V152.364H124.052ZM129.322 167.455C128.584 167.455 127.949 167.354 127.419 167.153C126.889 166.956 126.462 166.691 126.14 166.358C125.818 166.025 125.595 165.655 125.47 165.25L127.322 164.801C127.406 164.972 127.527 165.14 127.686 165.307C127.845 165.477 128.059 165.617 128.328 165.727C128.601 165.841 128.943 165.898 129.356 165.898C129.94 165.898 130.423 165.756 130.805 165.472C131.188 165.191 131.379 164.729 131.379 164.085V162.432H131.277C131.171 162.644 131.015 162.862 130.811 163.085C130.61 163.309 130.343 163.496 130.01 163.648C129.68 163.799 129.265 163.875 128.765 163.875C128.095 163.875 127.487 163.718 126.942 163.403C126.4 163.085 125.968 162.612 125.646 161.983C125.328 161.35 125.169 160.559 125.169 159.608C125.169 158.65 125.328 157.841 125.646 157.182C125.968 156.519 126.402 156.017 126.947 155.676C127.493 155.331 128.101 155.159 128.771 155.159C129.283 155.159 129.703 155.246 130.033 155.42C130.366 155.591 130.631 155.797 130.828 156.04C131.025 156.278 131.175 156.504 131.277 156.716H131.39V155.273H133.419V164.142C133.419 164.888 133.241 165.506 132.885 165.994C132.529 166.483 132.042 166.848 131.425 167.091C130.807 167.333 130.106 167.455 129.322 167.455ZM129.339 162.261C129.775 162.261 130.146 162.155 130.453 161.943C130.76 161.731 130.993 161.426 131.152 161.028C131.311 160.631 131.39 160.153 131.39 159.597C131.39 159.047 131.311 158.566 131.152 158.153C130.997 157.741 130.765 157.42 130.459 157.193C130.156 156.962 129.783 156.847 129.339 156.847C128.881 156.847 128.498 156.966 128.192 157.205C127.885 157.443 127.654 157.771 127.498 158.188C127.343 158.6 127.265 159.07 127.265 159.597C127.265 160.131 127.343 160.598 127.498 161C127.658 161.398 127.89 161.708 128.197 161.932C128.508 162.152 128.889 162.261 129.339 162.261ZM138.694 164.17C137.841 164.17 137.103 163.983 136.478 163.608C135.853 163.233 135.368 162.708 135.023 162.034C134.682 161.36 134.512 160.572 134.512 159.67C134.512 158.769 134.682 157.979 135.023 157.301C135.368 156.623 135.853 156.097 136.478 155.722C137.103 155.347 137.841 155.159 138.694 155.159C139.546 155.159 140.285 155.347 140.91 155.722C141.535 156.097 142.018 156.623 142.358 157.301C142.703 157.979 142.875 158.769 142.875 159.67C142.875 160.572 142.703 161.36 142.358 162.034C142.018 162.708 141.535 163.233 140.91 163.608C140.285 163.983 139.546 164.17 138.694 164.17ZM138.705 162.523C139.167 162.523 139.553 162.396 139.864 162.142C140.175 161.884 140.406 161.54 140.557 161.108C140.713 160.676 140.79 160.195 140.79 159.665C140.79 159.131 140.713 158.648 140.557 158.216C140.406 157.78 140.175 157.434 139.864 157.176C139.553 156.919 139.167 156.79 138.705 156.79C138.232 156.79 137.838 156.919 137.523 157.176C137.213 157.434 136.98 157.78 136.824 158.216C136.673 158.648 136.597 159.131 136.597 159.665C136.597 160.195 136.673 160.676 136.824 161.108C136.98 161.54 137.213 161.884 137.523 162.142C137.838 162.396 138.232 162.523 138.705 162.523ZM143.981 164V155.273H145.976V156.727H146.066C146.226 156.223 146.498 155.835 146.885 155.562C147.275 155.286 147.72 155.148 148.22 155.148C148.333 155.148 148.46 155.153 148.601 155.165C148.744 155.172 148.864 155.186 148.958 155.205V157.097C148.871 157.066 148.733 157.04 148.544 157.017C148.358 156.991 148.178 156.977 148.004 156.977C147.629 156.977 147.292 157.059 146.993 157.222C146.697 157.381 146.464 157.602 146.294 157.886C146.123 158.17 146.038 158.498 146.038 158.869V164H143.981ZM149.685 164V155.273H151.742V164H149.685ZM150.719 154.034C150.393 154.034 150.113 153.926 149.878 153.71C149.643 153.491 149.526 153.227 149.526 152.92C149.526 152.61 149.643 152.347 149.878 152.131C150.113 151.911 150.393 151.801 150.719 151.801C151.049 151.801 151.329 151.911 151.56 152.131C151.795 152.347 151.912 152.61 151.912 152.92C151.912 153.227 151.795 153.491 151.56 153.71C151.329 153.926 151.049 154.034 150.719 154.034ZM157.575 155.273V156.864H152.558V155.273H157.575ZM153.796 153.182H155.853V161.375C155.853 161.652 155.895 161.864 155.978 162.011C156.065 162.155 156.179 162.254 156.319 162.307C156.459 162.36 156.615 162.386 156.785 162.386C156.914 162.386 157.031 162.377 157.137 162.358C157.247 162.339 157.33 162.322 157.387 162.307L157.734 163.915C157.624 163.953 157.467 163.994 157.262 164.04C157.062 164.085 156.815 164.112 156.524 164.119C156.008 164.134 155.544 164.057 155.132 163.886C154.719 163.712 154.391 163.443 154.149 163.08C153.91 162.716 153.793 162.261 153.796 161.716V153.182ZM160.899 158.886V164H158.842V152.364H160.854V156.756H160.956C161.161 156.263 161.477 155.875 161.905 155.591C162.337 155.303 162.886 155.159 163.553 155.159C164.159 155.159 164.687 155.286 165.138 155.54C165.589 155.794 165.937 156.165 166.183 156.653C166.433 157.142 166.558 157.739 166.558 158.443V164H164.502V158.761C164.502 158.174 164.35 157.718 164.047 157.392C163.748 157.062 163.327 156.898 162.786 156.898C162.422 156.898 162.096 156.977 161.808 157.136C161.524 157.292 161.301 157.517 161.138 157.812C160.979 158.108 160.899 158.466 160.899 158.886ZM168.015 164V155.273H169.981V156.756H170.083C170.265 156.256 170.566 155.866 170.987 155.585C171.407 155.301 171.909 155.159 172.492 155.159C173.083 155.159 173.581 155.303 173.987 155.591C174.396 155.875 174.684 156.263 174.85 156.756H174.941C175.134 156.271 175.46 155.884 175.918 155.597C176.38 155.305 176.928 155.159 177.56 155.159C178.363 155.159 179.019 155.413 179.526 155.92C180.034 156.428 180.288 157.169 180.288 158.142V164H178.225V158.46C178.225 157.919 178.081 157.523 177.793 157.273C177.505 157.019 177.153 156.892 176.737 156.892C176.24 156.892 175.852 157.047 175.572 157.358C175.295 157.665 175.157 158.064 175.157 158.557V164H173.14V158.375C173.14 157.924 173.004 157.564 172.731 157.295C172.462 157.027 172.11 156.892 171.674 156.892C171.379 156.892 171.11 156.968 170.867 157.119C170.625 157.267 170.432 157.477 170.288 157.75C170.144 158.019 170.072 158.333 170.072 158.693V164H168.015Z" fill="white" fill-opacity="0.64"/>
<defs>
<radialGradient id="paint0_radial_276_2221" cx="0" cy="0" r="1" gradientUnits="userSpaceOnUse" gradientTransform="translate(390.5 66.5) rotate(141.699) scale(518.872 186.7)">
<stop stop-color="#D7E3FF"/>
<stop offset="0.4061" stop-color="#1D5AE3"/>
<stop offset="0.591992" stop-color="#0B1F4B"/>
<stop offset="1"/>
</radialGradient>
<linearGradient id="paint1_linear_276_2221" x1="395.5" y1="23.5" x2="30.1881" y2="331.158" gradientUnits="userSpaceOnUse">
<stop stop-color="white"/>
<stop offset="0.685729" stop-color="white" stop-opacity="0"/>
<stop offset="0.839682" stop-color="white"/>
</linearGradient>
</defs>
</svg>
