<svg width="61" height="60" viewBox="0 0 61 60" fill="none" xmlns="http://www.w3.org/2000/svg">
<rect x="0.833374" width="60" height="60" rx="30" fill="url(#paint0_radial_276_5921)" fill-opacity="0.8"/>
<rect x="1.33337" y="0.5" width="59" height="59" rx="29.5" stroke="#B7CDFF" stroke-opacity="0.32"/>
<path d="M38.3334 18.75H45.8334" stroke="#D7E3FF" stroke-width="1.5" stroke-linecap="round" stroke-linejoin="round"/>
<path d="M42.0834 15V22.5" stroke="#D7E3FF" stroke-width="1.5" stroke-linecap="round" stroke-linejoin="round"/>
<path d="M15.6754 43.7485C17.2122 41.0885 19.422 38.8797 22.0827 37.344C24.7435 35.8084 27.7615 35 30.8336 35C33.9056 35 36.9236 35.8085 39.5843 37.3442C42.245 38.8799 44.4548 41.0888 45.9915 43.7489" stroke="#D7E3FF" stroke-width="1.5" stroke-linecap="round" stroke-linejoin="round"/>
<path d="M40.2163 28.4661C39.5479 30.2709 38.3726 31.8443 36.8316 32.9973C35.2906 34.1504 33.4495 34.834 31.5294 34.966C29.6093 35.098 27.692 34.6729 26.0076 33.7416C24.3233 32.8103 22.9437 31.4126 22.0345 29.7163C21.1253 28.0199 20.7253 26.0972 20.8824 24.179C21.0394 22.2608 21.747 20.4288 22.9201 18.903C24.0931 17.3771 25.6818 16.2225 27.4951 15.5777C29.3085 14.9328 31.2695 14.8253 33.1425 15.2679" stroke="#D7E3FF" stroke-width="1.5" stroke-linecap="round" stroke-linejoin="round"/>
<defs>
<radialGradient id="paint0_radial_276_5921" cx="0" cy="0" r="1" gradientUnits="userSpaceOnUse" gradientTransform="translate(30.8334) rotate(90) scale(60)">
<stop offset="0.316464"/>
<stop offset="0.823625" stop-color="#1D5AE3"/>
<stop offset="1" stop-color="#437EFF"/>
</radialGradient>
</defs>
</svg>
