<svg width="375" height="415" viewBox="0 0 375 415" fill="none" xmlns="http://www.w3.org/2000/svg">
<g clip-path="url(#clip0_276_6026)">
<rect y="-8" width="375" height="423" fill="#151515"/>
<rect y="-8" width="375" height="423" fill="url(#paint0_diamond_276_6026)"/>
<path fill-rule="evenodd" clip-rule="evenodd" d="M20.0612 256.839L20.0621 256.848L21.8175 253.44L23.5726 250.029L25.328 246.617L27.0833 243.21L28.8386 239.799L30.594 236.387L32.3493 232.98L34.1047 229.568L35.8599 226.157L37.6153 222.745L39.3706 219.338L41.1259 215.926L42.8813 212.515L44.6366 209.107L46.346 205.785H66.1181L64.9121 208.516L63.4075 211.928L61.903 215.339L60.3984 218.746L58.8938 222.158L57.3893 225.57L55.8847 228.981L54.3802 232.388L52.8756 235.8L51.3711 239.212L49.8665 242.619L48.3619 246.03L46.8574 249.442L45.3528 252.849L43.8483 256.261L43.8493 256.27L43.8515 256.287L43.8526 256.296L43.856 256.323L43.857 256.332L43.8593 256.349L43.8603 256.358L43.8626 256.376L43.8637 256.389L43.8647 256.398L43.867 256.416L43.868 256.425L43.8714 256.452L43.8724 256.461L43.8747 256.478L43.8757 256.487L43.878 256.505L43.879 256.514L43.8824 256.541L43.8834 256.549L43.8857 256.567L43.8867 256.576L43.8901 256.603L43.8911 256.612L43.8923 256.62L43.8934 256.634L43.8944 256.643L43.8978 256.669L43.8989 256.678L43.9011 256.696L43.9022 256.705L43.9055 256.732L43.9066 256.74L43.9088 256.758L43.9099 256.767L43.9133 256.794L43.9143 256.803L43.9166 256.82L43.9176 256.829L43.9187 256.838L45.4233 253.431L46.9278 250.019L48.4324 246.608L49.9369 243.201L51.4415 239.789L52.9461 236.377L54.4506 232.97L55.9553 229.559L57.4598 226.147L58.9644 222.74L60.469 219.328L61.9735 215.917L63.4781 212.509L64.9826 209.098L66.4437 205.785H86.2594L85.2491 208.53L83.9953 211.942L82.7415 215.353L81.4877 218.76L80.2339 222.172L78.9801 225.584L77.7263 228.991L76.4725 232.402L75.2187 235.814L73.9649 239.221L72.711 242.633L71.4573 246.044L70.2034 249.456L68.9497 252.863L67.6958 256.275L67.6972 256.284L67.7009 256.31L67.7022 256.319L67.7047 256.337L67.706 256.341L67.7097 256.368L67.711 256.377L67.7135 256.395L67.7149 256.404L67.7173 256.421L67.7187 256.43L67.7224 256.457L67.7237 256.466L67.7262 256.484L67.7275 256.492L67.7287 256.501L67.73 256.506L67.7312 256.515L67.7325 256.524L67.735 256.541L67.7363 256.55L67.7388 256.568L67.7402 256.577L67.7439 256.603L67.7452 256.612L67.7477 256.63L67.749 256.639L67.7527 256.666L67.754 256.67L67.7565 256.688L67.7578 256.697L67.7615 256.723L67.7629 256.732L67.7654 256.75L67.7667 256.759L67.7692 256.777L67.7705 256.786L67.7742 256.812L67.7755 256.821L67.7768 256.83L69.0305 253.418L70.2844 250.007L71.5381 246.6L72.792 243.188L74.0457 239.776L75.2996 236.365L76.5533 232.958L77.8072 229.546L79.061 226.134L80.3148 222.727L81.5686 219.316L82.8224 215.904L84.0762 212.497L85.33 209.085L86.543 205.785H106.398L105.585 208.552L104.582 211.964L103.579 215.371L102.576 218.783L101.572 222.194L100.569 225.602L99.5664 229.013L98.5634 232.425L97.5604 235.832L96.5573 239.243L95.5543 242.655L94.5512 246.062L93.5482 249.474L92.5452 252.885L91.542 256.293L91.5435 256.301L91.545 256.31L91.5479 256.328L91.5493 256.333L91.5509 256.341L91.5552 256.368L91.5566 256.373L91.5582 256.381L91.5596 256.39L91.5625 256.408L91.5641 256.413L91.5684 256.439L91.5699 256.448L91.5714 256.457L91.5728 256.461L91.5742 256.47L91.5758 256.479L91.5787 256.497L91.5801 256.501L91.5815 256.51L91.5831 256.519L91.586 256.537L91.5874 256.541L91.5889 256.55L91.5933 256.577L91.5948 256.581L91.5977 256.599L91.6006 256.617L91.6021 256.621L91.6064 256.648L91.608 256.657L91.6094 256.661L91.6123 256.679L91.6138 256.688L91.6167 256.706L91.6182 256.71L91.6197 256.719L91.624 256.746L91.6255 256.75L91.627 256.759L91.6313 256.786L91.6329 256.79L91.6357 256.808L92.6387 253.396L93.6419 249.989L94.6449 246.578L95.648 243.166L96.651 239.759L97.654 236.347L98.6571 232.936L99.6601 229.528L100.663 226.117L101.666 222.705L102.669 219.294L103.672 215.886L104.675 212.475L105.678 209.063L106.643 205.785H126.536L125.919 208.583L125.167 211.99L124.414 215.402L123.662 218.813L122.91 222.225L122.157 225.632L121.405 229.044L120.653 232.455L119.901 235.863L119.148 239.274L118.396 242.686L117.644 246.093L116.892 249.505L116.139 252.916L115.387 256.323L115.39 256.341L115.392 256.346L115.394 256.354L115.396 256.359L115.397 256.368L115.399 256.372L115.401 256.381L115.402 256.39L115.404 256.394L115.406 256.403L115.407 256.408L115.409 256.417L115.411 256.426L115.413 256.43L115.414 256.439L115.416 256.443L115.418 256.452L115.419 256.461L115.421 256.465L115.423 256.474L115.425 256.479L115.426 256.488L115.428 256.492L115.43 256.501L115.431 256.51L115.433 256.514L115.435 256.523L115.437 256.528L115.438 256.537L115.44 256.545L115.442 256.55L115.443 256.559L115.445 256.563L115.447 256.572L115.449 256.581L115.45 256.585L115.452 256.594L115.454 256.599L115.455 256.608L115.457 256.612L115.461 256.63L115.462 256.634L115.464 256.643L115.466 256.648L115.467 256.656L115.469 256.665L115.471 256.67L115.472 256.679L115.474 256.683L115.476 256.692L115.478 256.701L115.479 256.705L115.481 256.714L115.483 256.719L115.485 256.728L115.486 256.732L115.488 256.741L115.49 256.75L115.491 256.754L115.493 256.763L115.495 256.768L115.496 256.776L116.249 253.365L117.001 249.958L117.753 246.546L118.506 243.134L119.258 239.727L120.01 236.316L120.762 232.904L121.515 229.497L122.267 226.085L123.019 222.674L123.772 219.267L124.524 215.855L126.028 209.032L126.745 205.785H146.671L146.253 208.633L145.751 212.044L145.249 215.451L144.748 218.863L144.246 222.275L143.745 225.686L143.243 229.093L142.741 232.505L142.24 235.916L141.738 239.324L141.236 242.735L140.736 246.147L140.234 249.554L139.733 252.966L139.231 256.377L139.237 256.391L139.239 256.399L139.245 256.413L139.246 256.422L139.255 256.439L139.257 256.448L139.263 256.462L139.265 256.47L139.271 256.484L139.273 256.493L139.279 256.506L139.28 256.515L139.286 256.528L139.288 256.537L139.297 256.555L139.299 256.564L139.305 256.577L139.307 256.586L139.311 256.595L139.314 256.608L139.32 256.622L139.322 256.63L139.324 256.635L139.331 256.648L139.333 256.657L139.339 256.67L139.341 256.679L139.345 256.688L139.348 256.701L139.35 256.706L139.354 256.715L139.356 256.724L139.358 256.728L139.86 253.317L140.361 249.905L140.863 246.498L141.365 243.086L141.866 239.675L142.368 236.267L142.869 232.856L143.371 229.444L143.873 226.037L144.373 222.625L144.875 219.214L145.377 215.807L145.878 212.395L146.38 208.983L146.85 205.785H166.8L166.586 208.707L166.335 212.119L166.084 215.531L165.833 218.938L165.331 225.761L165.081 229.168L164.83 232.58L164.579 235.991L164.328 239.398L164.077 242.81L163.827 246.222L163.577 249.633L163.326 253.04L163.075 256.452L163.077 256.456H163.08L163.084 256.465H163.086L163.088 256.47L163.091 256.474H163.093L163.095 256.479L163.099 256.488H163.102L163.106 256.496H163.109L163.113 256.505H163.116L163.122 256.519H163.124L163.127 256.523L163.129 256.528H163.131L163.135 256.536H163.138L163.142 256.545H163.145L163.147 256.55L163.15 256.554L163.152 256.559H163.154L163.158 256.568H163.161L163.165 256.576H163.167L163.169 256.581L163.172 256.585L163.174 256.59H163.176L163.181 256.599H163.184L163.188 256.607H163.19L163.192 256.612L163.195 256.616L163.197 256.621H163.199L163.203 256.63H163.206L163.21 256.639H163.212L163.217 256.648H163.22L163.47 253.24L163.721 249.829L163.971 246.417L164.222 243.01L164.473 239.598L164.724 236.187L164.974 232.78L165.225 229.368L165.476 225.956L165.727 222.549L165.978 219.138L166.228 215.726L166.479 212.319L166.73 208.907L166.96 205.785H186.924V256.55H187.076V205.785H207.04L207.27 208.907L207.521 212.319L207.771 215.726L208.022 219.138L208.273 222.549L208.523 225.956L208.774 229.368L209.025 232.78L209.275 236.187L209.526 239.598L209.777 243.01L210.028 246.417L210.279 249.829L210.529 253.24L210.78 256.648H210.782L210.785 256.643L210.787 256.639H210.789L210.793 256.63H210.796L210.801 256.621H210.803L210.805 256.616L210.808 256.612L210.81 256.607H210.812L210.816 256.599H210.819L210.823 256.59H210.825L210.829 256.581L210.832 256.576H210.835L210.839 256.568H210.841L210.844 256.563L210.846 256.559H210.848L210.852 256.55L210.855 256.545H210.857L210.861 256.536H210.863L210.866 256.532L210.868 256.528H210.871L210.875 256.519H210.878L210.884 256.505H210.886L210.889 256.501L210.891 256.496H210.893L210.897 256.488H210.9L210.907 256.474H210.909L210.912 256.47L210.914 256.465H210.916L210.92 256.456H210.922L210.925 256.452L210.674 253.04L210.423 249.633L210.172 246.222L209.921 242.81L209.671 239.398L209.42 235.991L209.169 232.58L208.918 229.168L208.667 225.761L208.418 222.349L208.167 218.938L207.916 215.531L207.665 212.119L207.414 208.707L207.199 205.785H227.15L227.62 208.983L228.122 212.395L228.624 215.807L229.125 219.214L229.626 222.625L230.127 226.037L230.629 229.444L231.131 232.856L231.632 236.267L232.134 239.675L232.635 243.086L233.137 246.498L233.639 249.905L234.14 253.317L234.641 256.728L234.644 256.724L234.646 256.715L234.652 256.701L234.654 256.693L234.656 256.688L234.657 256.684L234.659 256.679L234.661 256.67L234.665 256.661L234.667 256.657L234.669 256.648L234.677 256.63L234.68 256.622L234.684 256.613L234.686 256.608L234.688 256.599L234.69 256.595L234.691 256.59L234.693 256.586L234.695 256.577L234.701 256.564L234.703 256.555L234.709 256.542L234.711 256.537L234.713 256.528L234.716 256.524L234.718 256.519L234.72 256.515L234.722 256.506L234.724 256.502L234.725 256.497L234.727 256.493L234.729 256.484L234.735 256.47L234.737 256.462L234.741 256.453L234.743 256.448L234.745 256.439L234.754 256.422L234.757 256.408L234.761 256.399L234.763 256.391L234.767 256.382L234.769 256.377L234.268 252.966L233.766 249.554L233.264 246.147L232.763 242.735L232.262 239.324L231.76 235.916L231.259 232.505L230.757 229.093L230.256 225.686L229.754 222.275L229.252 218.863L228.751 215.451L228.249 212.044L227.748 208.633L227.329 205.785H247.255L247.971 209.032L248.724 212.443L249.476 215.855L250.229 219.267L250.98 222.674L251.733 226.085L252.485 229.497L253.237 232.904L253.99 236.316L254.742 239.727L255.495 243.134L256.246 246.546L256.999 249.958L257.751 253.365L258.503 256.776L258.505 256.768L258.507 256.763L258.508 256.754L258.51 256.75L258.512 256.741L258.513 256.732L258.515 256.728L258.521 256.705L258.523 256.701L258.524 256.692L258.526 256.683L258.528 256.679L258.529 256.67L258.531 256.665L258.533 256.656L258.534 256.648L258.536 256.643L258.546 256.599L258.548 256.594L258.549 256.585L258.551 256.581L258.553 256.572L258.554 256.563L258.556 256.559L258.567 256.514L258.569 256.51L258.57 256.501L258.572 256.492L258.574 256.488L258.575 256.479L258.577 256.474L258.587 256.43L258.589 256.426L258.59 256.417L258.592 256.408L258.595 256.403L258.596 256.394L258.598 256.39L258.6 256.381L258.601 256.372L258.603 256.368L258.608 256.346L258.61 256.341L258.611 256.332L258.613 256.323L257.861 252.916L257.108 249.505L256.357 246.093L255.604 242.686L254.852 239.274L254.099 235.863L253.347 232.455L252.594 229.044L251.842 225.632L251.091 222.225L250.338 218.813L249.586 215.402L248.833 211.99L248.081 208.583L247.464 205.785H267.356L268.321 209.063L269.324 212.475L270.328 215.886L271.331 219.294L273.336 226.117L274.34 229.528L275.343 232.936L276.346 236.347L277.348 239.759L278.352 243.166L279.355 246.578L280.358 249.989L281.361 253.396L282.364 256.808L282.366 256.79L282.368 256.786L282.37 256.777L282.372 256.768L282.374 256.75L282.376 256.746L282.377 256.737L282.379 256.728L282.38 256.719L282.382 256.71L282.383 256.706L282.384 256.697L282.386 256.688L282.387 256.679L282.389 256.67L282.39 256.661L282.392 256.657L282.394 256.639L282.396 256.63L282.397 256.621L282.399 256.617L282.4 256.608L282.402 256.599L282.404 256.581L282.407 256.577L282.408 256.568L282.41 256.559L282.411 256.55L282.414 256.537L282.415 256.528L282.417 256.519L282.418 256.51L282.421 256.497L282.422 256.488L282.424 256.479L282.425 256.47L282.43 256.448L282.432 256.43L282.434 256.421L282.435 256.413L282.437 256.408L282.438 256.399L282.44 256.39L282.443 256.373L282.445 256.368L282.446 256.359L282.448 256.35L282.449 256.341L282.452 256.328L282.453 256.319L282.455 256.31L282.456 256.301L282.458 256.293L281.454 252.885L280.451 249.474L279.449 246.062L278.446 242.655L277.442 239.243L276.439 235.832L275.436 232.425L273.431 225.602L272.427 222.194L270.421 215.371L269.419 211.964L268.415 208.552L267.601 205.785H287.457L289.924 212.497L291.178 215.904L292.431 219.316L293.685 222.727L294.939 226.134L296.193 229.546L297.447 232.958L298.7 236.365L301.208 243.188L302.462 246.6L303.715 250.007L304.969 253.418L306.223 256.83L306.225 256.821L306.228 256.794L306.23 256.786L306.234 256.75L306.236 256.741L306.239 256.715L306.241 256.706L306.243 256.688L306.244 256.679L306.247 256.666L306.251 256.639L306.253 256.63L306.256 256.603L306.258 256.595L306.262 256.559L306.264 256.55L306.267 256.524L306.269 256.515L306.27 256.506L306.271 256.501L306.272 256.492L306.274 256.484L306.278 256.448L306.28 256.439L306.283 256.412L306.285 256.404L306.289 256.377L306.291 256.368L306.294 256.341L306.295 256.337L306.297 256.328L306.3 256.301L306.302 256.293L306.304 256.275L305.05 252.863L303.797 249.456L302.543 246.044L301.289 242.633L300.035 239.221L298.781 235.814L297.528 232.402L296.274 228.991L295.02 225.584L292.513 218.76L291.258 215.353L290.004 211.942L288.75 208.53L287.74 205.785H307.556L309.017 209.098L310.522 212.509L312.027 215.917L313.531 219.328L315.035 222.74L316.54 226.147L318.044 229.559L319.549 232.97L321.054 236.377L322.559 239.789L324.063 243.201L325.567 246.608L327.072 250.019L328.576 253.431L330.081 256.838L330.087 256.785L330.089 256.776L330.103 256.66L330.105 256.652L330.106 256.643L330.107 256.634L330.108 256.62L330.118 256.532L330.12 256.523L330.13 256.434L330.131 256.425L330.133 256.407L330.136 256.398L330.137 256.389L330.138 256.376L330.149 256.278L330.151 256.27L330.152 256.261L328.647 252.849L327.143 249.442L325.638 246.03L324.133 242.619L322.628 239.212L321.124 235.8L319.62 232.388L318.115 228.981L316.611 225.57L315.106 222.158L313.601 218.746L312.096 215.339L310.592 211.928L309.088 208.516L307.882 205.785H327.654L329.363 209.107L331.119 212.515L332.875 215.926L334.629 219.338L336.385 222.745L338.141 226.157L339.895 229.568L341.651 232.98L343.406 236.387L345.161 239.799L346.917 243.21L348.672 246.617L350.427 250.029L352.183 253.44L353.938 256.848V256.839L353.94 256.821L353.941 256.812L353.946 256.777L353.947 256.763L353.956 256.683V256.67L353.965 256.59L353.966 256.577L353.967 256.568L353.973 256.514V256.506L353.975 256.488L353.976 256.475L353.986 256.395L353.987 256.381L353.99 256.355V256.346L353.992 256.328L353.993 256.319L353.995 256.301L353.996 256.288L354 256.252L352.244 252.841L350.49 249.434L348.734 246.022L346.978 242.61L345.224 239.203L343.468 235.792L341.713 232.38L339.958 228.973L338.202 225.561L336.447 222.15L334.692 218.743L332.936 215.331L331.181 211.919L329.426 208.512L328.022 205.785H347.766V205.132H327.686L325.915 201.689L324.16 198.277L322.404 194.87L320.649 191.459L318.894 188.047L317.138 184.64L315.383 181.228L313.628 177.817L311.872 174.409L310.117 170.998L308.883 168.599H325.891V167.946H308.547L308.362 167.586L306.606 164.179L304.851 160.767L303.096 157.356L301.34 153.949L299.585 150.537L297.83 147.126L296.074 143.718L294.326 140.32H309.254V139.667H293.99L292.564 136.895L290.809 133.484L289.053 130.076L287.298 126.665L285.543 123.253L283.787 119.846L282.884 118.091H296.179V117.438H282.549L282.032 116.434L280.277 113.023L278.521 109.616L276.766 106.204L275.011 102.792L273.653 100.158H285.629V99.501H273.314L273.255 99.3853L271.5 95.9737L269.745 92.5621L267.989 89.1549L266.234 85.7433L266.049 85.3835H276.938V84.7305H265.713L264.479 82.3317L262.723 78.9245L260.968 75.513L259.676 73.0022H269.655V72.3496H259.34L259.213 72.1014L257.457 68.6898L255.702 65.2826L254.258 62.4753H263.464V61.8223H253.922L252.191 58.4612L250.436 55.0509L249.596 53.4185H258.135V52.7646H249.259L248.681 51.6411L246.925 48.2308L245.541 45.5406H253.501V44.8867H245.204L245.17 44.8205L241.659 38L241.656 38.028V38.0373L241.654 38.056L241.653 38.0653L241.651 38.0839L241.639 38.1959V38.2052L241.628 38.2985L241.627 38.3078L241.621 38.3638V38.3731L241.608 38.4944L241.607 38.5033L241.605 38.522V38.5313L241.603 38.5499L241.602 38.5593L241.597 38.5966L243.353 42.0068L244.835 44.8867H236.894L236.868 44.8284L235.365 41.4181L233.86 38.0078L233.859 38.0171L233.858 38.026L233.856 38.0354L233.854 38.0531L233.853 38.0624L233.852 38.0713L233.851 38.0807L233.849 38.0984L233.848 38.1078L233.845 38.1255L233.844 38.1349L233.843 38.1438L233.842 38.1531L233.84 38.1619L233.839 38.1708L233.838 38.1802L233.837 38.1891L233.836 38.1984L233.834 38.2161L233.833 38.2255L233.831 38.2433L233.83 38.2526L233.829 38.2615L233.828 38.2708L233.827 38.2797L233.825 38.2886L233.824 38.2979L233.823 38.3068L233.822 38.3161L233.82 38.3339L233.819 38.3432L233.818 38.3521L233.817 38.361L233.816 38.3703L233.815 38.3792L233.814 38.3885L233.812 38.4063L233.809 38.4156L233.808 38.4245L233.807 38.4338L233.805 38.4516L233.804 38.4609L233.802 38.4787L233.801 38.488L233.8 38.4969L233.799 38.5062L233.797 38.524L233.796 38.5333L233.794 38.5422L233.793 38.5515L233.792 38.5604L233.791 38.5693L233.79 38.5786L233.789 38.5875L235.294 41.9978L236.568 44.8867H228.585L228.568 44.842L227.314 41.4318L226.061 38.0215L226.06 38.0304L226.059 38.0388L226.057 38.0477L226.056 38.0561L226.055 38.065L226.054 38.0735L226.051 38.0824L226.05 38.0908L226.049 38.0997L226.048 38.1081L226.046 38.117L226.045 38.1254L226.044 38.1343L226.043 38.1428L226.042 38.1517L226.04 38.1601L226.039 38.169L226.038 38.1774L226.037 38.1863L226.035 38.1947L226.034 38.2032L226.033 38.2121L226.032 38.2205L226.03 38.2294L226.029 38.2378L226.028 38.2467L226.027 38.2551L226.026 38.264L226.024 38.2725L226.023 38.2814L226.022 38.2898L226.021 38.2987L226.019 38.3071L226.018 38.316L226.016 38.3244L226.015 38.3333L226.014 38.3418L226.012 38.3507L226.011 38.3591L226.01 38.368L226.009 38.3764L226.007 38.3853L226.006 38.3937L226.005 38.4026L226.004 38.4111L226.002 38.4195L226.001 38.4284L226 38.4368L225.999 38.4457L225.998 38.4542L225.996 38.463L225.995 38.4715L225.994 38.4804L225.993 38.4888L225.991 38.4977L225.99 38.5061L225.989 38.515L225.988 38.5235L225.986 38.5323L225.985 38.5408L225.984 38.5497L225.983 38.5581L225.982 38.567L225.979 38.5754L227.233 41.9857L228.3 44.8867H220.276L220.269 44.8625L219.266 41.4523L218.263 38.042L218.261 38.05L218.26 38.058L218.258 38.066L218.257 38.074L218.255 38.082L218.253 38.098L218.251 38.106L218.25 38.114L218.248 38.1224L218.247 38.1304L218.245 38.1384L218.243 38.1544L218.241 38.1624L218.24 38.1704L218.238 38.1784L218.237 38.1864L218.235 38.1944L218.233 38.2103L218.231 38.2183L218.23 38.2263L218.228 38.2343L218.227 38.2423L218.224 38.2503L218.223 38.2583L218.222 38.2668L218.22 38.2748L218.219 38.2828L218.217 38.2908L218.215 38.3068L218.213 38.3147L218.212 38.3227L218.21 38.3307L218.209 38.3387L218.207 38.3467L218.205 38.3627L218.203 38.3707L218.202 38.3787L218.2 38.3867L218.199 38.3947L218.197 38.4027L218.196 38.4111L218.195 38.4191L218.193 38.4271L218.192 38.4351L218.189 38.4431L218.188 38.4511L218.186 38.4591L218.184 38.4751L218.182 38.4831L218.181 38.4911L218.179 38.4991L218.178 38.5071L218.176 38.5151L218.174 38.5311L218.172 38.5391L218.171 38.5471L218.169 38.5555L219.173 41.9653L220.032 44.8867H211.97L211.219 41.4825L210.466 38.0723L210.465 38.0794L210.461 38.0936L210.46 38.1007L210.456 38.1149L210.455 38.122L210.453 38.1287L210.451 38.1358L210.45 38.1429L210.446 38.1571L210.445 38.1642L210.441 38.1784L210.44 38.1855L210.438 38.1922L210.437 38.1993L210.433 38.2135L210.432 38.2207L210.427 38.2349L210.426 38.242L210.424 38.2491L210.422 38.2557L210.421 38.2628L210.419 38.2699L210.417 38.277L210.416 38.2842L210.412 38.2984L210.411 38.3055L210.409 38.3126L210.407 38.3193L210.406 38.3264L210.402 38.3406L210.401 38.3477L210.397 38.3619L210.396 38.369L210.393 38.3761L210.391 38.3828L210.39 38.3899L210.386 38.4041L210.385 38.4112L210.381 38.4254L210.38 38.4325L210.378 38.4396L210.376 38.4463L210.375 38.4534L210.371 38.4676L210.37 38.4747L210.366 38.4889L210.365 38.4961L210.363 38.5032L210.361 38.5098L210.36 38.5169L210.357 38.524L211.109 41.9343L211.761 44.8867H203.667L203.173 41.5333L202.672 38.123L202.67 38.1288L202.666 38.1395L202.664 38.1453L202.66 38.1559L202.658 38.1617L202.654 38.1723L202.652 38.1781L202.65 38.1835L202.648 38.1892L202.644 38.1999L202.641 38.2057L202.64 38.211L202.638 38.2163L202.636 38.2221L202.632 38.2328L202.63 38.2385L202.628 38.2439L202.626 38.2496L202.622 38.2603L202.62 38.2661L202.616 38.2768L202.614 38.2825L202.61 38.2932L202.608 38.299L202.606 38.3043L202.604 38.3096L202.602 38.3154L202.6 38.3207L202.598 38.3265L202.594 38.3372L202.592 38.3429L202.588 38.3536L202.586 38.3594L202.582 38.37L202.58 38.3758L202.578 38.3811L202.576 38.3869L202.575 38.3922L202.573 38.3976L202.57 38.4033L202.566 38.414L202.564 38.4198L202.562 38.4251L202.56 38.4304L202.558 38.4362L202.556 38.4415L202.554 38.4473L202.55 38.458L202.548 38.4637L202.544 38.4744L203.487 44.8867H195.368L195.127 41.6091L194.876 38.1992L194.872 38.2055L194.869 38.2085L194.867 38.2117L194.865 38.2143L194.861 38.2206L194.858 38.2236L194.849 38.2361L194.846 38.2392L194.836 38.2547L194.833 38.2579L194.825 38.2703L194.822 38.2734L194.813 38.2858L194.81 38.289L194.802 38.3014L194.799 38.3045L194.797 38.3076L194.791 38.3169L194.788 38.3201L194.784 38.3263L194.782 38.3289L194.779 38.332L194.776 38.3352L194.768 38.3476L194.765 38.3507L194.757 38.3631L194.754 38.3663L194.752 38.3694L194.746 38.3787L194.742 38.3818L194.734 38.3942L194.731 38.3973L194.982 41.8076L195.209 44.8867H187.076V38.2988H186.924V44.8867H178.791L179.018 41.8076L179.268 38.3973L179.265 38.3942L179.257 38.3818L179.254 38.3787L179.246 38.3663L179.243 38.3631L179.241 38.36L179.235 38.3507L179.231 38.3476L179.223 38.3352L179.22 38.332L179.218 38.3289L179.216 38.3263L179.212 38.3201L179.209 38.3169L179.199 38.3014L179.195 38.2983L179.187 38.2858L179.184 38.2827L179.176 38.2703L179.173 38.2672L179.165 38.2547L179.162 38.2516L179.153 38.2392L179.15 38.2361L179.142 38.2236L179.139 38.2206L179.135 38.2143L179.133 38.2117L179.131 38.2085L179.128 38.2055L179.123 38.1992L178.872 41.6091L178.631 44.8867H170.512L171.456 38.4744L171.452 38.4637L171.45 38.458L171.446 38.4473L171.444 38.4415L171.442 38.4362L171.44 38.4304L171.436 38.4198L171.434 38.414L171.429 38.4033L171.428 38.3976L171.424 38.3869L171.422 38.3811L171.42 38.3758L171.418 38.37L171.414 38.3594L171.412 38.3536L171.408 38.3429L171.406 38.3372L171.402 38.3265L171.4 38.3207L171.398 38.3154L171.395 38.3096L171.394 38.3043L171.392 38.299L171.39 38.2932L171.386 38.2825L171.384 38.2768L171.38 38.2661L171.378 38.2603L171.374 38.2496L171.372 38.2439L171.37 38.2385L171.368 38.2328L171.364 38.2221L171.361 38.2163L171.36 38.211L171.358 38.2057L171.356 38.1999L171.352 38.1892L171.35 38.1835L171.348 38.1781L171.346 38.1723L171.342 38.1617L171.34 38.1559L171.336 38.1453L171.334 38.1395L171.33 38.1288L171.329 38.123L170.333 44.8867H162.239L162.891 41.9343L163.642 38.524L163.64 38.5169L163.639 38.5098L163.637 38.5032L163.635 38.4961L163.634 38.4889L163.63 38.4747L163.629 38.4676L163.625 38.4534L163.624 38.4463L163.622 38.4396L163.62 38.4325L163.619 38.4254L163.615 38.4112L163.614 38.4041L163.612 38.397L163.611 38.3899L163.608 38.3828L163.606 38.3761L163.605 38.369L163.601 38.3548L163.6 38.3477L163.596 38.3335L163.595 38.3264L163.593 38.3193L163.591 38.3126L163.59 38.3055L163.586 38.2913L163.585 38.2842L163.581 38.2699L163.58 38.2628L163.578 38.2557L163.576 38.2491L163.575 38.242L163.57 38.2278L163.569 38.2207L163.565 38.2064L163.564 38.1993L163.562 38.1922L163.56 38.1855L163.559 38.1784L163.555 38.1642L163.554 38.1571L163.55 38.1429L163.549 38.1358L163.547 38.1287L163.545 38.122L163.544 38.1149L163.54 38.1007L163.539 38.0936L163.534 38.0794L163.533 38.0723L162.781 41.4825L162.03 44.8867H153.968L154.827 41.9653L155.831 38.5555L155.829 38.5471L155.828 38.5391L155.826 38.5311L155.824 38.5151L155.822 38.5071L155.821 38.4991L155.819 38.4911L155.818 38.4831L155.815 38.4751L155.813 38.4591L155.811 38.4511L155.81 38.4431L155.808 38.4351L155.806 38.4191L155.804 38.4111L155.803 38.4027L155.801 38.3947L155.8 38.3867L155.798 38.3787L155.796 38.3627L155.794 38.3547L155.793 38.3467L155.791 38.3387L155.79 38.3307L155.788 38.3227L155.786 38.3068L155.784 38.2988L155.783 38.2908L155.78 38.2828L155.779 38.2748L155.777 38.2668L155.776 38.2583L155.775 38.2503L155.773 38.2423L155.772 38.2343L155.77 38.2263L155.768 38.2103L155.766 38.2023L155.765 38.1944L155.763 38.1864L155.762 38.1784L155.76 38.1704L155.758 38.1544L155.756 38.1464L155.755 38.1384L155.753 38.1304L155.752 38.1224L155.75 38.114L155.748 38.098L155.746 38.09L155.744 38.082L155.742 38.074L155.741 38.066L155.739 38.058L155.737 38.042L154.733 41.4523L153.731 44.8625L153.724 44.8867H145.7L146.767 41.9857L148.02 38.5754L148.019 38.567L148.017 38.5581L148.016 38.5497L148.015 38.5408L148.014 38.5323L148.012 38.5235L148.011 38.515L148.01 38.5061L148.009 38.4977L148.007 38.4888L148.006 38.4804L148.005 38.4715L148.004 38.463L148.003 38.4542L148.001 38.4457L148 38.4368L147.999 38.4284L147.998 38.4195L147.996 38.4111L147.995 38.4026L147.994 38.3937L147.993 38.3853L147.991 38.3764L147.989 38.368L147.988 38.3591L147.987 38.3507L147.986 38.3418L147.984 38.3333L147.983 38.3244L147.982 38.316L147.981 38.3071L147.979 38.2987L147.978 38.2898L147.977 38.2814L147.976 38.2725L147.975 38.264L147.973 38.2551L147.972 38.2467L147.971 38.2378L147.97 38.2294L147.968 38.2205L147.967 38.2121L147.966 38.2032L147.965 38.1947L147.963 38.1863L147.962 38.1774L147.961 38.169L147.96 38.1601L147.959 38.1517L147.957 38.1428L147.956 38.1343L147.955 38.1254L147.953 38.117L147.951 38.1081L147.95 38.0997L147.949 38.0908L147.948 38.0824L147.946 38.0735L147.945 38.065L147.944 38.0561L147.943 38.0477L147.942 38.0388L147.94 38.0304L147.939 38.0215L146.685 41.4318L145.432 44.842L145.415 44.8867H137.431L138.706 41.9978L140.211 38.5875L140.21 38.5786L140.209 38.5693L140.207 38.5515L140.206 38.5422L140.205 38.5333L140.204 38.524L140.202 38.5151L140.201 38.5062L140.2 38.4969L140.199 38.488L140.197 38.4787L140.196 38.4698L140.195 38.4609L140.194 38.4516L140.192 38.4338L140.191 38.4245L140.19 38.4156L140.189 38.4063L140.188 38.3974L140.186 38.3885L140.185 38.3792L140.184 38.3703L140.183 38.361L140.181 38.3432L140.18 38.3339L140.178 38.3161L140.177 38.3068L140.176 38.2979L140.175 38.2886L140.173 38.2708L140.171 38.2615L140.17 38.2526L140.169 38.2433L140.167 38.2255L140.166 38.2161L140.164 38.1984L140.163 38.1891L140.161 38.1802L140.16 38.1708L140.159 38.1619L140.158 38.1531L140.156 38.1438L140.155 38.1349L140.154 38.1255L140.152 38.1078L140.151 38.0984L140.149 38.0807L140.148 38.0713L140.147 38.0624L140.146 38.0531L140.145 38.0442L140.144 38.0354L140.143 38.026L140.141 38.0171L140.14 38.0078L138.636 41.4181L137.106 44.8867H129.165L130.648 42.0068L132.403 38.5966L132.397 38.5499V38.5406L132.394 38.5126L132.393 38.5033L132.392 38.4944L132.381 38.3918L132.38 38.3825V38.3731L132.379 38.3638L132.369 38.2705L132.368 38.2612L132.363 38.2239V38.2145L132.355 38.1399L132.354 38.1306L132.346 38.056V38.0466L132.343 38.0187L132.342 38.0093L132.341 38L130.585 41.4103L128.829 44.8205L128.795 44.8867H120.5V45.5406H128.459L127.075 48.2308L125.319 51.6411L124.741 52.7646H115.865V53.4185H124.404L123.564 55.0509L121.809 58.4612L120.078 61.8223H110.537V62.4753H119.742L118.298 65.2826L116.543 68.6898L114.787 72.1014L114.66 72.3496H104.345V73.0022H114.324L113.032 75.513L111.277 78.9245L109.521 82.3317L108.287 84.7305H97.062V85.3835H107.951L107.766 85.7433L106.011 89.1549L104.255 92.5621L102.5 95.9737L100.745 99.3853L100.685 99.501H88.3712V100.158H100.346L98.9894 102.792L97.2342 106.204L95.4788 109.616L93.7235 113.023L91.9682 116.434L91.4516 117.438H77.8218V118.091H91.1156L90.2129 119.846L88.4575 123.253L86.7022 126.665L84.9469 130.076L83.1915 133.484L81.4363 136.895L80.0101 139.667H64.7448V140.32H79.6741L77.9256 143.718L76.1702 147.126L74.4149 150.537L72.6596 153.949L70.9043 157.356L69.149 160.767L67.3936 164.179L65.6384 167.586L65.4531 167.946H48.1094V168.599H65.1171L63.883 170.998L62.1277 174.409L60.3724 177.817L58.617 181.228L56.8617 184.64L55.1064 188.047L53.3511 191.459L51.5957 194.87L49.8405 198.277L46.3297 205.101L46.3137 205.132H26.2334V205.785H45.9777L44.5745 208.512L42.8191 211.919L41.0638 215.331L39.3085 218.743L37.5532 222.15L35.7978 225.561L34.0426 228.973L32.2872 232.38L30.5318 235.792L28.7765 239.203L27.0212 242.61L25.2659 246.022L23.5105 249.434L21.7554 252.841L20 256.252L20.0009 256.261L20.002 256.27L20.0029 256.279L20.0039 256.288L20.0048 256.301L20.0059 256.31L20.0077 256.328L20.0087 256.337L20.0097 256.346L20.0107 256.355L20.0116 256.363L20.0127 256.372L20.0136 256.381L20.0146 256.395L20.0165 256.412L20.0175 256.421L20.0184 256.43L20.0194 256.439L20.0204 256.448L20.0214 256.457L20.0232 256.475L20.0243 256.488L20.0252 256.497L20.0262 256.506L20.0272 256.514L20.0282 256.523L20.0291 256.532L20.0301 256.541L20.032 256.559L20.033 256.568L20.0339 256.577L20.035 256.59L20.0359 256.599L20.0369 256.608L20.0388 256.626L20.0398 256.634L20.0407 256.643L20.0418 256.652L20.0427 256.661L20.0437 256.67L20.0446 256.683L20.0457 256.692L20.0475 256.71L20.0485 256.719L20.0495 256.728L20.0505 256.737L20.0514 256.745L20.0525 256.754L20.0534 256.763L20.0544 256.777L20.0563 256.794L20.0573 256.803L20.0582 256.812L20.0592 256.821L20.0602 256.83L20.0612 256.839ZM245.171 45.5406H237.183L238.373 48.2386L239.878 51.6489L240.37 52.7646H248.89L248.619 52.2376L245.171 45.5406ZM249.227 53.4185H240.658L241.382 55.0592L242.887 58.469L244.367 61.8223H253.553L252.129 59.0578L250.374 55.6475L249.227 53.4185ZM253.89 62.4753H244.655L245.896 65.2909L247.4 68.698L248.905 72.1096L249.011 72.3496H258.972L257.395 69.2895L255.64 65.8778L253.89 62.4753ZM259.308 73.0022H249.299L250.41 75.5213L251.914 78.9284L253.419 82.34L254.473 84.7305H265.343L264.417 82.9314L262.661 79.5198L260.906 76.1082L259.308 73.0022ZM265.68 85.3835H254.761L254.924 85.7516L256.428 89.1588L257.932 92.5703L259.437 95.982L260.942 99.3936L260.989 99.501H272.946L271.438 96.5689L269.683 93.1618L267.927 89.7502L266.172 86.3386L265.68 85.3835ZM273.285 100.158H261.279L262.446 102.801L263.951 106.212L265.456 109.624L266.96 113.031L268.464 116.443L268.903 117.438H282.18L281.969 117.03L280.215 113.622L276.703 106.799L274.949 103.392L273.285 100.158ZM282.516 118.091H269.191L269.969 119.854L271.473 123.261L272.978 126.673L274.483 130.085L275.988 133.492L277.492 136.903L278.71 139.667H293.622L292.501 137.49L290.747 134.083L288.991 130.672L287.235 127.26L285.481 123.853L283.725 120.441L282.516 118.091ZM293.958 140.32H278.998L280.501 143.722L282.005 147.134L283.51 150.545L285.015 153.953L286.52 157.364L288.024 160.776L289.528 164.187L291.033 167.594L291.188 167.946H308.176L306.545 164.774L304.789 161.363L303.033 157.956L301.279 154.544L299.523 151.132L297.767 147.721L296.013 144.314L294.257 140.902L293.958 140.32ZM308.512 168.599H291.476L292.537 171.006L294.042 174.418L295.547 177.825L297.051 181.236L298.556 184.648L300.06 188.055L301.565 191.467L303.069 194.878L304.574 198.286L306.079 201.697L307.583 205.109L307.594 205.132H327.318L325.853 202.284L324.097 198.877L322.343 195.465L320.587 192.054L318.831 188.647L317.077 185.235L315.321 181.823L313.565 178.416L311.811 175.005L310.055 171.593L308.512 168.599ZM306.008 202.275L307.268 205.132H287.5L287.497 205.123L286.243 201.711L284.989 198.3L283.735 194.893L282.482 191.481L281.228 188.069L279.974 184.662L278.72 181.251L277.467 177.839L276.213 174.427L274.959 171.02L274.069 168.599H291.149L292.467 171.584L293.971 174.995L295.476 178.407L296.98 181.814L298.485 185.226L299.99 188.637L301.495 192.044L302.999 195.456L304.503 198.868L306.008 202.275ZM289.458 164.765L290.861 167.946H273.829L273.705 167.609L272.452 164.197L271.198 160.79L269.944 157.378L268.69 153.967L267.437 150.559L266.182 147.148L264.928 143.736L263.674 140.329L263.671 140.32H278.673L278.926 140.892L280.431 144.304L281.935 147.716L283.439 151.123L284.944 154.535L286.449 157.946L287.953 161.353L289.458 164.765ZM277.421 137.485L278.385 139.667H263.431L262.421 136.918L261.167 133.506L259.913 130.099L258.659 126.687L257.406 123.276L256.152 119.868L255.499 118.091H268.867L271.404 123.843L272.907 127.251L274.412 130.662L275.917 134.074L277.421 137.485ZM268.394 117.02L268.579 117.438H255.259L254.898 116.457L252.391 109.634L251.137 106.226L249.883 102.815L248.907 100.158H260.954L262.375 103.383L263.88 106.79L265.385 110.201L266.889 113.613L268.394 117.02ZM259.367 96.5595L260.664 99.501H248.665L248.629 99.4032L247.376 95.9961L246.122 92.5845L244.868 89.1729L243.614 85.7657L243.474 85.3835H254.435L254.853 86.3291L256.357 89.7407L257.862 93.1523L259.367 96.5595ZM253.348 82.9219L254.147 84.7305H243.234L241.107 78.9425L239.852 75.5353L238.921 73.0022H248.972L250.34 76.0987L251.843 79.5103L253.348 82.9219ZM247.33 69.28L248.684 72.3496H238.681L238.598 72.1238L237.345 68.7121L236.091 65.305L235.051 62.4753H244.329L245.826 65.8684L247.33 69.28ZM242.816 59.0487L244.041 61.8223H234.811L233.583 58.4827L232.329 55.0728L231.721 53.4185H240.333L241.311 55.6384L242.816 59.0487ZM239.808 52.2282L240.044 52.7646H231.481L231.076 51.6626L229.822 48.2523L228.825 45.5406H236.857L238.303 48.8183L239.808 52.2282ZM228.54 45.5406H220.469L221.272 48.2723L222.275 51.6826L222.593 52.7646H231.197L230.996 52.2161L229.741 48.8062L228.54 45.5406ZM231.438 53.4185H222.786L223.279 55.0929L224.281 58.5032L225.258 61.8223H234.527L233.503 59.0366L232.249 55.6263L231.438 53.4185ZM234.767 62.4753H225.45L226.287 65.3228L227.291 68.7344L228.294 72.146L228.353 72.3496H238.397L237.264 69.2674L236.011 65.8558L234.767 62.4753ZM238.637 73.0022H228.546L229.296 75.5532L230.299 78.9648L231.303 82.3764L231.996 84.7305H242.949L242.279 82.9094L241.026 79.4978L239.772 76.0862L238.637 73.0022ZM243.19 85.3835H232.188L232.306 85.7836L234.311 92.6068L235.315 96.0139L236.34 99.501H248.38L247.294 96.5469L246.041 93.1397L244.787 89.7282L243.533 86.3165L243.19 85.3835ZM248.622 100.158H236.533L237.321 102.837L238.324 106.244L239.326 109.656L240.33 113.067L241.333 116.475L241.616 117.438H254.974L254.817 117.012L253.563 113.6L251.056 106.777L249.802 103.37L248.622 100.158ZM255.214 118.091H241.808L243.339 123.298L244.342 126.705L245.345 130.117L246.348 133.528L247.351 136.94L248.154 139.667H263.148L262.34 137.473L261.087 134.061L259.833 130.65L258.579 127.242L257.325 123.831L256.071 120.419L255.214 118.091ZM263.388 140.32H248.347L248.355 140.347L249.357 143.759L250.36 147.17L251.363 150.577L252.367 153.989L253.37 157.401L254.372 160.808L255.375 164.219L256.378 167.631L256.471 167.946H273.544L272.37 164.752L271.117 161.341L269.863 157.934L268.609 154.522L267.355 151.11L266.102 147.703L264.848 144.292L263.594 140.88L263.388 140.32ZM273.784 168.599H256.663L257.382 171.038L258.385 174.45L259.387 177.861L260.39 181.268L261.394 184.68L262.397 188.092L263.4 191.499L264.402 194.91L265.406 198.322L266.409 201.729L267.409 205.132H287.217L286.163 202.267L283.655 195.443L282.4 192.036L281.147 188.625L279.893 185.213L278.639 181.806L277.385 178.394L276.132 174.983L274.878 171.571L273.784 168.599ZM265.313 198.833L267.164 205.132H247.32L246.576 201.76L245.825 198.353L245.072 194.941L244.32 191.53L243.567 188.122L242.815 184.711L242.062 181.299L241.31 177.892L240.559 174.48L239.806 171.069L239.261 168.599H256.419L257.288 171.553L258.291 174.965L259.294 178.372L260.297 181.784L261.3 185.195L262.303 188.602L264.309 195.426L265.313 198.833ZM255.282 164.735L256.227 167.946H239.117L239.054 167.662L238.301 164.25L237.549 160.838L236.796 157.431L236.044 154.02L235.293 150.608L234.54 147.201L233.788 143.789L233.035 140.378L233.022 140.32H248.101L248.26 140.862L249.264 144.269L251.269 151.093L252.272 154.5L253.276 157.911L254.279 161.323L255.282 164.735ZM247.257 137.451L247.909 139.667H232.878L232.283 136.966L231.53 133.559L230.779 130.147L230.027 126.736L229.274 123.329L228.522 119.917L228.119 118.091H241.563L242.242 120.402L243.245 123.809L244.249 127.22L245.252 130.632L246.254 134.039L247.257 137.451ZM240.237 113.578L241.371 117.438H227.975L227.769 116.505L227.017 113.098L226.264 109.687L225.513 106.275L224.761 102.868L224.163 100.158H236.288L237.227 103.348L239.233 110.171L240.237 113.578ZM235.221 96.5292L236.095 99.501H224.018L224.008 99.4562L223.256 96.0446L222.503 92.6375L221.751 89.2259L220.998 85.8143L220.903 85.3835H231.943L232.212 86.2988L233.215 89.706L234.218 93.1176L235.221 96.5292ZM231.208 82.8872L231.751 84.7305H220.759L220.247 82.4071L219.495 78.9955L218.742 75.5839L218.173 73.0022H228.301L229.203 76.0685L230.206 79.4756L231.208 82.8872ZM227.197 69.2453L228.11 72.3496H218.029L217.99 72.1723L217.237 68.7651L216.485 65.3535L215.85 62.4753H225.205L226.193 65.8381L227.197 69.2453ZM224.188 59.0167L225.013 61.8223H215.706L214.981 58.5335L214.229 55.1236L213.852 53.4185H222.541L223.185 55.6064L224.188 59.0167ZM222.181 52.1961L222.348 52.7646H213.708L213.476 51.7133L212.724 48.3031L212.114 45.5406H220.224L221.178 48.7859L222.181 52.1961ZM211.905 45.5406H203.763L204.176 48.3539L204.678 51.7641L204.825 52.7646H213.499L213.367 52.1651L212.614 48.7549L211.905 45.5406ZM213.643 53.4185H204.921L205.18 55.1739L205.681 58.5842L206.157 61.8223H215.497L214.872 58.9852L214.119 55.5749L213.643 53.4185ZM215.641 62.4753H206.253L206.685 65.403L207.185 68.8146L207.687 72.2262L207.705 72.3496H217.819L217.128 69.2138L216.375 65.8066L215.641 62.4753ZM217.963 73.0022H207.801L208.188 75.6334L208.69 79.0449L209.192 82.4566L209.526 84.7305H220.551L220.138 82.8558L219.385 79.4486L218.633 76.037L217.963 73.0022ZM220.695 85.3835H209.622L209.693 85.8637L210.195 89.2753L210.696 92.6869L211.198 96.0985L211.699 99.501H223.809L223.146 96.4978L222.394 93.0861L221.641 89.679L220.889 86.2674L220.695 85.3835ZM223.954 100.158H211.795L212.2 102.917L212.702 106.329L213.204 109.736L213.705 113.148L214.207 116.559L214.336 117.438H227.766L227.66 116.958L226.907 113.547L226.155 110.14L225.404 106.728L224.651 103.317L223.954 100.158ZM227.91 118.091H214.432L214.708 119.966L215.21 123.378L215.712 126.79L216.213 130.197L216.715 133.608L217.216 137.02L217.606 139.667H232.669L232.173 137.419L231.421 134.008L230.669 130.6L229.917 127.189L229.165 123.777L228.412 120.37L227.91 118.091ZM232.813 140.32H217.702L217.717 140.427L218.219 143.839L218.72 147.25L219.222 150.657L219.724 154.069L220.225 157.481L220.727 160.892L221.228 164.299L221.73 167.711L221.764 167.946H238.908L238.192 164.703L237.439 161.292L236.687 157.88L235.935 154.473L235.183 151.061L234.431 147.65L233.678 144.238L232.926 140.831L232.813 140.32ZM239.052 168.599H221.86L222.231 171.123L222.732 174.53L223.234 177.941L223.736 181.353L224.237 184.76L224.739 188.172L225.24 191.583L225.742 194.991L226.244 198.402L226.745 201.814L227.233 205.132H247.111L246.467 202.213L245.715 198.801L244.963 195.394L244.21 191.983L243.458 188.571L242.705 185.164L241.953 181.752L241.201 178.341L240.449 174.934L239.697 171.522L239.052 168.599ZM226.115 198.753L227.054 205.132H207.151L206.913 201.889L206.662 198.477L206.411 195.07L206.16 191.658L205.91 188.247L205.659 184.839L205.408 181.428L205.157 178.016L204.906 174.605L204.656 171.197L204.465 168.599H221.681L222.104 171.474L222.605 174.881L223.107 178.292L223.608 181.704L224.11 185.111L224.611 188.523L225.112 191.934L225.614 195.342L226.115 198.753ZM221.1 164.65L221.585 167.946H204.417L204.405 167.786L204.154 164.374L203.903 160.967L203.652 157.556L203.401 154.144L203.152 150.737L202.901 147.325L202.65 143.914L202.399 140.506L202.385 140.32H217.522L217.59 140.782L218.092 144.19L218.593 147.601L219.095 151.013L219.595 154.42L220.097 157.832L220.599 161.243L221.1 164.65ZM217.088 137.371L217.426 139.667H202.337L202.148 137.095L201.898 133.683L201.647 130.276L201.396 126.864L201.145 123.453L200.894 120.046L200.751 118.091H214.253L214.58 120.317L215.082 123.729L215.583 127.141L216.085 130.548L216.587 133.959L217.088 137.371ZM214.08 116.91L214.157 117.438H200.703L200.644 116.634L200.393 113.223L200.142 109.815L199.891 106.404L199.64 102.992L199.433 100.158H211.616L212.073 103.268L212.575 106.68L213.076 110.087L213.578 113.499L214.08 116.91ZM211.07 96.4495L211.52 99.501H199.384L199.139 96.1734L198.888 92.7618L198.637 89.3501L198.386 85.943L198.345 85.3835H209.442L209.565 86.2191L210.067 89.6263L210.568 93.0378L211.07 96.4495ZM209.063 82.8075L209.346 84.7305H198.298L198.137 82.5314L197.886 79.1198L197.635 75.7126L197.435 73.0022H207.622L208.061 75.9887L208.563 79.3959L209.063 82.8075ZM207.058 69.1655L207.526 72.3496H197.387L197.384 72.3011L197.133 68.8894L196.882 65.4823L196.661 62.4753H206.074L206.556 65.7584L207.058 69.1655ZM205.553 58.9356L205.978 61.8223H196.614L196.381 58.6604L196.13 55.2501L195.995 53.4185H204.742L205.051 55.5253L205.553 58.9356ZM204.55 52.1155L204.646 52.7646H195.947L195.879 51.8399L195.628 48.4296L195.416 45.5406H203.584L204.048 48.7052L204.55 52.1155ZM195.257 45.5406H187.076V52.7646H195.788L195.735 52.038L195.484 48.6277L195.257 45.5406ZM195.837 53.4185H187.076V61.8223H196.454L196.236 58.8585L195.986 55.4483L195.837 53.4185ZM196.502 62.4753H187.076V72.3496H197.229L196.989 69.0893L196.738 65.6777L196.502 62.4753ZM197.276 73.0022H187.076V84.7305H198.139L197.992 82.7313L197.741 79.3197L197.49 75.9081L197.276 73.0022ZM198.187 85.3835H187.076V99.501H199.225L198.994 96.3688L198.743 92.9616L198.493 89.5501L198.242 86.1384L198.187 85.3835ZM199.273 100.158H187.076V117.438H200.544L200.499 116.83L200.248 113.422L199.997 110.011L199.747 106.599L199.496 103.192L199.273 100.158ZM200.592 118.091H187.076V139.667H202.178L202.004 137.295L201.753 133.883L201.502 130.472L201.251 127.064L201.001 123.653L200.75 120.241L200.592 118.091ZM202.227 140.32H187.076V167.946H204.257L204.009 164.574L203.759 161.163L203.508 157.755L203.258 154.344L203.007 150.932L202.756 147.525L202.506 144.113L202.255 140.702L202.227 140.32ZM204.305 168.599H187.076V205.132H206.992L206.768 202.089L206.517 198.677L206.267 195.265L206.016 191.858L205.765 188.447L205.514 185.035L205.263 181.623L205.013 178.216L204.762 174.805L204.511 171.393L204.305 168.599ZM186.924 168.599V205.132H167.008L167.232 202.089L167.482 198.677L167.733 195.265L167.984 191.858L168.235 188.447L168.486 185.035L168.737 181.623L168.986 178.216L169.237 174.805L169.488 171.393L169.694 168.599H186.924ZM186.924 140.32V167.946H169.742L169.99 164.574L170.24 161.163L170.491 157.755L170.742 154.344L170.993 150.932L171.244 147.525L171.494 144.113L171.745 140.702L171.773 140.32H186.924ZM186.924 118.091V139.667H171.821L171.996 137.295L172.247 133.883L172.498 130.472L172.749 127.064L172.999 123.653L173.25 120.241L173.408 118.091H186.924ZM186.924 100.158V117.438H173.456L173.501 116.83L173.752 113.422L174.003 110.011L174.252 106.599L174.503 103.192L174.727 100.158H186.924ZM186.924 85.3835V99.501H174.775L175.005 96.3688L175.256 92.9616L175.506 89.5501L175.757 86.1384L175.813 85.3835H186.924ZM186.924 73.0022V84.7305H175.861L176.008 82.7313L176.259 79.3197L176.51 75.9081L176.723 73.0022H186.924ZM186.924 62.4753V72.3496H176.771L177.011 69.0893L177.262 65.6777L177.498 62.4753H186.924ZM186.924 53.4185V61.8223H177.546L177.764 58.8585L178.015 55.4483L178.163 53.4185H186.924ZM186.924 45.5406V52.7646H178.211L178.265 52.038L178.516 48.6277L178.743 45.5406H186.924ZM178.583 45.5406H170.416L169.951 48.7052L169.45 52.1155L169.354 52.7646H178.053L178.121 51.8399L178.372 48.4296L178.583 45.5406ZM178.004 53.4185H169.258L168.949 55.5253L168.447 58.9356L168.022 61.8223H177.386L177.619 58.6604L177.87 55.2501L178.004 53.4185ZM177.338 62.4753H167.926L167.444 65.7584L166.942 69.1655L166.475 72.3496H176.612L176.616 72.3011L176.867 68.8894L177.118 65.4823L177.338 62.4753ZM176.564 73.0022H166.379L165.939 75.9887L165.437 79.3959L164.936 82.8075L164.653 84.7305H175.702L175.864 82.5314L176.114 79.1198L176.365 75.7126L176.564 73.0022ZM175.654 85.3835H164.557L164.434 86.2191L163.933 89.6263L163.432 93.0378L162.93 96.4495L162.481 99.501H174.615L174.86 96.1734L175.111 92.7618L175.362 89.3501L175.613 85.943L175.654 85.3835ZM174.567 100.158H162.384L161.927 103.268L161.425 106.68L160.924 110.087L160.422 113.499L159.92 116.91L159.843 117.438H173.297L173.356 116.634L173.607 113.223L173.857 109.815L174.108 106.404L174.359 102.992L174.567 100.158ZM173.249 118.091H159.747L159.419 120.317L158.918 123.729L158.417 127.141L157.915 130.548L157.413 133.959L156.912 137.371L156.574 139.667H171.663L171.852 137.095L172.102 133.683L172.353 130.276L172.604 126.864L172.855 123.453L173.106 120.046L173.249 118.091ZM171.615 140.32H156.478L156.41 140.782L155.909 144.19L155.407 147.601L154.905 151.013L154.404 154.42L153.903 157.832L153.401 161.243L152.9 164.65L152.415 167.946H169.583L169.594 167.786L169.845 164.374L170.096 160.967L170.347 157.556L170.598 154.144L170.848 150.737L171.099 147.325L171.35 143.914L171.601 140.506L171.615 140.32ZM169.535 168.599H152.319L151.897 171.474L151.395 174.881L150.893 178.292L150.392 181.704L149.89 185.111L149.388 188.523L148.888 191.934L148.386 195.342L147.885 198.753L146.946 205.132H166.848L167.087 201.889L167.338 198.477L167.589 195.07L167.84 191.658L168.09 188.247L168.341 184.839L168.592 181.428L168.842 178.016L169.093 174.605L169.343 171.197L169.535 168.599ZM147.255 201.814L146.767 205.132H126.889L127.532 202.213L128.285 198.801L129.037 195.394L129.79 191.983L130.542 188.571L131.295 185.164L132.047 181.752L132.798 178.341L133.551 174.934L134.303 171.522L134.948 168.599H152.14L151.768 171.123L151.268 174.53L150.766 177.941L150.265 181.353L149.763 184.76L149.261 188.172L148.76 191.583L148.258 194.991L147.756 198.402L147.255 201.814ZM152.27 167.711L152.236 167.946H135.092L135.808 164.703L136.561 161.292L137.313 157.88L138.064 154.473L138.817 151.061L139.569 147.65L140.322 144.238L141.074 140.831L141.187 140.32H156.298L156.283 140.427L155.781 143.839L155.28 147.25L154.778 150.657L154.276 154.069L153.775 157.481L153.273 160.892L152.772 164.299L152.27 167.711ZM156.784 137.02L156.395 139.667H141.331L141.827 137.419L142.579 134.008L143.331 130.6L144.083 127.189L144.835 123.777L145.588 120.37L146.09 118.091H159.568L159.292 119.966L158.79 123.378L158.288 126.79L157.787 130.197L157.285 133.608L156.784 137.02ZM159.793 116.559L159.664 117.438H146.234L146.34 116.958L147.093 113.547L147.845 110.14L148.597 106.728L149.349 103.317L150.046 100.158H162.205L161.799 102.917L161.298 106.329L160.797 109.736L160.295 113.148L159.793 116.559ZM162.802 96.0985L162.301 99.501H150.191L150.854 96.4978L151.606 93.0861L152.359 89.679L153.11 86.2674L153.306 85.3835H164.378L164.307 85.8637L163.805 89.2753L163.304 92.6869L162.802 96.0985ZM164.808 82.4566L164.474 84.7305H153.45L153.863 82.8558L154.615 79.4486L155.367 76.037L156.037 73.0022H166.198L165.812 75.6334L165.31 79.0449L164.808 82.4566ZM166.313 72.2262L166.294 72.3496H156.181L156.872 69.2138L157.625 65.8066L158.359 62.4753H167.747L167.316 65.403L166.814 68.8146L166.313 72.2262ZM168.319 58.5842L167.843 61.8223H158.503L159.129 58.9852L159.881 55.5749L160.357 53.4185H169.078L168.82 55.1739L168.319 58.5842ZM169.322 51.7641L169.175 52.7646H160.501L160.633 52.1651L161.386 48.7549L162.094 45.5406H170.237L169.824 48.3539L169.322 51.7641ZM161.886 45.5406H153.776L152.821 48.7859L151.652 52.7646H160.292L160.524 51.7133L161.276 48.3031L161.886 45.5406ZM160.148 53.4185H151.459L150.816 55.6064L149.812 59.0167L148.987 61.8223H158.294L159.019 58.5335L159.772 55.1236L160.148 53.4185ZM158.15 62.4753H148.795L147.806 65.8381L146.804 69.2453L145.89 72.3496H155.971L156.01 72.1723L156.763 68.7651L157.515 65.3535L158.15 62.4753ZM155.827 73.0022H145.698L144.797 76.0685L143.794 79.4756L142.791 82.8872L142.249 84.7305H153.241L153.753 82.4071L154.505 78.9955L155.258 75.5839L155.827 73.0022ZM153.097 85.3835H142.057L141.788 86.2988L140.785 89.706L139.782 93.1176L138.779 96.5292L137.905 99.501H149.982L149.992 99.4562L150.744 96.0446L151.497 92.6375L152.249 89.2259L153.001 85.8143L153.097 85.3835ZM149.837 100.158H137.711L136.773 103.348L134.767 110.171L133.763 113.578L132.629 117.438H146.025L146.231 116.505L146.983 113.098L147.735 109.687L148.487 106.275L149.239 102.868L149.837 100.158ZM145.881 118.091H132.437L131.758 120.402L130.755 123.809L129.751 127.22L128.748 130.632L127.745 134.039L126.743 137.451L126.091 139.667H141.121L141.717 136.966L142.47 133.559L143.221 130.147L143.973 126.736L144.726 123.329L145.478 119.917L145.881 118.091ZM140.978 140.32H125.899L125.739 140.862L124.736 144.269L122.73 151.093L121.727 154.5L120.724 157.911L119.721 161.323L118.718 164.735L117.772 167.946H134.883L134.946 167.662L135.699 164.25L136.451 160.838L137.204 157.431L137.955 154.02L138.707 150.608L139.46 147.201L140.212 143.789L140.965 140.378L140.978 140.32ZM134.739 168.599H117.58L116.712 171.553L115.709 174.965L114.706 178.372L113.703 181.784L112.7 185.195L111.697 188.602L110.694 192.014L109.691 195.426L108.688 198.833L107.685 202.244L106.836 205.132H126.68L127.423 201.76L128.175 198.353L128.928 194.941L129.68 191.53L130.433 188.122L131.185 184.711L131.938 181.299L132.689 177.892L133.441 174.48L134.194 171.069L134.739 168.599ZM107.591 201.729L106.59 205.132H86.7832L87.8376 202.267L89.0914 198.855L90.3453 195.443L91.599 192.036L92.8529 188.625L94.1066 185.213L95.3605 181.806L96.6142 178.394L97.868 174.983L99.1218 171.571L100.215 168.599H117.336L116.618 171.038L115.615 174.45L114.612 177.861L113.609 181.268L112.606 184.68L111.603 188.092L110.6 191.499L109.597 194.91L108.594 198.322L107.591 201.729ZM117.621 167.631L117.528 167.946H100.456L101.629 164.752L102.883 161.341L104.137 157.934L105.391 154.522L106.645 151.11L107.898 147.703L109.152 144.292L110.406 140.88L110.612 140.32H125.653L125.646 140.347L124.643 143.759L123.639 147.17L122.636 150.577L121.633 153.989L120.63 157.401L119.627 160.808L118.624 164.219L117.621 167.631ZM126.649 136.94L125.846 139.667H110.852L111.66 137.473L112.914 134.061L114.167 130.65L115.421 127.242L116.675 123.831L117.929 120.419L118.785 118.091H132.192L130.661 123.298L129.657 126.705L128.655 130.117L127.652 133.528L126.649 136.94ZM132.667 116.475L132.383 117.438H119.026L119.183 117.012L120.436 113.6L121.69 110.189L122.944 106.777L124.198 103.37L125.378 100.158H137.466L136.679 102.837L135.676 106.244L134.673 109.656L133.67 113.067L132.667 116.475ZM137.682 99.4255L137.66 99.501H125.62L126.706 96.5469L127.959 93.1397L129.213 89.7282L130.467 86.3165L130.81 85.3835H141.812L141.694 85.7836L139.688 92.6068L138.686 96.0139L137.682 99.4255ZM142.697 82.3764L142.004 84.7305H131.05L131.721 82.9094L132.974 79.4978L134.228 76.0862L135.363 73.0022H145.454L144.703 75.5532L143.701 78.9648L142.697 82.3764ZM145.706 72.146L145.646 72.3496H135.603L136.736 69.2674L137.989 65.8558L139.233 62.4753H148.55L147.713 65.3228L146.709 68.7344L145.706 72.146ZM149.718 58.5032L148.742 61.8223H139.473L140.497 59.0366L141.752 55.6263L142.563 53.4185H151.214L150.721 55.0929L149.718 58.5032ZM151.725 51.6826L151.407 52.7646H142.804L143.005 52.2161L144.259 48.8062L145.46 45.5406H153.531L152.728 48.2723L151.725 51.6826ZM145.175 45.5406H137.143L135.697 48.8183L134.193 52.2282L133.956 52.7646H142.519L142.924 51.6626L144.178 48.2523L145.175 45.5406ZM142.279 53.4185H133.668L131.184 59.0487L129.959 61.8223H139.189L140.417 58.4827L141.67 55.0728L142.279 53.4185ZM138.949 62.4753H129.671L128.174 65.8684L126.67 69.28L125.316 72.3496H135.319L135.402 72.1238L136.655 68.7121L137.909 65.305L138.949 62.4753ZM135.079 73.0022H125.028L123.661 76.0987L122.156 79.5103L120.651 82.9219L119.853 84.7305H130.766L131.639 82.3541L132.894 78.9425L134.148 75.5353L135.079 73.0022ZM130.526 85.3835H119.565L119.147 86.3291L117.642 89.7407L116.138 93.1523L114.633 96.5595L113.336 99.501H125.335L125.371 99.4032L126.624 95.9961L129.132 89.1729L130.386 85.7657L130.526 85.3835ZM125.093 100.158H113.046L111.624 103.383L110.12 106.79L108.615 110.201L107.11 113.613L105.606 117.02L105.421 117.438H118.741L119.102 116.457L120.356 113.045L121.609 109.634L122.863 106.226L124.117 102.815L125.093 100.158ZM118.501 118.091H105.133L104.101 120.432L102.597 123.843L101.092 127.251L99.5876 130.662L98.083 134.074L96.5785 137.485L95.6151 139.667H110.569L111.579 136.918L112.833 133.506L114.087 130.099L115.34 126.687L116.594 123.276L117.848 119.868L118.501 118.091ZM110.329 140.32H95.3267L95.0739 140.892L93.5694 144.304L92.0648 147.716L90.5603 151.123L89.0557 154.535L87.5511 157.946L86.0466 161.353L84.542 164.765L83.139 167.946H100.171L100.295 167.609L101.549 164.197L102.802 160.79L104.056 157.378L105.31 153.967L106.564 150.559L107.818 147.148L109.071 143.736L110.325 140.329L110.329 140.32ZM99.9307 168.599H82.8507L81.5328 171.584L80.0282 174.995L78.5237 178.407L77.0191 181.814L75.5146 185.226L74.01 188.637L72.5054 192.044L71.0009 195.456L69.4963 198.868L67.9918 202.275L66.7317 205.132H86.4997L86.5029 205.123L89.0105 198.3L90.2643 194.893L91.5181 191.481L92.7719 188.069L94.0257 184.662L95.2795 181.251L96.5333 177.839L97.7871 174.427L99.0409 171.02L99.9307 168.599ZM66.4166 205.109L66.4065 205.132H46.682L48.1472 202.284L49.9026 198.877L51.6578 195.465L53.4132 192.054L55.1685 188.647L56.9238 185.235L58.6792 181.823L60.4345 178.416L62.1898 175.005L63.9451 171.593L65.4875 168.599H82.5238L81.4623 171.006L79.9578 174.418L78.4532 177.825L76.9487 181.236L75.4441 184.648L73.9395 188.055L72.435 191.467L70.9304 194.878L69.4259 198.286L66.4166 205.109ZM82.9669 167.594L82.8118 167.946H65.8238L67.4557 164.774L69.2111 161.363L70.9665 157.956L72.7217 154.544L74.4771 151.132L76.2323 147.721L77.9877 144.314L79.743 140.902L80.0425 140.32H95.0012L93.4988 143.722L91.9942 147.134L90.4897 150.545L88.9851 153.953L87.4806 157.364L85.976 160.776L84.4714 164.187L82.9669 167.594ZM96.5079 136.903L95.2892 139.667H80.3785L81.4984 137.49L83.2536 134.083L85.009 130.672L86.7644 127.26L88.5196 123.853L91.484 118.091H104.808L104.031 119.854L102.526 123.261L101.022 126.673L99.5171 130.085L98.0126 133.492L96.5079 136.903ZM105.535 116.443L105.096 117.438H91.82L92.0303 117.03L93.7856 113.622L95.5409 110.211L97.2963 106.799L99.0516 103.392L100.715 100.158H112.72L111.554 102.801L110.049 106.212L108.545 109.624L107.04 113.031L105.535 116.443ZM113.058 99.3936L113.011 99.501H101.054L102.562 96.5689L104.318 93.1618L106.073 89.7502L107.828 86.3386L108.32 85.3835H119.239L119.076 85.7516L117.572 89.1588L116.067 92.5703L114.563 95.982L113.058 99.3936ZM120.581 82.34L119.527 84.7305H108.657L109.583 82.9314L111.339 79.5198L113.094 76.1082L114.692 73.0022H124.701L123.59 75.5213L122.086 78.9284L120.581 82.34ZM125.095 72.1096L124.989 72.3496H115.028L116.605 69.2895L118.36 65.8778L120.111 62.4753H129.345L128.104 65.2909L126.6 68.698L125.095 72.1096ZM131.113 58.469L129.633 61.8223H120.447L121.871 59.0578L123.626 55.6475L124.774 53.4185H133.341L132.617 55.0592L131.113 58.469ZM136.817 45.5406L133.63 52.7646H125.11L125.381 52.2376L127.137 48.8274L128.829 45.5406H136.817Z" fill="url(#paint1_radial_276_6026)" fill-opacity="0.31"/>
<g clip-path="url(#clip1_276_6026)">
<path d="M83.3981 415C140.332 415 186.507 386.989 186.507 352.432C186.507 386.989 232.668 415 289.603 415L83.3981 415Z" fill="black"/>
</g>
</g>
<defs>
<radialGradient id="paint0_diamond_276_6026" cx="0" cy="0" r="1" gradientUnits="userSpaceOnUse" gradientTransform="translate(187.5 415) rotate(-90) scale(423 267.533)">
<stop stop-color="white"/>
<stop offset="0.170718" stop-color="#1D5AE3"/>
<stop offset="0.512469" stop-color="#09235C"/>
<stop offset="1"/>
</radialGradient>
<radialGradient id="paint1_radial_276_6026" cx="0" cy="0" r="1" gradientUnits="userSpaceOnUse" gradientTransform="translate(187.03 201) rotate(-90) scale(163 83.7187)">
<stop stop-color="white"/>
<stop offset="1" stop-color="white" stop-opacity="0"/>
</radialGradient>
<clipPath id="clip0_276_6026">
<rect width="375" height="415" fill="white"/>
</clipPath>
<clipPath id="clip1_276_6026">
<rect width="207" height="63" fill="white" transform="translate(290 415) rotate(-180)"/>
</clipPath>
</defs>
</svg>
