<svg width="40" height="40" viewBox="0 0 40 40" fill="none" xmlns="http://www.w3.org/2000/svg">
<circle cx="20" cy="20" r="20" fill="url(#paint0_radial_2024_918)"/>
<circle cx="20" cy="20" r="19.5" stroke="#B7CDFF" stroke-opacity="0.32"/>
<g clip-path="url(#clip0_2024_918)">
<path d="M17.5003 23.3337C20.722 23.3337 23.3337 20.722 23.3337 17.5003C23.3337 14.2787 20.722 11.667 17.5003 11.667C14.2787 11.667 11.667 14.2787 11.667 17.5003C11.667 20.722 14.2787 23.3337 17.5003 23.3337Z" stroke="#B7CDFF" stroke-width="2" stroke-linecap="round" stroke-linejoin="round"/>
<path d="M22.5003 28.3337C25.722 28.3337 28.3337 25.722 28.3337 22.5003C28.3337 19.2787 25.722 16.667 22.5003 16.667C19.2787 16.667 16.667 19.2787 16.667 22.5003C16.667 25.722 19.2787 28.3337 22.5003 28.3337Z" stroke="#B7CDFF" stroke-width="2" stroke-linecap="round" stroke-linejoin="round"/>
</g>
<defs>
<radialGradient id="paint0_radial_2024_918" cx="0" cy="0" r="1" gradientUnits="userSpaceOnUse" gradientTransform="translate(20) rotate(90) scale(40)">
<stop offset="0.316464"/>
<stop offset="0.823625" stop-color="#1D5AE3"/>
<stop offset="1" stop-color="#437EFF"/>
</radialGradient>
<clipPath id="clip0_2024_918">
<rect width="20" height="20" fill="white" transform="translate(10 10)"/>
</clipPath>
</defs>
</svg>
