<svg width="260" height="300" viewBox="0 0 260 300" fill="none" xmlns="http://www.w3.org/2000/svg">
<mask id="mask0_60_1063" style="mask-type:alpha" maskUnits="userSpaceOnUse" x="0" y="1" width="261" height="299">
<rect x="0.00012207" y="1.5" width="260" height="298" fill="url(#paint0_linear_60_1063)"/>
</mask>
<g mask="url(#mask0_60_1063)">
<g clip-path="url(#clip0_60_1063)">
<g opacity="0.05" filter="url(#filter0_bi_60_1063)">
<rect x="0.750122" y="2.25" width="258.5" height="296.5" rx="15.25" stroke="#1D5AE3" stroke-width="1.5"/>
</g>
<g opacity="0.1">
<rect x="17.2334" y="3.5" width="1.5" height="9" fill="#1D5AE3"/>
<rect x="34.4668" y="3.5" width="1.5" height="9" fill="#1D5AE3"/>
<rect x="51.7001" y="3.5" width="1.5" height="9" fill="#1D5AE3"/>
<rect x="68.9335" y="3.5" width="1.5" height="9" fill="#1D5AE3"/>
<rect x="86.1667" y="3.5" width="1.5" height="9" fill="#1D5AE3"/>
<rect x="103.4" y="3.5" width="1.5" height="9" fill="#1D5AE3"/>
<rect x="120.633" y="3.5" width="1.5" height="9" fill="#1D5AE3"/>
<rect x="137.867" y="3.5" width="1.5" height="9" fill="#1D5AE3"/>
<rect x="155.1" y="3.5" width="1.5" height="9" fill="#1D5AE3"/>
<rect x="172.333" y="3.5" width="1.5" height="9" fill="#1D5AE3"/>
<rect x="189.567" y="3.5" width="1.5" height="9" fill="#1D5AE3"/>
<rect x="206.8" y="3.5" width="1.5" height="9" fill="#1D5AE3"/>
<rect x="224.034" y="3.5" width="1.5" height="9" fill="#1D5AE3"/>
<rect x="241.267" y="3.5" width="1.5" height="9" fill="#1D5AE3"/>
</g>
<mask id="mask1_60_1063" style="mask-type:alpha" maskUnits="userSpaceOnUse" x="1" y="100" width="260" height="160">
<rect x="1.00012" y="100.5" width="259" height="159" fill="url(#paint1_linear_60_1063)"/>
</mask>
<g mask="url(#mask1_60_1063)">
<path opacity="0.1" d="M49.2841 210.418C28.98 210.418 28.98 198.189 8.67603 198.189H1.00012V259.5H260V251.999H252.324C232.02 251.999 232.02 188.405 211.716 188.405C191.412 188.405 191.412 222.648 171.108 222.648C150.804 222.648 150.804 173.73 130.5 173.73C110.196 173.73 110.196 161.5 89.8921 161.5C69.5881 161.5 69.5881 210.418 49.2841 210.418Z" fill="url(#paint2_linear_60_1063)"/>
<g opacity="0.75" filter="url(#filter1_di_60_1063)">
<path d="M260 247.5H252.324C232.02 247.5 232.02 187.068 211.716 187.068C191.412 187.068 191.412 219.608 171.108 219.608C150.804 219.608 150.804 173.122 130.5 173.122C110.196 173.122 110.196 161.5 89.8921 161.5C69.5881 161.5 69.5881 207.986 49.2841 207.986C28.98 207.986 28.98 196.365 8.67603 196.365H1.00012" stroke="#1D5AE3" stroke-width="1.5"/>
</g>
</g>
<mask id="mask2_60_1063" style="mask-type:alpha" maskUnits="userSpaceOnUse" x="1" y="9" width="259" height="93">
<rect x="1.00012" y="9.5" width="258" height="92" fill="url(#paint3_linear_60_1063)"/>
</mask>
<g mask="url(#mask2_60_1063)">
<g clip-path="url(#clip1_60_1063)">
<circle cx="23.0001" cy="31.5" r="6" fill="#F8F8F8" fill-opacity="0.05"/>
<circle cx="23.0001" cy="31.5" r="5.5" stroke="url(#paint4_linear_60_1063)" stroke-opacity="0.25"/>
<rect opacity="0.1" x="91.0001" y="37.5" width="44" height="4" rx="1" fill="#F8F8F8" fill-opacity="0.7"/>
<g filter="url(#filter2_d_60_1063)">
<rect x="167" y="25.5" width="76" height="28" rx="8" fill="#F8F8F8" fill-opacity="0.05" style="mix-blend-mode:luminosity" shape-rendering="crispEdges"/>
<rect x="167.5" y="26" width="75" height="27" rx="7.5" stroke="url(#paint5_linear_60_1063)" stroke-opacity="0.25" shape-rendering="crispEdges"/>
<rect x="183" y="37.5" width="44" height="4" rx="1" fill="#F8F8F8" fill-opacity="0.95"/>
</g>
</g>
</g>
<path opacity="0.1" d="M98.7501 7C98.7501 6.58579 98.4143 6.25 98.0001 6.25C97.5859 6.25 97.2501 6.58579 97.2501 7L98.7501 7ZM97.2501 7L97.2501 10.9211L98.7501 10.9211L98.7501 7L97.2501 7ZM97.2501 18.7632L97.2501 26.6053L98.7501 26.6053L98.7501 18.7632L97.2501 18.7632ZM97.2501 34.4474L97.2501 42.2895L98.7501 42.2895L98.7501 34.4474L97.2501 34.4474ZM97.2501 50.1316L97.2501 57.9737L98.7501 57.9737L98.7501 50.1316L97.2501 50.1316ZM97.2501 65.8158L97.2501 73.6579L98.7501 73.6579L98.7501 65.8158L97.2501 65.8158ZM97.2501 81.5L97.2501 89.3421L98.7501 89.3421L98.7501 81.5L97.2501 81.5ZM97.2501 97.1842L97.2501 105.026L98.7501 105.026L98.7501 97.1842L97.2501 97.1842ZM97.2501 112.868L97.2501 120.711L98.7501 120.711L98.7501 112.868L97.2501 112.868ZM97.2501 128.553L97.2501 136.395L98.7501 136.395L98.7501 128.553L97.2501 128.553ZM97.2501 144.237L97.2501 152.079L98.7501 152.079L98.7501 144.237L97.2501 144.237ZM97.2501 159.921L97.2501 167.763L98.7501 167.763L98.7501 159.921L97.2501 159.921ZM97.2501 175.605L97.2501 183.447L98.7501 183.447L98.7501 175.605L97.2501 175.605ZM97.2501 191.289L97.2501 199.132L98.7501 199.132L98.7501 191.289L97.2501 191.289ZM97.2501 206.974L97.2501 214.816L98.7501 214.816L98.7501 206.974L97.2501 206.974ZM97.2501 222.658L97.2501 230.5L98.7501 230.5L98.7501 222.658L97.2501 222.658ZM97.2501 238.342L97.2501 246.184L98.7501 246.184L98.7501 238.342L97.2501 238.342ZM97.2501 254.026L97.2501 261.868L98.7501 261.868L98.7501 254.026L97.2501 254.026ZM97.2501 269.71L97.2501 277.553L98.7501 277.553L98.7501 269.71L97.2501 269.71ZM97.2501 285.395L97.2501 293.237L98.7501 293.237L98.7501 285.395L97.2501 285.395ZM97.2501 301.079L97.2501 305L98.7501 305L98.7501 301.079L97.2501 301.079Z" fill="#1D5AE3"/>
<path d="M104 2.5H92.0001L96.2113 10.9223C96.9483 12.3964 99.0519 12.3964 99.789 10.9223L104 2.5Z" fill="#1D5AE3"/>
<g filter="url(#filter3_bdi_60_1063)">
<circle cx="98.0001" cy="156.5" r="10" fill="#F8F8F8" fill-opacity="0.01" shape-rendering="crispEdges"/>
<circle cx="98.0001" cy="156.5" r="10" fill="#121212" fill-opacity="0.3" shape-rendering="crispEdges"/>
<circle cx="98.0001" cy="156.5" r="9.5" stroke="url(#paint6_linear_60_1063)" stroke-opacity="0.25" shape-rendering="crispEdges"/>
</g>
<circle cx="98.0001" cy="156.5" r="5" fill="#1D5AE3"/>
<path d="M100.084 147.683C99.896 147.616 99.7055 147.547 99.5446 147.506C99.392 147.466 99.0974 147.4 98.7816 147.51C98.4194 147.635 98.1348 147.92 98.0094 148.282C97.9 148.598 97.9658 148.892 98.0055 149.045C98.0473 149.206 98.1157 149.396 98.1831 149.584L102.957 162.883C103.041 163.117 103.121 163.341 103.201 163.513C103.268 163.659 103.42 163.978 103.751 164.158C104.114 164.355 104.55 164.361 104.917 164.174C105.253 164.002 105.414 163.687 105.485 163.543C105.569 163.373 105.655 163.151 105.745 162.92L107.894 157.394L113.42 155.245C113.651 155.155 113.873 155.069 114.043 154.985C114.187 154.914 114.502 154.753 114.673 154.418C114.861 154.05 114.855 153.614 114.658 153.252C114.478 152.92 114.159 152.768 114.013 152.701C113.841 152.622 113.617 152.541 113.383 152.457L100.084 147.683Z" fill="#121212" stroke="#F8F8F8" stroke-width="1.5" stroke-linecap="round" stroke-linejoin="round"/>
</g>
</g>
<defs>
<filter id="filter0_bi_60_1063" x="-99.9999" y="-98.5" width="460" height="498" filterUnits="userSpaceOnUse" color-interpolation-filters="sRGB">
<feFlood flood-opacity="0" result="BackgroundImageFix"/>
<feGaussianBlur in="BackgroundImageFix" stdDeviation="50"/>
<feComposite in2="SourceAlpha" operator="in" result="effect1_backgroundBlur_60_1063"/>
<feBlend mode="normal" in="SourceGraphic" in2="effect1_backgroundBlur_60_1063" result="shape"/>
<feColorMatrix in="SourceAlpha" type="matrix" values="0 0 0 0 0 0 0 0 0 0 0 0 0 0 0 0 0 0 127 0" result="hardAlpha"/>
<feOffset dx="2" dy="4"/>
<feGaussianBlur stdDeviation="8"/>
<feComposite in2="hardAlpha" operator="arithmetic" k2="-1" k3="1"/>
<feColorMatrix type="matrix" values="0 0 0 0 0.972549 0 0 0 0 0.972549 0 0 0 0 0.972549 0 0 0 0.06 0"/>
<feBlend mode="normal" in2="shape" result="effect2_innerShadow_60_1063"/>
</filter>
<filter id="filter1_di_60_1063" x="-6.99988" y="160.75" width="275" height="127.5" filterUnits="userSpaceOnUse" color-interpolation-filters="sRGB">
<feFlood flood-opacity="0" result="BackgroundImageFix"/>
<feColorMatrix in="SourceAlpha" type="matrix" values="0 0 0 0 0 0 0 0 0 0 0 0 0 0 0 0 0 0 127 0" result="hardAlpha"/>
<feMorphology radius="16" operator="erode" in="SourceAlpha" result="effect1_dropShadow_60_1063"/>
<feOffset dy="32"/>
<feGaussianBlur stdDeviation="12"/>
<feComposite in2="hardAlpha" operator="out"/>
<feColorMatrix type="matrix" values="0 0 0 0 0 0 0 0 0 0 0 0 0 0 0 0 0 0 0.4 0"/>
<feBlend mode="multiply" in2="BackgroundImageFix" result="effect1_dropShadow_60_1063"/>
<feBlend mode="normal" in="SourceGraphic" in2="effect1_dropShadow_60_1063" result="shape"/>
<feColorMatrix in="SourceAlpha" type="matrix" values="0 0 0 0 0 0 0 0 0 0 0 0 0 0 0 0 0 0 127 0" result="hardAlpha"/>
<feOffset/>
<feGaussianBlur stdDeviation="4"/>
<feComposite in2="hardAlpha" operator="arithmetic" k2="-1" k3="1"/>
<feColorMatrix type="matrix" values="0 0 0 0 0.972549 0 0 0 0 0.972549 0 0 0 0 0.972549 0 0 0 0.25 0"/>
<feBlend mode="normal" in2="shape" result="effect2_innerShadow_60_1063"/>
</filter>
<filter id="filter2_d_60_1063" x="143" y="25.5" width="124" height="76" filterUnits="userSpaceOnUse" color-interpolation-filters="sRGB">
<feFlood flood-opacity="0" result="BackgroundImageFix"/>
<feColorMatrix in="SourceAlpha" type="matrix" values="0 0 0 0 0 0 0 0 0 0 0 0 0 0 0 0 0 0 127 0" result="hardAlpha"/>
<feOffset dy="24"/>
<feGaussianBlur stdDeviation="12"/>
<feComposite in2="hardAlpha" operator="out"/>
<feColorMatrix type="matrix" values="0 0 0 0 0 0 0 0 0 0 0 0 0 0 0 0 0 0 0.3 0"/>
<feBlend mode="multiply" in2="BackgroundImageFix" result="effect1_dropShadow_60_1063"/>
<feBlend mode="normal" in="SourceGraphic" in2="effect1_dropShadow_60_1063" result="shape"/>
</filter>
<filter id="filter3_bdi_60_1063" x="76.0001" y="134.5" width="44" height="72" filterUnits="userSpaceOnUse" color-interpolation-filters="sRGB">
<feFlood flood-opacity="0" result="BackgroundImageFix"/>
<feGaussianBlur in="BackgroundImageFix" stdDeviation="6"/>
<feComposite in2="SourceAlpha" operator="in" result="effect1_backgroundBlur_60_1063"/>
<feColorMatrix in="SourceAlpha" type="matrix" values="0 0 0 0 0 0 0 0 0 0 0 0 0 0 0 0 0 0 127 0" result="hardAlpha"/>
<feMorphology radius="16" operator="erode" in="SourceAlpha" result="effect2_dropShadow_60_1063"/>
<feOffset dy="32"/>
<feGaussianBlur stdDeviation="12"/>
<feComposite in2="hardAlpha" operator="out"/>
<feColorMatrix type="matrix" values="0 0 0 0 0 0 0 0 0 0 0 0 0 0 0 0 0 0 0.4 0"/>
<feBlend mode="multiply" in2="effect1_backgroundBlur_60_1063" result="effect2_dropShadow_60_1063"/>
<feBlend mode="normal" in="SourceGraphic" in2="effect2_dropShadow_60_1063" result="shape"/>
<feColorMatrix in="SourceAlpha" type="matrix" values="0 0 0 0 0 0 0 0 0 0 0 0 0 0 0 0 0 0 127 0" result="hardAlpha"/>
<feOffset/>
<feGaussianBlur stdDeviation="4"/>
<feComposite in2="hardAlpha" operator="arithmetic" k2="-1" k3="1"/>
<feColorMatrix type="matrix" values="0 0 0 0 0.972549 0 0 0 0 0.972549 0 0 0 0 0.972549 0 0 0 0.25 0"/>
<feBlend mode="normal" in2="shape" result="effect3_innerShadow_60_1063"/>
</filter>
<linearGradient id="paint0_linear_60_1063" x1="130" y1="1.5" x2="130" y2="299.5" gradientUnits="userSpaceOnUse">
<stop offset="0.391024" stop-color="#D9D9D9"/>
<stop offset="1" stop-color="#737373" stop-opacity="0"/>
</linearGradient>
<linearGradient id="paint1_linear_60_1063" x1="260" y1="180" x2="1.00012" y2="180" gradientUnits="userSpaceOnUse">
<stop offset="0.0450512" stop-color="#585858" stop-opacity="0"/>
<stop offset="0.500663" stop-color="#5F5F5F"/>
<stop offset="0.946652" stop-color="#666666" stop-opacity="0"/>
</linearGradient>
<linearGradient id="paint2_linear_60_1063" x1="130.5" y1="251.273" x2="137.991" y2="96.2867" gradientUnits="userSpaceOnUse">
<stop stop-color="white" stop-opacity="0"/>
<stop offset="0.571573" stop-color="white" stop-opacity="0.9"/>
<stop offset="1" stop-color="white"/>
</linearGradient>
<linearGradient id="paint3_linear_60_1063" x1="130" y1="9.5" x2="130" y2="101.5" gradientUnits="userSpaceOnUse">
<stop offset="0.391024" stop-color="#D9D9D9"/>
<stop offset="1" stop-color="#737373" stop-opacity="0"/>
</linearGradient>
<linearGradient id="paint4_linear_60_1063" x1="23.0001" y1="25.5" x2="28.2204" y2="38.6775" gradientUnits="userSpaceOnUse">
<stop stop-color="white" stop-opacity="0.4"/>
<stop offset="0.4" stop-color="white" stop-opacity="0.01"/>
<stop offset="0.6" stop-color="white" stop-opacity="0.01"/>
<stop offset="1" stop-color="white" stop-opacity="0.1"/>
</linearGradient>
<linearGradient id="paint5_linear_60_1063" x1="205" y1="25.5" x2="210.084" y2="60.3308" gradientUnits="userSpaceOnUse">
<stop stop-color="white" stop-opacity="0.4"/>
<stop offset="0.4" stop-color="white" stop-opacity="0.01"/>
<stop offset="0.6" stop-color="white" stop-opacity="0.01"/>
<stop offset="1" stop-color="white" stop-opacity="0.1"/>
</linearGradient>
<linearGradient id="paint6_linear_60_1063" x1="98.0001" y1="146.5" x2="106.701" y2="168.462" gradientUnits="userSpaceOnUse">
<stop stop-color="white" stop-opacity="0.4"/>
<stop offset="0.4" stop-color="white" stop-opacity="0.01"/>
<stop offset="0.6" stop-color="white" stop-opacity="0.01"/>
<stop offset="1" stop-color="white" stop-opacity="0.1"/>
</linearGradient>
<clipPath id="clip0_60_1063">
<rect x="0.00012207" y="0.5" width="260" height="299" rx="16" fill="white"/>
</clipPath>
<clipPath id="clip1_60_1063">
<rect x="1.00012" y="9.5" width="258" height="60" rx="8" fill="white"/>
</clipPath>
</defs>
</svg>
