<svg width="32" height="32" viewBox="0 0 32 32" fill="none" xmlns="http://www.w3.org/2000/svg">
<path d="M10.7392 5.21464C11.4011 4.89184 11.6759 4.09361 11.3531 3.43176C11.0303 2.7699 10.2321 2.49505 9.57025 2.81786C6.78642 4.17563 4.50388 6.37984 3.04979 9.11459C1.5957 11.8493 1.0447 14.9742 1.47576 18.0414C1.57824 18.7706 2.25247 19.2787 2.98168 19.1762C3.71089 19.0737 4.21896 18.3995 4.11647 17.6703C3.76379 15.1608 4.21461 12.604 5.40432 10.3665C6.59403 8.12899 8.46156 6.32554 10.7392 5.21464Z" fill="black"/>
<path d="M10.7392 5.21464C11.4011 4.89184 11.6759 4.09361 11.3531 3.43176C11.0303 2.7699 10.2321 2.49505 9.57025 2.81786C6.78642 4.17563 4.50388 6.37984 3.04979 9.11459C1.5957 11.8493 1.0447 14.9742 1.47576 18.0414C1.57824 18.7706 2.25247 19.2787 2.98168 19.1762C3.71089 19.0737 4.21896 18.3995 4.11647 17.6703C3.76379 15.1608 4.21461 12.604 5.40432 10.3665C6.59403 8.12899 8.46156 6.32554 10.7392 5.21464Z" fill="url(#paint0_radial_7_8638)"/>
<path d="M20.6461 3.43176C20.9689 2.7699 21.7671 2.49505 22.429 2.81786C25.2128 4.17563 27.4954 6.37984 28.9494 9.11459C30.4035 11.8493 30.9545 14.9742 30.5235 18.0414C30.421 18.7706 29.7468 19.2787 29.0176 19.1762C28.2884 19.0737 27.7803 18.3995 27.8828 17.6702C28.2355 15.1608 27.7846 12.604 26.5949 10.3665C25.4052 8.12899 23.5377 6.32554 21.26 5.21464C20.5982 4.89184 20.3233 4.09361 20.6461 3.43176Z" fill="black"/>
<path d="M20.6461 3.43176C20.9689 2.7699 21.7671 2.49505 22.429 2.81786C25.2128 4.17563 27.4954 6.37984 28.9494 9.11459C30.4035 11.8493 30.9545 14.9742 30.5235 18.0414C30.421 18.7706 29.7468 19.2787 29.0176 19.1762C28.2884 19.0737 27.7803 18.3995 27.8828 17.6702C28.2355 15.1608 27.7846 12.604 26.5949 10.3665C25.4052 8.12899 23.5377 6.32554 21.26 5.21464C20.5982 4.89184 20.3233 4.09361 20.6461 3.43176Z" fill="url(#paint1_radial_7_8638)"/>
<path d="M7.08372 26.0038C7.51655 25.4081 8.35038 25.276 8.94612 25.7088C10.9963 27.1984 13.4654 28.0006 15.9995 28.0006C18.5337 28.0006 21.0028 27.1984 23.053 25.7088C23.6487 25.276 24.4825 25.4081 24.9154 26.0038C25.3482 26.5996 25.2161 27.4334 24.6204 27.8662C22.1146 29.6868 19.0968 30.6673 15.9995 30.6673C12.9022 30.6673 9.88446 29.6868 7.37869 27.8662C6.78295 27.4334 6.65089 26.5996 7.08372 26.0038Z" fill="black"/>
<path d="M7.08372 26.0038C7.51655 25.4081 8.35038 25.276 8.94612 25.7088C10.9963 27.1984 13.4654 28.0006 15.9995 28.0006C18.5337 28.0006 21.0028 27.1984 23.053 25.7088C23.6487 25.276 24.4825 25.4081 24.9154 26.0038C25.3482 26.5996 25.2161 27.4334 24.6204 27.8662C22.1146 29.6868 19.0968 30.6673 15.9995 30.6673C12.9022 30.6673 9.88446 29.6868 7.37869 27.8662C6.78295 27.4334 6.65089 26.5996 7.08372 26.0038Z" fill="url(#paint2_radial_7_8638)"/>
<path d="M17.3006 7.43482C17.1525 7.3091 16.9277 7.1417 16.6176 7.04092C16.2159 6.91041 15.7832 6.91041 15.3815 7.04092C15.0713 7.1417 14.8465 7.3091 14.6984 7.43482C14.5706 7.54332 14.4366 7.67749 14.3243 7.78983L7.78914 14.325C7.6768 14.4372 7.54263 14.5713 7.43413 14.6991C7.30841 14.8472 7.14101 15.072 7.04023 15.3822C6.90971 15.7839 6.90971 16.2166 7.04023 16.6183C7.14101 16.9284 7.30841 17.1532 7.43413 17.3013C7.54264 17.4291 7.67682 17.5632 7.78917 17.6755L14.3243 24.2106C14.4365 24.323 14.5706 24.4571 14.6984 24.5656C14.8465 24.6914 15.0713 24.8587 15.3815 24.9595C15.7832 25.09 16.2159 25.09 16.6176 24.9595C16.9277 24.8587 17.1525 24.6914 17.3006 24.5656C17.4285 24.4571 17.5625 24.3229 17.6748 24.2106L24.2099 17.6755C24.3223 17.5632 24.4564 17.4291 24.5649 17.3013C24.6907 17.1532 24.8581 16.9284 24.9588 16.6183C25.0894 16.2166 25.0894 15.7839 24.9588 15.3822C24.8581 15.072 24.6907 14.8472 24.5649 14.6991C24.4564 14.5713 24.3222 14.4372 24.2099 14.325L17.6748 7.78983C17.5625 7.67749 17.4284 7.54332 17.3006 7.43482Z" fill="black"/>
<path d="M17.3006 7.43482C17.1525 7.3091 16.9277 7.1417 16.6176 7.04092C16.2159 6.91041 15.7832 6.91041 15.3815 7.04092C15.0713 7.1417 14.8465 7.3091 14.6984 7.43482C14.5706 7.54332 14.4366 7.67749 14.3243 7.78983L7.78914 14.325C7.6768 14.4372 7.54263 14.5713 7.43413 14.6991C7.30841 14.8472 7.14101 15.072 7.04023 15.3822C6.90971 15.7839 6.90971 16.2166 7.04023 16.6183C7.14101 16.9284 7.30841 17.1532 7.43413 17.3013C7.54264 17.4291 7.67682 17.5632 7.78917 17.6755L14.3243 24.2106C14.4365 24.323 14.5706 24.4571 14.6984 24.5656C14.8465 24.6914 15.0713 24.8587 15.3815 24.9595C15.7832 25.09 16.2159 25.09 16.6176 24.9595C16.9277 24.8587 17.1525 24.6914 17.3006 24.5656C17.4285 24.4571 17.5625 24.3229 17.6748 24.2106L24.2099 17.6755C24.3223 17.5632 24.4564 17.4291 24.5649 17.3013C24.6907 17.1532 24.8581 16.9284 24.9588 16.6183C25.0894 16.2166 25.0894 15.7839 24.9588 15.3822C24.8581 15.072 24.6907 14.8472 24.5649 14.6991C24.4564 14.5713 24.3222 14.4372 24.2099 14.325L17.6748 7.78983C17.5625 7.67749 17.4284 7.54332 17.3006 7.43482Z" fill="url(#paint3_radial_7_8638)"/>
<defs>
<radialGradient id="paint0_radial_7_8638" cx="0" cy="0" r="1" gradientUnits="userSpaceOnUse" gradientTransform="translate(27.3662 6.91212) rotate(143.003) scale(33.9892 12.0848)">
<stop stop-color="#1D5AE3"/>
<stop offset="1" stop-color="#D7E3FF"/>
</radialGradient>
<radialGradient id="paint1_radial_7_8638" cx="0" cy="0" r="1" gradientUnits="userSpaceOnUse" gradientTransform="translate(27.3662 6.91212) rotate(143.003) scale(33.9892 12.0848)">
<stop stop-color="#1D5AE3"/>
<stop offset="1" stop-color="#D7E3FF"/>
</radialGradient>
<radialGradient id="paint2_radial_7_8638" cx="0" cy="0" r="1" gradientUnits="userSpaceOnUse" gradientTransform="translate(27.3662 6.91212) rotate(143.003) scale(33.9892 12.0848)">
<stop stop-color="#1D5AE3"/>
<stop offset="1" stop-color="#D7E3FF"/>
</radialGradient>
<radialGradient id="paint3_radial_7_8638" cx="0" cy="0" r="1" gradientUnits="userSpaceOnUse" gradientTransform="translate(27.3662 6.91212) rotate(143.003) scale(33.9892 12.0848)">
<stop stop-color="#1D5AE3"/>
<stop offset="1" stop-color="#D7E3FF"/>
</radialGradient>
</defs>
</svg>
