<svg width="32" height="32" viewBox="0 0 32 32" fill="none" xmlns="http://www.w3.org/2000/svg">
<path d="M16.9966 1.78052C16.7435 1.49587 16.3809 1.33301 16 1.33301C15.6192 1.33301 15.2565 1.49588 15.0035 1.78053L4.3368 13.7807C4.02696 14.1293 3.92177 14.6145 4.05942 15.0601C4.19706 15.5057 4.55754 15.847 5.01 15.9601L15.6767 18.6265C15.889 18.6796 16.1111 18.6796 16.3234 18.6265L26.9901 15.9599C27.4425 15.8468 27.803 15.5054 27.9406 15.0598C28.0783 14.6142 27.9731 14.1291 27.6632 13.7805L16.9966 1.78052Z" fill="black"/>
<path d="M16.9966 1.78052C16.7435 1.49587 16.3809 1.33301 16 1.33301C15.6192 1.33301 15.2565 1.49588 15.0035 1.78053L4.3368 13.7807C4.02696 14.1293 3.92177 14.6145 4.05942 15.0601C4.19706 15.5057 4.55754 15.847 5.01 15.9601L15.6767 18.6265C15.889 18.6796 16.1111 18.6796 16.3234 18.6265L26.9901 15.9599C27.4425 15.8468 27.803 15.5054 27.9406 15.0598C28.0783 14.6142 27.9731 14.1291 27.6632 13.7805L16.9966 1.78052Z" fill="url(#paint0_radial_7_8650)"/>
<path d="M7.63317 18.7006C7.06248 18.5689 6.47267 18.825 6.17932 19.3319C5.88597 19.8389 5.95777 20.4779 6.3563 20.907L15.0231 30.2404C15.2754 30.5121 15.6294 30.6664 16.0002 30.6664C16.371 30.6664 16.725 30.5121 16.9772 30.2404L25.6438 20.907C26.0423 20.4778 26.1141 19.8388 25.8207 19.3319C25.5274 18.825 24.9376 18.5689 24.3669 18.7006L16 20.6314L7.63317 18.7006Z" fill="black"/>
<path d="M7.63317 18.7006C7.06248 18.5689 6.47267 18.825 6.17932 19.3319C5.88597 19.8389 5.95777 20.4779 6.3563 20.907L15.0231 30.2404C15.2754 30.5121 15.6294 30.6664 16.0002 30.6664C16.371 30.6664 16.725 30.5121 16.9772 30.2404L25.6438 20.907C26.0423 20.4778 26.1141 19.8388 25.8207 19.3319C25.5274 18.825 24.9376 18.5689 24.3669 18.7006L16 20.6314L7.63317 18.7006Z" fill="url(#paint1_radial_7_8650)"/>
<defs>
<radialGradient id="paint0_radial_7_8650" cx="0" cy="0" r="1" gradientUnits="userSpaceOnUse" gradientTransform="translate(25.3 5.76636) rotate(136.012) scale(30.8702 11.4113)">
<stop stop-color="#1D5AE3"/>
<stop offset="1" stop-color="#D7E3FF"/>
</radialGradient>
<radialGradient id="paint1_radial_7_8650" cx="0" cy="0" r="1" gradientUnits="userSpaceOnUse" gradientTransform="translate(25.3 5.76636) rotate(136.012) scale(30.8702 11.4113)">
<stop stop-color="#1D5AE3"/>
<stop offset="1" stop-color="#D7E3FF"/>
</radialGradient>
</defs>
</svg>
