<svg width="32" height="32" viewBox="0 0 32 32" fill="none" xmlns="http://www.w3.org/2000/svg">
<path fill-rule="evenodd" clip-rule="evenodd" d="M15.9997 1.33301C7.8995 1.33301 1.33301 7.8995 1.33301 15.9997C1.33301 24.0999 7.8995 30.6663 15.9997 30.6663C24.0999 30.6663 30.6663 24.0999 30.6663 15.9997C30.6663 7.8995 24.0999 1.33301 15.9997 1.33301ZM9.81509 16.3287L15.9996 7.33301V13.9997H21.3052C21.9624 13.9997 22.291 13.9997 22.4701 14.1364C22.6261 14.2555 22.7217 14.4372 22.7315 14.6333C22.7426 14.8583 22.5565 15.1291 22.1842 15.6706L15.9996 24.6663V17.9997H10.6941C10.0369 17.9997 9.70831 17.9997 9.52918 17.863C9.37316 17.7439 9.27755 17.5621 9.26781 17.3661C9.25663 17.141 9.44278 16.8702 9.81509 16.3287Z" fill="white"/>
<path fill-rule="evenodd" clip-rule="evenodd" d="M15.9997 1.33301C7.8995 1.33301 1.33301 7.8995 1.33301 15.9997C1.33301 24.0999 7.8995 30.6663 15.9997 30.6663C24.0999 30.6663 30.6663 24.0999 30.6663 15.9997C30.6663 7.8995 24.0999 1.33301 15.9997 1.33301ZM9.81509 16.3287L15.9996 7.33301V13.9997H21.3052C21.9624 13.9997 22.291 13.9997 22.4701 14.1364C22.6261 14.2555 22.7217 14.4372 22.7315 14.6333C22.7426 14.8583 22.5565 15.1291 22.1842 15.6706L15.9996 24.6663V17.9997H10.6941C10.0369 17.9997 9.70831 17.9997 9.52918 17.863C9.37316 17.7439 9.27755 17.5621 9.26781 17.3661C9.25663 17.141 9.44278 16.8702 9.81509 16.3287Z" fill="url(#paint0_radial_7_8632)"/>
<defs>
<radialGradient id="paint0_radial_7_8632" cx="0" cy="0" r="1" gradientUnits="userSpaceOnUse" gradientTransform="translate(27.3663 5.76634) rotate(141.699) scale(34.5915 12.4467)">
<stop stop-color="#1D5AE3"/>
<stop offset="1" stop-color="#D7E3FF"/>
</radialGradient>
</defs>
</svg>
