<svg width="80" height="80" viewBox="0 0 80 80" fill="none" xmlns="http://www.w3.org/2000/svg">
<rect width="80" height="80" rx="40" fill="url(#paint0_radial_276_2199)"/>
<rect x="0.5" y="0.5" width="79" height="79" rx="39.5" stroke="#B7CDFF" stroke-opacity="0.32"/>
<path d="M52.2667 53.3334C52.6401 53.3334 52.8267 53.3334 52.9693 53.2607C53.0948 53.1968 53.1968 53.0948 53.2607 52.9693C53.3334 52.8267 53.3334 52.6401 53.3334 52.2667V38.4C53.3334 38.0267 53.3334 37.84 53.2607 37.6974C53.1968 37.5719 53.0948 37.4699 52.9693 37.406C52.8267 37.3334 52.6401 37.3334 52.2667 37.3334L49.0667 37.3334C48.6933 37.3334 48.5066 37.3334 48.364 37.406C48.2386 37.4699 48.1366 37.5719 48.0727 37.6974C48 37.84 48 38.0267 48 38.4V41.6C48 41.9734 48 42.1601 47.9274 42.3027C47.8634 42.4281 47.7615 42.5301 47.636 42.594C47.4934 42.6667 47.3067 42.6667 46.9334 42.6667H43.7334C43.36 42.6667 43.1733 42.6667 43.0307 42.7393C42.9053 42.8033 42.8033 42.9053 42.7393 43.0307C42.6667 43.1733 42.6667 43.36 42.6667 43.7334V46.9334C42.6667 47.3067 42.6667 47.4934 42.594 47.636C42.5301 47.7615 42.4281 47.8634 42.3027 47.9274C42.1601 48 41.9734 48 41.6 48H38.4C38.0267 48 37.84 48 37.6974 48.0727C37.5719 48.1366 37.4699 48.2386 37.406 48.364C37.3334 48.5066 37.3334 48.6933 37.3334 49.0667V52.2667C37.3334 52.6401 37.3334 52.8267 37.406 52.9693C37.4699 53.0948 37.5719 53.1968 37.6974 53.2607C37.84 53.3333 38.0267 53.3333 38.4 53.3333L52.2667 53.3334Z" stroke="#B7CDFF" stroke-width="2" stroke-linecap="round" stroke-linejoin="round"/>
<path d="M37.3334 33.0667C37.3334 32.6933 37.3334 32.5066 37.406 32.364C37.4699 32.2386 37.5719 32.1366 37.6974 32.0727C37.84 32 38.0267 32 38.4 32H41.6C41.9734 32 42.1601 32 42.3027 32.0727C42.4281 32.1366 42.5301 32.2386 42.594 32.364C42.6667 32.5066 42.6667 32.6933 42.6667 33.0667V36.2667C42.6667 36.6401 42.6667 36.8267 42.594 36.9693C42.5301 37.0948 42.4281 37.1968 42.3027 37.2607C42.1601 37.3334 41.9734 37.3334 41.6 37.3334H38.4C38.0267 37.3334 37.84 37.3334 37.6974 37.2607C37.5719 37.1968 37.4699 37.0948 37.406 36.9693C37.3334 36.8267 37.3334 36.6401 37.3334 36.2667V33.0667Z" stroke="#B7CDFF" stroke-width="2" stroke-linecap="round" stroke-linejoin="round"/>
<path d="M28 41.0667C28 40.6933 28 40.5066 28.0727 40.364C28.1366 40.2386 28.2386 40.1366 28.364 40.0727C28.5066 40 28.6933 40 29.0667 40H32.2667C32.6401 40 32.8267 40 32.9693 40.0727C33.0948 40.1366 33.1968 40.2386 33.2607 40.364C33.3334 40.5066 33.3334 40.6933 33.3334 41.0667V44.2667C33.3334 44.6401 33.3334 44.8267 33.2607 44.9693C33.1968 45.0948 33.0948 45.1968 32.9693 45.2607C32.8267 45.3334 32.6401 45.3334 32.2667 45.3334H29.0667C28.6933 45.3334 28.5066 45.3334 28.364 45.2607C28.2386 45.1968 28.1366 45.0948 28.0727 44.9693C28 44.8267 28 44.6401 28 44.2667V41.0667Z" stroke="#B7CDFF" stroke-width="2" stroke-linecap="round" stroke-linejoin="round"/>
<path d="M26.6667 27.7334C26.6667 27.36 26.6667 27.1733 26.7393 27.0307C26.8033 26.9053 26.9053 26.8033 27.0307 26.7393C27.1733 26.6667 27.36 26.6667 27.7334 26.6667H30.9334C31.3067 26.6667 31.4934 26.6667 31.636 26.7393C31.7615 26.8033 31.8634 26.9053 31.9274 27.0307C32 27.1733 32 27.36 32 27.7334V30.9334C32 31.3067 32 31.4934 31.9274 31.636C31.8634 31.7615 31.7615 31.8634 31.636 31.9274C31.4934 32 31.3067 32 30.9334 32H27.7334C27.36 32 27.1733 32 27.0307 31.9274C26.9053 31.8634 26.8033 31.7615 26.7393 31.636C26.6667 31.4934 26.6667 31.3067 26.6667 30.9334V27.7334Z" stroke="#B7CDFF" stroke-width="2" stroke-linecap="round" stroke-linejoin="round"/>
<defs>
<radialGradient id="paint0_radial_276_2199" cx="0" cy="0" r="1" gradientUnits="userSpaceOnUse" gradientTransform="translate(40) rotate(90) scale(80)">
<stop offset="0.316464"/>
<stop offset="0.823625" stop-color="#1D5AE3"/>
<stop offset="1" stop-color="#437EFF"/>
</radialGradient>
</defs>
</svg>
